<svg width="5" height="9" viewBox="0 0 5 9" fill="none" xmlns="http://www.w3.org/2000/svg">
<path d="M5 4.50013C5 4.48921 4.99948 4.47828 4.99895 4.46762C4.99869 4.46415 4.99869 4.46069 4.99843 4.45722C4.98901 4.34021 4.94036 4.22613 4.85168 4.13764L0.840593 0.143533C0.645192 -0.0510415 0.332079 -0.04731 0.141124 0.151796C-0.0498304 0.350901 -0.0461682 0.66995 0.149233 0.864524L3.79986 4.50013L0.148972 8.13548C-0.0464298 8.33005 -0.0500919 8.6491 0.140863 8.8482C0.331817 9.04731 0.64493 9.05104 0.840331 8.85647L4.8509 4.86236C4.93984 4.77387 4.98849 4.65979 4.99765 4.54278C4.99791 4.53932 4.99791 4.53585 4.99817 4.53238C4.99948 4.52172 5 4.5108 5 4.50013Z" fill="#D1D1D1"/>
</svg>
