<svg width="54" height="54" viewBox="0 0 54 54" fill="none" xmlns="http://www.w3.org/2000/svg">
<path d="M27 0C12.1542 0 0 12.157 0 27C0 41.8458 12.157 54 27 54C41.8458 54 54 41.843 54 27C54 12.1542 41.843 0 27 0ZM50.7825 25.418H47.6114C46.845 15.3816 38.7281 7.16344 28.582 6.38859V3.2175C40.4677 4.00078 49.9992 13.5323 50.7825 25.418ZM42.9258 28.5806H44.4347C43.6795 36.9745 36.9759 43.6795 28.582 44.4347V42.9258C28.582 42.0525 27.8747 41.3438 27 41.3438C26.1253 41.3438 25.418 42.0525 25.418 42.9258V44.4347C17.0241 43.6795 10.3205 36.9759 9.56531 28.582H11.1797C12.053 28.582 12.7617 27.8733 12.7617 27C12.7617 26.1253 12.053 25.418 11.1797 25.418H9.56531C10.3205 17.0241 17.0241 10.3205 25.418 9.56531V11.1797C25.418 12.053 26.1253 12.7617 27 12.7617C27.8733 12.7617 28.582 12.053 28.582 11.1797V9.56531C36.9759 10.3205 43.6795 17.0241 44.4347 25.418H42.9258C42.0525 25.418 41.3438 26.1253 41.3438 27C41.3438 27.8733 42.0525 28.5806 42.9258 28.5806ZM25.418 3.2175V6.38859C15.3816 7.15641 7.16344 15.2719 6.38859 25.418H3.2175C4.00078 13.5323 13.5323 4.00078 25.418 3.2175ZM3.2175 28.582H6.38859C7.155 38.6184 15.2719 46.8352 25.418 47.6114V50.7825C13.5323 49.9992 4.00078 40.4677 3.2175 28.582ZM28.582 50.7825V47.6114C38.6184 46.845 46.8366 38.7267 47.6114 28.582L50.7825 28.5834C49.9992 40.4677 40.4677 49.9992 28.582 50.7825Z" fill="white"/>
<path d="M27 15.9258C20.8941 15.9258 15.9258 20.8941 15.9258 27C15.9258 33.1059 20.8941 38.0742 27 38.0742C33.1059 38.0742 38.0742 33.1059 38.0742 27C38.0742 20.8941 33.1059 15.9258 27 15.9258ZM27 34.9102C22.6378 34.9102 19.0898 31.3622 19.0898 27C19.0898 22.6378 22.6378 19.0898 27 19.0898C31.3622 19.0898 34.9102 22.6378 34.9102 27C34.9102 31.3622 31.3622 34.9102 27 34.9102Z" fill="white"/>
<path d="M29.0457 23.5082L25.4176 27.1364L24.1632 25.882C23.5459 25.2646 22.5432 25.2646 21.9259 25.882C21.3086 26.5007 21.3086 27.502 21.9259 28.1193L24.2996 30.4931C24.609 30.8025 25.014 30.9571 25.419 30.9571C25.824 30.9571 26.229 30.8025 26.537 30.4931L31.2831 25.747C31.9018 25.1296 31.9018 24.127 31.2831 23.5096C30.6643 22.8909 29.6631 22.8909 29.0457 23.5082Z" fill="white"/>
</svg>
