<svg width="36" height="55" viewBox="0 0 36 55" fill="none" xmlns="http://www.w3.org/2000/svg">
<path d="M1.63636 55H34.3636C35.2669 55 36 54.2781 36 53.3887V4.83398C36 3.94453 35.2669 3.22266 34.3636 3.22266H29.4545V1.61133C29.4545 0.721875 28.7215 0 27.8182 0C26.9149 0 26.1818 0.721875 26.1818 1.61133V3.22266H22.9091V1.61133C22.9091 0.721875 22.1775 0 21.2727 0C20.3695 0 19.6364 0.721875 19.6364 1.61133V3.22266H16.3636V1.61133C16.3636 0.721875 15.632 0 14.7273 0C13.824 0 13.0909 0.721875 13.0909 1.61133V3.22266H9.81818V1.61133C9.81818 0.721875 9.08509 0 8.18182 0C7.27855 0 6.54545 0.721875 6.54545 1.61133V3.22266H1.63636C0.733091 3.22266 0 3.94453 0 4.83398V53.3887C0 54.2781 0.733091 55 1.63636 55ZM3.27273 6.44531H6.54545V8.05664C6.54545 8.94609 7.27855 9.66797 8.18182 9.66797C9.08509 9.66797 9.81818 8.94609 9.81818 8.05664V6.44531H13.0909V8.05664C13.0909 8.94609 13.8225 9.66797 14.7273 9.66797C15.6305 9.66797 16.3636 8.94609 16.3636 8.05664V6.44531H19.6364V8.05664C19.6364 8.94609 20.3695 9.66797 21.2727 9.66797C22.1775 9.66797 22.9091 8.94609 22.9091 8.05664V6.44531H26.1818V8.05664C26.1818 8.94609 26.9135 9.66797 27.8182 9.66797C28.7215 9.66797 29.4545 8.94609 29.4545 8.05664V6.44531H32.7273V51.7773H3.27273V6.44531Z" fill="white"/>
<path d="M14.5523 14.2756L10.7995 17.9709L9.50208 16.6933C8.86353 16.0645 7.82644 16.0645 7.18789 16.6933C6.54935 17.3221 6.54935 18.3433 7.18789 18.9721L9.64317 21.3898C10.2832 22.0186 11.3188 22.0186 11.9573 21.3898L16.8664 16.5558C17.505 15.927 17.505 14.9058 16.8664 14.277C16.2264 13.6468 15.1908 13.6468 14.5523 14.2756Z" fill="white"/>
<path d="M21.2731 22.666H24.5458C25.4491 22.666 26.1822 21.9441 26.1822 21.0547C26.1822 20.1652 25.4491 19.4434 24.5458 19.4434H21.2731C20.3698 19.4434 19.6367 20.1652 19.6367 21.0547C19.6367 21.9441 20.3698 22.666 21.2731 22.666Z" fill="white"/>
<path d="M27.8185 12.998H21.2731C20.3698 12.998 19.6367 13.7199 19.6367 14.6094C19.6367 15.4988 20.3698 16.2207 21.2731 16.2207H27.8185C28.7218 16.2207 29.4549 15.4988 29.4549 14.6094C29.4549 13.7199 28.7218 12.998 27.8185 12.998Z" fill="white"/>
<path d="M14.5523 27.1662L10.7995 30.8615L9.50208 29.5839C8.86353 28.9552 7.82644 28.9552 7.18789 29.5839C6.54935 30.2141 6.54935 31.2339 7.18789 31.8627L9.64317 34.2804C10.2832 34.9092 11.3188 34.9092 11.9573 34.2804L16.8664 29.4464C17.505 28.8177 17.505 27.7964 16.8664 27.1677C16.2264 26.5375 15.1908 26.5375 14.5523 27.1662Z" fill="white"/>
<path d="M21.2731 35.5566H24.5458C25.4491 35.5566 26.1822 34.8348 26.1822 33.9453C26.1822 33.0544 25.4491 32.334 24.5458 32.334H21.2731C20.3698 32.334 19.6367 33.0559 19.6367 33.9453C19.6367 34.8348 20.3698 35.5566 21.2731 35.5566Z" fill="white"/>
<path d="M27.8185 25.8887H21.2731C20.3698 25.8887 19.6367 26.6091 19.6367 27.5C19.6367 28.3895 20.3698 29.1113 21.2731 29.1113H27.8185C28.7218 29.1113 29.4549 28.3895 29.4549 27.5C29.4549 26.6105 28.7218 25.8887 27.8185 25.8887Z" fill="white"/>
<path d="M14.5523 40.0569L10.7995 43.7522L9.50208 42.4746C8.86353 41.8458 7.82644 41.8458 7.18789 42.4746C6.54935 43.1033 6.54935 44.1246 7.18789 44.7533L9.64317 47.171C10.2832 47.7998 11.3188 47.7998 11.9573 47.171L16.8664 42.3371C17.505 41.7083 17.505 40.6871 16.8664 40.0583C16.2264 39.4281 15.1908 39.4281 14.5523 40.0569Z" fill="white"/>
<path d="M24.5458 45.2246H21.2731C20.3698 45.2246 19.6367 45.9465 19.6367 46.8359C19.6367 47.7254 20.3698 48.4473 21.2731 48.4473H24.5458C25.4491 48.4473 26.1822 47.7254 26.1822 46.8359C26.1822 45.9465 25.4491 45.2246 24.5458 45.2246Z" fill="white"/>
<path d="M27.8185 38.7793H21.2731C20.3698 38.7793 19.6367 39.5012 19.6367 40.3906C19.6367 41.2801 20.3698 42.002 21.2731 42.002H27.8185C28.7218 42.002 29.4549 41.2801 29.4549 40.3906C29.4549 39.5012 28.7218 38.7793 27.8185 38.7793Z" fill="white"/>
</svg>
