<svg width="44" height="54" viewBox="0 0 44 54" fill="none" xmlns="http://www.w3.org/2000/svg">
<path d="M13.3893 21.9182C13.3893 21.1857 12.7878 20.5864 12.0526 20.5864H1.33671C0.601517 20.5864 0 21.1857 0 21.9182C0 22.6506 0.601517 23.2499 1.33671 23.2499H12.0526C12.7878 23.2499 13.3893 22.6506 13.3893 21.9182Z" fill="white"/>
<path d="M42.6639 20.5864H31.948C31.2128 20.5864 30.6113 21.1857 30.6113 21.9182C30.6113 22.6506 31.2128 23.2499 31.948 23.2499H42.6639C43.3991 23.2499 44.0007 22.6506 44.0007 21.9182C44.0007 21.1857 43.4103 20.5864 42.6639 20.5864Z" fill="white"/>
<path d="M21.9988 13.3396C22.734 13.3396 23.3355 12.7403 23.3355 12.0078V1.33174C23.3355 0.599281 22.734 0 21.9988 0C21.2636 0 20.6621 0.599281 20.6621 1.33174V12.0078C20.6621 12.7403 21.2636 13.3396 21.9988 13.3396Z" fill="white"/>
<path d="M29.0309 16.2472C29.3762 16.2472 29.7104 16.114 29.9777 15.8587L37.5635 8.30114C38.0871 7.77954 38.0871 6.93611 37.5635 6.41451C37.04 5.89292 36.1934 5.89292 35.6699 6.41451L28.0841 13.9721C27.5605 14.4937 27.5605 15.3371 28.0841 15.8587C28.3514 16.114 28.6967 16.2472 29.0309 16.2472Z" fill="white"/>
<path d="M14.0253 15.8587C14.2815 16.114 14.6268 16.2472 14.9722 16.2472C15.3175 16.2472 15.6517 16.114 15.919 15.8587C16.4425 15.3371 16.4425 14.4937 15.919 13.9721L8.3332 6.41451C7.80965 5.89292 6.96307 5.89292 6.43953 6.41451C5.91599 6.93611 5.91599 7.77954 6.43953 8.30114L14.0253 15.8587Z" fill="white"/>
<path d="M38.0626 30.3193C37.0489 29.4536 35.7679 28.9764 34.4646 28.9764H26.812V23.594C26.812 21.0193 26.0434 19.1438 24.5173 18.0229C22.1112 16.2694 18.8475 17.2571 18.7027 17.3015C18.1457 17.4791 17.767 17.9896 17.767 18.5667V25.0589C17.767 27.0343 16.8201 28.7101 14.9376 30.0529C13.5118 31.0739 12.0525 31.54 11.8632 31.5955L11.7295 31.6288C11.2282 31.0628 10.4931 30.7077 9.66875 30.7077H4.58927C3.07434 30.7077 1.83789 31.9395 1.83789 33.4488V50.0512C1.83789 51.5605 3.07434 52.7923 4.58927 52.7923H9.69103C10.3594 52.7923 10.9832 52.5482 11.451 52.1486C12.4758 53.1474 13.8682 53.7578 15.372 53.7578H31.3345C32.9386 53.7578 34.3532 53.3694 35.4337 52.648C36.815 51.7158 37.6727 50.2398 37.9178 48.3532L39.9785 35.5907C40.3016 33.6153 39.5664 31.5955 38.0626 30.3193ZM9.76901 50.0512C9.76901 50.0956 9.73559 50.1288 9.69103 50.1288H4.58927C4.54472 50.1288 4.5113 50.0956 4.5113 50.0512V33.4488C4.5113 33.4045 4.54472 33.3712 4.58927 33.3712H9.69103C9.73559 33.3712 9.76901 33.4045 9.76901 33.4488V50.0512ZM37.3385 35.1801L35.2778 47.9648C35.2778 47.9759 35.2778 47.9981 35.2667 48.0203C35.1775 48.786 34.8879 51.1055 31.3345 51.1055H15.372C13.9462 51.1055 12.6986 50.0401 12.4758 48.6306C12.4647 48.5752 12.4536 48.5197 12.4424 48.4753V34.2035L12.5204 34.1813C12.5427 34.1813 12.5538 34.1702 12.5761 34.1702C12.6541 34.148 14.5477 33.6153 16.4303 32.2725C19.048 30.4191 20.4404 27.9221 20.4404 25.0589V19.6654C21.1756 19.5877 22.1892 19.621 22.9356 20.1648C23.7376 20.753 24.1386 21.9071 24.1386 23.5829V30.2971C24.1386 31.0295 24.7401 31.6288 25.4753 31.6288H34.4646C35.133 31.6288 35.7902 31.8841 36.3249 32.328C37.1269 33.016 37.5056 34.1036 37.3385 35.1801Z" fill="white"/>
</svg>
