<svg width="109" height="109" viewBox="0 0 109 109" fill="none" xmlns="http://www.w3.org/2000/svg">
<g clip-path="url(#clip0_216_1991)">
<path d="M107.586 77.6653L102.874 74.5061C102.84 74.4833 102.803 74.4606 102.769 74.4379C99.911 72.678 96.3117 71.5795 92.7068 71.3382V3.19336C92.7068 1.43063 91.279 0 89.5191 0H19.4837C17.7239 0 16.2961 1.43063 16.2961 3.19336V59.5356H9.78161C4.4338 59.5356 0.0596094 63.8899 0.0283854 69.2434L0 74.4606C0 74.4635 0 74.4663 0 74.472C0 74.4748 0 74.4777 0 74.4805V85.9624C0 87.7251 1.42779 89.1558 3.18768 89.1558H16.2961V105.809C16.2961 107.572 17.7239 109.003 19.4837 109.003H89.5191C91.279 109.003 92.7068 107.572 92.7068 105.809V89.1132C96.2549 88.9003 99.8116 87.8557 102.645 86.1724C102.679 86.1526 102.713 86.1299 102.747 86.1072L107.547 83.0018C108.446 82.4199 108.994 81.4207 109.003 80.3449C109.009 79.272 108.478 78.2643 107.586 77.6653ZM22.6714 6.38672H86.3286V71.2871C71.2531 71.2871 37.412 71.2871 22.6714 71.2871V65.9195H41.7039C43.4637 65.9195 44.8915 64.4888 44.8915 62.7261C44.8915 60.9634 43.4637 59.5327 41.7039 59.5327H22.6714V6.38672ZM43.6483 82.769V77.6739H78.0457V82.769H43.6483ZM9.78161 65.9195H16.2932V71.2871H6.39523L6.40659 69.2803C6.41794 67.4267 7.93088 65.9195 9.78161 65.9195ZM6.37536 77.6739H37.2729V82.769H6.37536V77.6739ZM22.6714 102.613V89.1529H86.3286V102.613H22.6714ZM99.3376 80.7083C97.1406 81.9998 94.1629 82.769 91.3585 82.769H84.4267V77.6739H89.5021C89.5134 77.6739 89.5248 77.6739 89.5361 77.6739H91.2137C94.0948 77.6739 97.1434 78.4857 99.3859 79.8482L100.016 80.2711L99.3376 80.7083Z" fill="white"/>
<path d="M78.1765 42.439V18.7911C78.1765 17.0284 76.7487 15.5978 74.9888 15.5978H34.0117C32.2518 15.5978 30.824 17.0284 30.824 18.7911V42.4419C30.824 44.2046 32.2518 45.6352 34.0117 45.6352H74.9917C76.7516 45.6324 78.1765 44.2018 78.1765 42.439ZM71.8012 21.9845V27.4231H37.1993V21.9845H71.8012ZM37.1993 39.2485V33.807H71.8012V39.2457H37.1993V39.2485Z" fill="#F4D80C"/>
</g>
<defs>
<clipPath id="clip0_216_1991">
<rect width="109" height="109" fill="white"/>
</clipPath>
</defs>
</svg>
