<svg width="109" height="110" viewBox="0 0 109 110" fill="none" xmlns="http://www.w3.org/2000/svg">
<g clip-path="url(#clip0_208_1120)">
<path d="M105.352 13.7804H100.516V4.17639C100.516 2.42122 99.0909 0.996735 97.3355 0.996735H79.1257C77.3703 0.996735 75.9456 2.42122 75.9456 4.17639V13.7804H33.8557V4.17639C33.8557 2.42122 32.431 0.996735 30.6756 0.996735H12.4659C10.7076 0.996735 9.28579 2.42122 9.28579 4.17639V13.7804H3.18007C1.42184 13.7804 0 15.2048 0 16.96V106.349C0 108.104 1.42184 109.529 3.18007 109.529H105.352C107.107 109.529 108.532 108.104 108.532 106.349V16.96C108.532 15.2048 107.107 13.7804 105.352 13.7804ZM82.3029 7.35604H94.1526V13.7804H82.3029V7.35604ZM15.6459 7.35604H27.4956V13.7804H15.6459V7.35604ZM102.172 20.1397V26.5555H6.36013V20.1397H102.172ZM6.36013 32.9148H102.172V84.5156H86.6957C84.9375 84.5156 83.5156 85.9401 83.5156 87.6953V103.17H6.36013V32.9148ZM97.6747 90.8749L89.8757 98.6728V90.8749H97.6747ZM94.3702 103.17L102.169 95.3717V103.17H94.3702Z" fill="#DDDDDD"/>
<path d="M62.1795 52.2952H18.9363C16.9861 52.2952 15.4033 50.7124 15.4033 48.7622C15.4033 46.812 16.9861 45.2293 18.9363 45.2293H62.1795C64.1297 45.2293 65.7125 46.812 65.7125 48.7622C65.7125 50.7124 64.1297 52.2952 62.1795 52.2952Z" fill="#F4D805"/>
<path d="M79.4204 52.2952H75.1441C73.1939 52.2952 71.6112 50.7124 71.6112 48.7622C71.6112 46.812 73.1939 45.2293 75.1441 45.2293H79.4204C81.3706 45.2293 82.9533 46.812 82.9533 48.7622C82.9533 50.7124 81.3706 52.2952 79.4204 52.2952Z" fill="#F4D805"/>
<path d="M62.1795 65.155H18.9363C16.9861 65.155 15.4033 63.5722 15.4033 61.6221C15.4033 59.6719 16.9861 58.0891 18.9363 58.0891H62.1795C64.1297 58.0891 65.7125 59.6719 65.7125 61.6221C65.7125 63.5722 64.1297 65.155 62.1795 65.155Z" fill="#F4D805"/>
<path d="M79.4204 65.4687H75.1441C73.1939 65.4687 71.6112 63.886 71.6112 61.9358C71.6112 59.9856 73.1939 58.4028 75.1441 58.4028H79.4204C81.3706 58.4028 82.9533 59.9856 82.9533 61.9358C82.9533 63.886 81.3706 65.4687 79.4204 65.4687Z" fill="#F4D805"/>
<path d="M62.1795 78.3287H18.9363C16.9861 78.3287 15.4033 76.746 15.4033 74.7958C15.4033 72.8456 16.9861 71.2628 18.9363 71.2628H62.1795C64.1297 71.2628 65.7125 72.8456 65.7125 74.7958C65.7125 76.746 64.1297 78.3287 62.1795 78.3287Z" fill="#F4D805"/>
<path d="M79.4204 78.3287H75.1441C73.1939 78.3287 71.6112 76.7459 71.6112 74.7958C71.6112 72.8456 73.1939 71.2628 75.1441 71.2628H79.4204C81.3706 71.2628 82.9533 72.8456 82.9533 74.7958C82.9533 76.7459 81.3706 78.3287 79.4204 78.3287Z" fill="#F4D805"/>
</g>
<defs>
<clipPath id="clip0_208_1120">
<rect width="109" height="109" fill="white" transform="translate(0 0.237915)"/>
</clipPath>
</defs>
</svg>
