<svg width="110" height="110" viewBox="0 0 110 110" fill="none" xmlns="http://www.w3.org/2000/svg">
<g clip-path="url(#clip0_216_1996)">
<path d="M108.655 52.0455C108.655 39.0421 98.915 28.2755 86.3681 26.6973C86.3822 21.2076 86.4049 9.73135 86.419 4.20187C86.4218 3.35315 86.0851 2.53849 85.488 1.93956C84.891 1.33779 84.0817 1 83.2356 1H25.2749C24.6099 1.01703 23.7525 1.21573 23.079 1.87995L0.987565 22.9817C0.449922 23.5295 0.0028297 24.2675 0 25.2951V106.807C0 108.569 1.42617 110 3.18341 110H89.5911C91.3512 110 92.7745 108.569 92.7745 106.807V86.5366C92.7745 84.7739 91.3483 83.3433 89.5911 83.3433H86.3624V77.3937C98.9121 75.8211 108.655 65.0517 108.655 52.0455ZM102.288 52.0455C101.861 73.7887 72.2733 78.4184 65.0859 58.2136C65.035 57.9213 64.9473 57.6403 64.8227 57.3791C61.1809 45.4232 70.6746 32.6838 83.179 32.8825C93.714 32.8825 102.288 41.4776 102.288 52.0455ZM80.0295 14.6364H28.4583V7.38672H80.0437L80.0295 14.6364ZM22.0915 11.6445V22.1017H11.1434L22.0915 11.6445ZM86.4105 103.613H79.9475V89.73H86.4105V103.613ZM76.7641 83.3433C75.0068 83.3433 73.5807 84.7739 73.5807 86.5366V103.613H6.36682V28.4884H25.2749C27.0321 28.4884 28.4583 27.0578 28.4583 25.2951V21.0231H80.0126L79.9984 26.6945C71.6225 27.7447 64.5002 32.8853 60.6857 40.0555H34.6016C30.3768 40.223 30.3796 46.2747 34.6016 46.4422H58.3201C57.6579 49.346 57.5221 52.5678 57.9409 55.5511H34.6016C30.3768 55.7186 30.3796 61.7703 34.6016 61.9378H59.6897C63.1561 70.1894 70.8274 76.2469 79.9956 77.3965V83.3461H76.7641V83.3433Z" fill="white"/>
<path d="M21.8399 40.0555C20.0827 40.0555 18.6565 41.4861 18.6565 43.2489C18.8234 47.484 24.8564 47.4811 25.0233 43.2489C25.0261 41.4861 23.6 40.0555 21.8399 40.0555Z" fill="white"/>
<path d="M21.8399 55.5511C20.0827 55.5511 18.6565 56.9817 18.6565 58.7444C18.8234 62.9796 24.8564 62.9796 25.0233 58.7444C25.0261 56.9789 23.6 55.5511 21.8399 55.5511Z" fill="white"/>
<path d="M53.2014 71.0438H34.6018C30.3771 71.2113 30.3799 77.2631 34.6018 77.4306H53.2014C57.4262 77.2603 57.4233 71.2113 53.2014 71.0438Z" fill="white"/>
<path d="M21.8399 71.0438C20.0827 71.0438 18.6565 72.4745 18.6565 74.2372C18.8234 78.4723 24.8564 78.4723 25.0233 74.2372C25.0261 72.4745 23.6 71.0438 21.8399 71.0438Z" fill="white"/>
<path d="M46.4639 86.5366H34.6018C30.3771 86.7041 30.3799 92.7559 34.6018 92.9233H46.4639C50.6887 92.7559 50.6858 86.7041 46.4639 86.5366Z" fill="white"/>
<path d="M21.8399 86.5366C20.0827 86.5366 18.6565 87.9672 18.6565 89.73C18.8234 93.9651 24.8564 93.9651 25.0233 89.73C25.0261 87.9672 23.6 86.5366 21.8399 86.5366Z" fill="white"/>
<path d="M78.6715 49.6356C75.3381 47.0298 71.4444 51.6509 74.5599 54.5122L79.4157 58.6309C80.6777 59.701 82.551 59.6272 83.7225 58.4492L91.9909 50.155C93.236 48.9089 93.236 46.885 91.9909 45.6389C90.7487 44.3899 88.7311 44.3899 87.4888 45.6389L81.289 51.8553L78.6715 49.6356Z" fill="#F4D805"/>
<path d="M83.1788 77.9018C68.9398 77.9018 57.355 66.2808 57.355 52.0001C57.355 37.7194 68.9398 26.0956 83.1788 26.0956C97.4179 26.0956 109 37.7165 109 52.0001C109 66.2836 97.4179 77.9018 83.1788 77.9018ZM83.1788 33.1919C72.8419 33.1919 64.4292 41.628 64.4292 52.0001C64.4292 62.3721 72.8391 70.8054 83.1788 70.8054C93.5185 70.8054 101.926 62.3693 101.926 52.0001C101.926 41.6309 93.5157 33.1919 83.1788 33.1919Z" fill="#F4D805"/>
</g>
<defs>
<clipPath id="clip0_216_1996">
<rect width="109.47" height="109.47" fill="white"/>
</clipPath>
</defs>
</svg>
