<svg width="110" height="110" viewBox="0 0 110 110" fill="none" xmlns="http://www.w3.org/2000/svg">
<g clip-path="url(#clip0_208_1133)">
<path d="M108.655 52.0455C108.655 39.0421 98.915 28.2755 86.3681 26.6973C86.3822 21.2076 86.4049 9.73135 86.419 4.20187C86.4218 3.35315 86.0851 2.53849 85.488 1.93956C84.891 1.33779 84.0817 1 83.2356 1H25.2749C24.6099 1.01703 23.7525 1.21573 23.079 1.87995L0.987565 22.9817C0.449922 23.5295 0.0028297 24.2675 0 25.2951V106.807C0 108.569 1.42617 110 3.18341 110H89.5911C91.3512 110 92.7745 108.569 92.7745 106.807V86.5366C92.7745 84.7739 91.3483 83.3433 89.5911 83.3433H86.3624V77.3937C98.9121 75.8211 108.655 65.0517 108.655 52.0455ZM102.288 52.0455C101.861 73.7887 72.2733 78.4184 65.0859 58.2136C65.035 57.9213 64.9473 57.6403 64.8227 57.3791C61.1809 45.4232 70.6746 32.6838 83.179 32.8825C93.714 32.8825 102.288 41.4776 102.288 52.0455ZM80.0295 14.6364H28.4583V7.38672H80.0437L80.0295 14.6364ZM22.0915 11.6445V22.1017H11.1434L22.0915 11.6445ZM86.4105 103.613H79.9475V89.73H86.4105V103.613ZM76.7641 83.3433C75.0068 83.3433 73.5807 84.7739 73.5807 86.5366V103.613H6.36682V28.4884H25.2749C27.0321 28.4884 28.4583 27.0578 28.4583 25.2951V21.0231H80.0126L79.9984 26.6945C71.6225 27.7447 64.5002 32.8853 60.6857 40.0555H34.6016C30.3768 40.223 30.3796 46.2747 34.6016 46.4422H58.3201C57.6579 49.346 57.5221 52.5678 57.9409 55.5511H34.6016C30.3768 55.7186 30.3796 61.7703 34.6016 61.9378H59.6897C63.1561 70.1894 70.8274 76.2469 79.9956 77.3965V83.3461H76.7641V83.3433Z" fill="#DDDDDD"/>
<path d="M21.8398 40.0555C20.0826 40.0555 18.6564 41.4861 18.6564 43.2489C18.8234 47.484 24.8563 47.4811 25.0232 43.2489C25.0261 41.4861 23.5999 40.0555 21.8398 40.0555Z" fill="#DDDDDD"/>
<path d="M21.8398 55.5511C20.0826 55.5511 18.6564 56.9817 18.6564 58.7444C18.8234 62.9796 24.8563 62.9796 25.0232 58.7444C25.0261 56.9789 23.5999 55.5511 21.8398 55.5511Z" fill="#DDDDDD"/>
<path d="M53.2014 71.0438H34.6018C30.377 71.2113 30.3799 77.2631 34.6018 77.4306H53.2014C57.4261 77.2603 57.4233 71.2113 53.2014 71.0438Z" fill="#DDDDDD"/>
<path d="M21.8398 71.0438C20.0826 71.0438 18.6564 72.4745 18.6564 74.2372C18.8234 78.4723 24.8563 78.4723 25.0232 74.2372C25.0261 72.4745 23.5999 71.0438 21.8398 71.0438Z" fill="#DDDDDD"/>
<path d="M46.4639 86.5366H34.6018C30.377 86.7041 30.3799 92.7559 34.6018 92.9233H46.4639C50.6886 92.7559 50.6858 86.7041 46.4639 86.5366Z" fill="#DDDDDD"/>
<path d="M21.8398 86.5366C20.0826 86.5366 18.6564 87.9672 18.6564 89.73C18.8234 93.9651 24.8563 93.9651 25.0232 89.73C25.0261 87.9672 23.5999 86.5366 21.8398 86.5366Z" fill="#DDDDDD"/>
<path d="M78.6714 49.6356C75.338 47.0298 71.4443 51.6509 74.5598 54.5122L79.4156 58.6309C80.6777 59.701 82.5509 59.6272 83.7224 58.4492L91.9908 50.155C93.2359 48.9089 93.2359 46.885 91.9908 45.6389C90.7486 44.3899 88.731 44.3899 87.4887 45.6389L81.2889 51.8553L78.6714 49.6356Z" fill="#F4D805"/>
<path d="M83.1787 77.9018C68.9396 77.9018 57.3549 66.2808 57.3549 52.0001C57.3549 37.7194 68.9396 26.0956 83.1787 26.0956C97.4177 26.0956 109 37.7165 109 52.0001C109 66.2836 97.4177 77.9018 83.1787 77.9018ZM83.1787 33.1919C72.8418 33.1919 64.4291 41.628 64.4291 52.0001C64.4291 62.3721 72.839 70.8054 83.1787 70.8054C93.5184 70.8054 101.925 62.3693 101.925 52.0001C101.925 41.6309 93.5156 33.1919 83.1787 33.1919Z" fill="#F4D805"/>
</g>
<defs>
<clipPath id="clip0_208_1133">
<rect width="109.47" height="109.47" fill="white"/>
</clipPath>
</defs>
</svg>
