<svg width="110" height="110" viewBox="0 0 110 110" fill="none" xmlns="http://www.w3.org/2000/svg">
<g clip-path="url(#clip0_208_1152)">
<path d="M105.573 0.0297394H4.00216C1.94923 0.0297394 0.289062 1.63784 0.289062 3.62244V105.437C0.289062 107.422 1.95253 109.03 4.00216 109.03H105.573C107.626 109.03 109.289 107.422 109.289 105.437V3.62244C109.289 1.64103 107.626 0.0297394 105.573 0.0297394ZM86.8026 101.848H7.71526V7.21196H86.8026V101.848ZM101.856 101.848H94.232V7.21196H101.856V101.848Z" fill="#DDDDDD"/>
<path d="M75.4254 50.8381H17.7849C15.5967 50.8381 13.8243 49.1247 13.8243 47.0093V23.8067C13.8243 21.6913 15.5967 19.9779 17.7849 19.9779H75.4254C77.6136 19.9779 79.386 21.6913 79.386 23.8067V47.0061C79.386 49.1215 77.6136 50.8381 75.4254 50.8381ZM21.7456 43.1805H71.4647V27.6355H21.7456V43.1805Z" fill="#F4D805"/>
<path d="M71.4355 66.5139H20.9374C18.66 66.5139 16.8117 64.7272 16.8117 62.5256C16.8117 60.324 18.66 58.5372 20.9374 58.5372H71.4355C73.7128 58.5372 75.5611 60.324 75.5611 62.5256C75.5611 64.7272 73.7161 66.5139 71.4355 66.5139Z" fill="#F4D805"/>
<path d="M71.4355 79.4649H20.9374C18.66 79.4649 16.8117 77.6781 16.8117 75.4765C16.8117 73.275 18.66 71.4882 20.9374 71.4882H71.4355C73.7128 71.4882 75.5611 73.275 75.5611 75.4765C75.5611 77.6781 73.7161 79.4649 71.4355 79.4649Z" fill="#F4D805"/>
</g>
<defs>
<clipPath id="clip0_208_1152">
<rect width="109" height="109" fill="white"/>
</clipPath>
</defs>
</svg>
