<svg width="110" height="110" viewBox="0 0 110 110" fill="none" xmlns="http://www.w3.org/2000/svg">
<g clip-path="url(#clip0_216_2027)">
<path d="M98.5614 0H10.4414C4.68258 0 0 5.87811 0 13.1072V95.8963C0 103.122 4.68258 109.004 10.4414 109.004H98.5614C99.9302 109.004 101.234 108.668 102.432 108.066C102.591 107.998 102.744 107.916 102.889 107.82C106.49 105.753 109 101.186 109 95.8963V13.1072C109 5.87811 104.317 0 98.5614 0ZM11.299 100.98C12.5314 94.2103 17.4042 89.291 23.4016 89.291H34.5188C40.2634 89.291 45.105 94.2602 46.5078 100.98H11.299ZM38.9629 67.4789V68.7123C38.9629 75.6348 34.4762 81.2706 28.9588 81.2706C23.4413 81.2706 18.9547 75.6384 18.9547 68.7123V63.0195L38.9629 67.4789ZM19.3863 54.967C20.437 51.1991 23.2965 48.4864 26.653 48.4864H31.2674C35.5127 48.4864 38.9629 52.821 38.9629 58.1466V59.3301L19.3863 54.967ZM51.4119 94.6131C49.2907 89.1306 45.5395 84.8245 40.962 82.7071C43.6824 79.032 45.3521 74.1127 45.3521 68.7123V58.1502C45.3521 48.4009 39.0338 40.466 31.2674 40.466H26.653C18.8865 40.466 12.5683 48.3973 12.5683 58.1502V68.7123C12.5683 74.0842 14.2181 78.982 16.9158 82.6501C12.3922 84.6035 8.43376 88.9738 6.39205 94.3992V13.1072C6.39205 10.3019 8.20943 8.02047 10.4442 8.02047H51.4176V94.6131H51.4119ZM102.611 93.8253C102.611 100.113 100.921 100.976 97.9112 100.976H57.8011V94.5774V8.02047H98.5614C100.799 8.02047 102.614 10.2983 102.614 13.1072V93.8253H102.611Z" fill="white"/>
<path d="M95.7149 32.0258H65.4073C63.5246 32.0258 61.9998 30.1115 61.9998 27.7482C61.9998 25.3848 63.5246 23.4706 65.4073 23.4706H95.7121C97.5948 23.4706 99.1197 25.3848 99.1197 27.7482C99.1197 30.1115 97.5948 32.0258 95.7149 32.0258Z" fill="#F4D805"/>
<path d="M95.7149 47.5552H65.4073C63.5246 47.5552 61.9998 45.641 61.9998 43.2776C61.9998 40.9142 63.5246 39 65.4073 39H95.7121C97.5948 39 99.1197 40.9142 99.1197 43.2776C99.1197 45.641 97.5948 47.5552 95.7149 47.5552Z" fill="#F4D805"/>
<path d="M95.7149 63.5552H65.4073C63.5246 63.5552 61.9998 61.641 61.9998 59.2776C61.9998 56.9142 63.5246 55 65.4073 55H95.7121C97.5948 55 99.1197 56.9142 99.1197 59.2776C99.1197 61.641 97.5948 63.5552 95.7149 63.5552Z" fill="#F4D805"/>
<path d="M95.7149 79.5552H65.4073C63.5246 79.5552 61.9998 77.641 61.9998 75.2776C61.9998 72.9142 63.5246 71 65.4073 71H95.7121C97.5948 71 99.1197 72.9142 99.1197 75.2776C99.1197 77.641 97.5948 79.5552 95.7149 79.5552Z" fill="#F4D805"/>
</g>
<defs>
<clipPath id="clip0_216_2027">
<rect width="109" height="109" fill="white"/>
</clipPath>
</defs>
</svg>
