<svg width="110" height="110" viewBox="0 0 110 110" fill="none" xmlns="http://www.w3.org/2000/svg">
<path d="M105.62 66.3506H95.6983C96.765 63.7704 97.3328 61.8941 97.459 61.4768C101.323 50.0232 100.437 37.7635 94.8901 26.0175C87.6338 9.63619 68.2536 -0.0745311 50.1474 0.0106258C50.0543 0.00494864 49.9611 0.00494864 49.868 0.0077872C49.853 0.0077872 49.838 0.0077872 49.8229 0.0077872C49.8049 0.0077872 49.7869 0.0077872 49.7688 0.0077872C23.1234 -0.477607 -0.511393 21.7994 0.00841628 47.0427C-0.0546819 70.4807 18.8027 90.5011 43.42 93.8052V105.809C43.42 107.572 44.9343 109 46.7972 109H105.623C107.489 109 109 107.572 109 105.809V69.544C109 67.7813 107.486 66.3506 105.62 66.3506ZM76.21 82.7348C59.4409 82.7348 53.4526 76.717 51.3253 72.7317C61.8837 72.7317 90.999 72.7317 101.095 72.7317C98.9644 76.717 92.9761 82.7348 76.21 82.7348ZM68.479 66.3506V61.4626H82.8113V66.3506H68.479ZM86.1915 55.0815H78.9082C78.8661 53.4494 78.797 51.8427 78.6949 50.2673H92.934C92.6786 53.4267 92.0386 56.5491 91.002 59.5977L90.9569 59.7425C90.9509 59.768 90.4972 61.3321 89.5688 63.6284V58.2749C89.5688 56.5093 88.0574 55.0815 86.1915 55.0815ZM72.1507 55.0815H65.1017C63.2358 55.0815 61.7244 56.5093 61.7244 58.2721V66.3506H53.3023L53.3053 50.2645H71.9133C72.0305 51.9165 72.1086 53.526 72.1507 55.0815ZM53.3083 43.8834L53.3144 8.67959C55.4597 10.1982 57.9926 12.4265 60.4084 15.4893C66.8174 23.6161 69.8942 34.0677 71.2493 43.8863H53.3083V43.8834ZM46.5599 9.13092L46.5508 43.8834H29.1808C29.7637 32.498 33.4655 22.8128 40.208 15.0635C42.4314 12.506 44.6729 10.553 46.5599 9.13092ZM46.5508 50.2645L46.5478 66.362C44.7991 66.484 43.42 67.8579 43.42 69.5412V82.1415C37.038 75.9364 30.0341 65.6978 29.1838 50.2617H46.5508V50.2645ZM88.7184 28.6176C91.0981 33.6561 92.4983 38.7882 92.919 43.8834H78.0729C77.3818 38.5043 76.2911 33.4971 74.7948 28.9157C72.0215 20.5845 68.3227 13.9309 62.707 8.13175C64.8343 8.70514 66.9556 9.41478 69.0559 10.2749C77.8505 13.8713 84.8334 20.3858 88.7184 28.6176ZM26.2573 13.0481C29.8899 10.7943 33.784 9.11389 37.8403 8.00401C36.9809 8.83855 36.1066 9.74405 35.2352 10.7319C29.7126 16.9795 23.1925 27.6923 22.4173 43.8834H6.90415C7.95578 31.3767 15.0198 20.0196 26.2573 13.0481ZM6.89213 50.2645H22.4173C23.2646 67.5315 31.0077 79.11 38.1978 86.2234C21.0472 81.4716 8.30433 67.1568 6.89213 50.2645ZM50.1745 102.619V81.5937C52.3739 83.4728 55.021 85.017 58.0828 86.2035V90.5011C58.2601 94.7334 64.663 94.7306 64.8373 90.5011V88.1139C71.694 89.4792 81.2218 89.4565 88.0274 88.0287V90.5011C88.2047 94.7362 94.6046 94.7334 94.7819 90.5011V86.0304C97.6544 84.8666 100.151 83.3792 102.242 81.5937V102.622H50.1745V102.619Z" fill="white"/>
<path d="M105.598 66.289H89.4443V58.1954C89.4443 56.43 87.9233 55 86.0454 55H64.8206C62.9427 55 61.4217 56.43 61.4217 58.1954V66.289L46.1479 66.3003C44.388 66.4226 43 67.7985 43 69.4843V105.805C43 107.57 44.521 109 46.3989 109H105.601C107.479 109 109 107.57 109 105.805V69.4872C109 67.7218 107.476 66.289 105.598 66.289ZM68.2195 61.3936H82.6435V66.289H68.2195V61.3936ZM101.044 72.6797C98.9031 76.6711 92.8765 82.6979 76 82.6979C59.1235 82.6979 53.0969 76.6711 50.9559 72.6797C61.582 72.6797 90.8837 72.6826 101.044 72.6797ZM102.199 102.612H49.7947V81.5551C52.0082 83.4371 54.6723 84.9836 57.7537 86.1719V90.476C57.9321 94.7147 64.3761 94.7118 64.5515 90.476V88.0851C71.452 89.4525 81.0409 89.4298 87.89 87.9998V90.476C88.0685 94.7175 94.5094 94.7147 94.6878 90.476V85.9985C97.5787 84.8329 100.092 83.3433 102.196 81.5551V102.612H102.199Z" fill="#F4D805"/>
</svg>
