<svg width="110" height="110" viewBox="0 0 110 110" fill="none" xmlns="http://www.w3.org/2000/svg">
<g clip-path="url(#clip0_208_1195)">
<path d="M89.0997 39.2262V3.59271C89.0997 1.6081 87.438 0 85.3906 0H3.70905C1.66166 0 0 1.6081 0 3.59271V105.407C0 107.392 1.66166 109 3.70905 109H85.3906C87.4413 109 89.103 107.392 89.103 105.407V74.7385H81.6783V101.815H74.0624V68.5486H70.5742V63.335H66.6377V101.815H7.4214V7.18222H66.641V54.7106H68.8928V46.4021L74.0624 45.4449V7.18222H81.6783V39.2262H89.0997Z" fill="#DDDDDD"/>
<path d="M82.7664 55.3391C79.8816 53.1631 76.5154 57.0206 79.209 59.4073L83.4126 62.8436C84.5039 63.737 86.1227 63.6732 87.1381 62.6937L94.2892 55.7731C95.364 54.7329 95.364 53.045 94.2892 52.0049C93.2144 50.9647 91.4703 50.9647 90.3955 52.0049L85.0347 57.1929L82.7664 55.3391Z" fill="#F4D805"/>
<path d="M86.6666 78.9247C74.3526 78.9247 64.3332 69.2282 64.3332 57.311C64.3332 45.3938 74.3526 35.6973 86.6666 35.6973C98.9807 35.6973 109 45.3938 109 57.311C109 69.2282 98.9807 78.9247 86.6666 78.9247ZM86.6666 41.616C77.7253 41.616 70.4523 48.6547 70.4523 57.3078C70.4523 65.9609 77.7253 72.9996 86.6666 72.9996C95.6079 72.9996 102.881 65.9609 102.881 57.3078C102.881 48.6547 95.6079 41.616 86.6666 41.616Z" fill="#F4D805"/>
<path d="M61.2307 43.3294V21.1957C61.2307 19.5461 59.8492 18.2092 58.148 18.2092H18.5221C16.8209 18.2092 15.4395 19.5461 15.4395 21.1957V43.3262C15.4395 44.9758 16.8209 46.3127 18.5221 46.3127H58.148C59.8525 46.3159 61.2307 44.979 61.2307 43.3294ZM55.0654 24.1853V29.2745H21.6048V24.1853H55.0654ZM21.6048 40.3398V35.2506H55.0621V40.3398H21.6048Z" fill="#DDDDDD"/>
</g>
<defs>
<clipPath id="clip0_208_1195">
<rect width="109.47" height="109.47" fill="white"/>
</clipPath>
</defs>
</svg>
