<svg width="109" height="109" viewBox="0 0 109 109" fill="none" xmlns="http://www.w3.org/2000/svg">
<g clip-path="url(#clip0_216_2054)">
<path d="M67.3156 32.4161L60.5343 31.3772L57.4284 25.3964C56.2459 23.0802 52.7827 23.0802 51.5972 25.3964L48.4913 31.3772L41.7101 32.4161C40.4927 32.6035 39.4874 33.4409 39.1068 34.5848C38.7262 35.7287 39.0342 36.9834 39.9058 37.8321L44.7695 42.5668L43.6829 49.1891C43.4882 50.3756 43.9937 51.5706 44.9903 52.2774C45.9898 52.9871 47.3088 53.0836 48.4013 52.5357L54.5143 49.4815L60.6244 52.5357C61.7198 53.0836 63.0388 52.9814 64.0354 52.2774C65.0319 51.5706 65.5346 50.3784 65.3428 49.1891L64.2591 42.5668L69.1199 37.8321C69.9915 36.9834 70.3024 35.7287 69.9218 34.5848C69.5383 33.438 68.5301 32.6006 67.3156 32.4161ZM58.457 39.1974C57.7132 39.9212 57.3703 40.9516 57.5359 41.965L57.8672 43.986L56.0019 43.0522C55.0663 42.5838 53.9594 42.5838 53.0238 43.0522L51.1585 43.986L51.4897 41.965C51.6554 40.9516 51.3125 39.9212 50.5687 39.1974L49.0841 37.7526L51.1556 37.4375C52.1929 37.2786 53.0877 36.6427 53.5642 35.7259L54.5143 33.9007L55.4615 35.7259C55.938 36.6399 56.8328 37.2757 57.8701 37.4375L59.9416 37.7526L58.457 39.1974Z" fill="#F4D805"/>
<path d="M105.731 14.5759H98.2034V9.21959C98.2034 7.45685 96.742 6.02623 94.9348 6.02623H84.2196V3.19336C84.2196 1.43063 82.7553 0 80.951 0H28.0722C26.268 0 24.8036 1.43063 24.8036 3.19336V6.02623H14.0623C12.2551 6.02623 10.7937 7.45685 10.7937 9.21959V14.5759H3.26861C1.46434 14.5759 0 16.0065 0 17.7693V27.7297C0 36.5349 4.00949 45.2691 10.7937 51.3861V79.5246C10.7937 80.853 11.6362 82.0452 12.9088 82.5136C13.2865 82.6527 13.6758 82.718 14.0623 82.718C14.9833 82.718 15.884 82.3376 16.5174 81.6336L22.4502 75.0482L28.6882 81.6847C29.6005 82.6555 31.0271 82.9791 32.2822 82.5022C33.5373 82.0254 34.3625 80.8417 34.3625 79.5275V62.0108C37.0907 64.4718 40.2896 66.4446 43.8109 67.7787V77.7306H42.4948C40.6905 77.7306 39.2262 79.1613 39.2262 80.924V89.7803H38.6422C33.6884 89.7803 29.6586 93.7173 29.6586 98.557V105.815C29.6586 107.578 31.1229 109.009 32.9272 109.009H76.099C77.9032 109.009 79.3676 107.578 79.3676 105.815V98.557C79.3676 93.7173 75.3377 89.7803 70.384 89.7803H69.8V80.924C69.8 79.1613 68.3356 77.7306 66.5314 77.7306H65.2152V67.7787C68.725 66.4503 71.9151 64.4888 74.6346 62.0363V79.5303C74.6346 80.8474 75.4627 82.0282 76.7178 82.5051C77.9729 82.9819 79.3995 82.6584 80.3118 81.6876L86.5527 75.0511L92.4856 81.6365C93.1189 82.3404 94.0196 82.7208 94.9406 82.7208C95.3271 82.7208 95.7164 82.6555 96.0941 82.5164C97.3667 82.0481 98.2093 80.8587 98.2093 79.5275V51.389C104.993 45.2719 109.003 36.5377 109.003 27.7326V17.7693C109 16.0065 107.536 14.5759 105.731 14.5759ZM77.6824 6.38672V12.2568H31.3408V6.38672H77.6824ZM6.53721 27.7269V20.9626H10.7937V41.5364C8.06547 37.3921 6.53721 32.5694 6.53721 27.7269ZM24.8036 68.108C24.1761 67.4409 23.2899 67.0691 22.3631 67.0748C21.4362 67.0833 20.5559 67.4778 19.9429 68.1591L17.3309 71.0601V17.7721C17.3309 17.7693 17.3309 17.7664 17.3309 17.7636V12.4129H24.8036V40.6962C24.8036 45.2662 25.8932 49.5893 27.8253 53.4384V71.3241L24.8036 68.108ZM72.8303 98.5485V102.613H36.1958V98.5485C36.1958 97.2314 37.2941 96.1585 38.6422 96.1585C44.5315 96.1585 64.5295 96.1585 70.384 96.1585C71.7321 96.1585 72.8303 97.2314 72.8303 98.5485ZM45.7634 89.7717V84.1088H63.2599V89.7717H45.7634ZM58.678 77.7221H50.3481V69.4336C53.0589 69.8139 55.9672 69.8139 58.678 69.4336V77.7221ZM54.5145 63.3336C41.7394 63.3336 31.3437 53.1801 31.3437 40.6962V18.6435H77.6853V40.6962C77.6853 44.3976 76.7701 47.8947 75.1518 50.9831C75.0501 51.1363 74.9629 51.2981 74.8903 51.4685C70.9593 58.5307 63.3005 63.3336 54.5145 63.3336ZM89.0572 68.1591C88.4441 67.4778 87.5638 67.0861 86.6369 67.0748C85.7101 67.0662 84.821 67.4409 84.1964 68.108L81.1747 71.3212V53.4895C83.1243 49.6262 84.2225 45.2833 84.2225 40.6962V12.4129H91.6691V17.7664C91.6691 17.7693 91.6691 17.7721 91.6691 17.775V71.0629L89.0572 68.1591ZM102.463 27.7269C102.463 32.5694 100.935 37.3921 98.2063 41.5336V20.9626H102.463V27.7269Z" fill="white"/>
</g>
<defs>
<clipPath id="clip0_216_2054">
<rect width="109" height="109" fill="white"/>
</clipPath>
</defs>
</svg>
