<svg width="109" height="109" viewBox="0 0 109 109" fill="none" xmlns="http://www.w3.org/2000/svg">
<g clip-path="url(#clip0_214_1704)">
<path d="M15.1199 15.2293V55.8909C15.1199 57.0791 16.1149 58.0504 17.3538 58.0504H53.0563C54.2854 58.0504 55.2901 57.0885 55.2901 55.8909V15.2293C55.2901 14.0411 54.2951 13.0698 53.0563 13.0698H17.3538C16.1149 13.0698 15.1199 14.0411 15.1199 15.2293ZM50.325 17.8602V45.4332C50.2762 45.254 50.2274 45.0654 50.1689 44.8862C48.7934 43.1983 46.9205 41.9158 44.7647 41.2275C46.2182 39.3226 47.0766 36.9651 47.0766 34.4191V28.1388C47.0766 22.9901 42.7455 18.7938 37.4096 18.7938H32.9224C27.5963 18.7938 23.2554 22.9806 23.2554 28.1388V34.4191C23.2554 36.9651 24.1138 39.3226 25.5673 41.2275C23.4115 41.9158 21.5386 43.2077 20.1631 44.8862C20.1241 44.99 20.0851 45.1031 20.0558 45.2163V17.8696H50.325V17.8602ZM41.6529 34.1456V34.4096C41.292 42.7079 29.0595 42.7079 28.7083 34.4096V31.9296L41.6529 34.1456ZM29.001 26.6394C29.6155 25.1212 31.147 24.0462 32.9322 24.0462H37.4194C39.7508 24.0462 41.6529 25.885 41.6529 28.1388V28.8177L29.001 26.6394ZM29.1571 45.9235H41.1945C44.0331 45.9235 46.4133 47.8378 47.0376 50.4027H23.3139C23.9382 47.8378 26.3184 45.9235 29.1571 45.9235Z" fill="#DDDDDD"/>
<path d="M80.8379 79.7579C83.5424 79.7579 85.7348 77.6386 85.7348 75.0241C85.7348 72.4097 83.5424 70.2903 80.8379 70.2903C78.1334 70.2903 75.941 72.4097 75.941 75.0241C75.941 77.6386 78.1334 79.7579 80.8379 79.7579Z" fill="#DDDDDD"/>
<path d="M64.8206 79.013H14.32C12.0374 79.013 10.1937 77.2307 10.1937 75.0241C10.1937 72.8175 12.0374 71.0353 14.32 71.0353H64.8206C67.1032 71.0353 68.9468 72.8175 68.9468 75.0241C68.9468 77.2307 67.0934 79.013 64.8206 79.013Z" fill="#F4D805"/>
<path d="M80.8379 92.3374C83.5424 92.3374 85.7348 90.218 85.7348 87.6036C85.7348 84.9892 83.5424 82.8698 80.8379 82.8698C78.1334 82.8698 75.941 84.9892 75.941 87.6036C75.941 90.218 78.1334 92.3374 80.8379 92.3374Z" fill="#DDDDDD"/>
<path d="M64.8206 91.5924H14.32C12.0374 91.5924 10.1937 89.8102 10.1937 87.6036C10.1937 85.397 12.0374 83.6147 14.32 83.6147H64.8206C67.1032 83.6147 68.9468 85.397 68.9468 87.6036C68.9468 89.8007 67.0934 91.5924 64.8206 91.5924Z" fill="#F4D805"/>
<path d="M108.054 2.73468H0.955959V106.265H108.054V2.73468Z" stroke="#F4D805" stroke-miterlimit="10"/>
<path d="M105.293 0H3.71657C1.65831 0 0 1.61251 0 3.59278V105.407C0 107.387 1.65831 109 3.71657 109H105.293C107.342 109 109.01 107.387 109.01 105.407V3.59278C109 1.61251 107.342 0 105.293 0ZM101.577 101.814H86.5152H7.43315V7.18557H101.577V101.814Z" fill="#DDDDDD"/>
<path d="M79.2772 33.3912C76.1069 31.0054 72.4 35.2395 75.3655 37.861L79.9893 41.6329C81.1891 42.6136 82.9742 42.5476 84.0863 41.4632L91.9584 33.8627C93.1387 32.7217 93.1387 30.864 91.9584 29.723C90.7781 28.582 88.8564 28.582 87.676 29.723L81.7744 35.4281L79.2772 33.3912Z" fill="#F4D805"/>
<path d="M83.5595 59.314C70.0101 59.314 58.9872 48.6582 58.9872 35.5601C58.9872 22.462 70.0101 11.8062 83.5595 11.8062C97.1089 11.8062 108.132 22.462 108.132 35.5601C108.132 48.6582 97.1089 59.314 83.5595 59.314ZM83.5595 18.3128C73.7267 18.3128 65.718 26.0453 65.718 35.5601C65.718 45.0748 73.7267 52.8073 83.5595 52.8073C93.3924 52.8073 101.401 45.0748 101.401 35.5601C101.401 26.0453 93.4021 18.3128 83.5595 18.3128Z" fill="#F4D805"/>
</g>
<defs>
<clipPath id="clip0_214_1704">
<rect width="109" height="109" fill="white"/>
</clipPath>
</defs>
</svg>
