<svg width="110" height="110" viewBox="0 0 110 110" fill="none" xmlns="http://www.w3.org/2000/svg">
<g clip-path="url(#clip0_216_2058)">
<path d="M15.1199 15.2293V55.8909C15.1199 57.0791 16.1149 58.0504 17.3537 58.0504H53.0562C54.2853 58.0504 55.2901 57.0885 55.2901 55.8909V15.2293C55.2901 14.0411 54.2951 13.0698 53.0562 13.0698H17.3537C16.1149 13.0698 15.1199 14.0411 15.1199 15.2293ZM50.3249 17.8602V45.4332C50.2761 45.254 50.2274 45.0654 50.1688 44.8862C48.7934 43.1983 46.9205 41.9158 44.7647 41.2275C46.2181 39.3226 47.0766 36.9651 47.0766 34.4191V28.1388C47.0766 22.9901 42.7454 18.7938 37.4096 18.7938H32.9224C27.5962 18.7938 23.2554 22.9806 23.2554 28.1388V34.4191C23.2554 36.9651 24.1138 39.3226 25.5673 41.2275C23.4114 41.9158 21.5385 43.2077 20.1631 44.8862C20.1241 44.99 20.0851 45.1031 20.0558 45.2163V17.8696H50.3249V17.8602ZM41.6529 34.1456V34.4096C41.292 42.7079 29.0595 42.7079 28.7083 34.4096V31.9296L41.6529 34.1456ZM29.0009 26.6394C29.6155 25.1212 31.147 24.0462 32.9321 24.0462H37.4193C39.7507 24.0462 41.6529 25.885 41.6529 28.1388V28.8177L29.0009 26.6394ZM29.157 45.9235H41.1944C44.0331 45.9235 46.4132 47.8378 47.0375 50.4027H23.3139C23.9382 47.8378 26.3184 45.9235 29.157 45.9235Z" fill="white"/>
<path d="M80.8381 79.7579C83.5426 79.7579 85.735 77.6386 85.735 75.0241C85.735 72.4097 83.5426 70.2903 80.8381 70.2903C78.1336 70.2903 75.9412 72.4097 75.9412 75.0241C75.9412 77.6386 78.1336 79.7579 80.8381 79.7579Z" fill="white"/>
<path d="M64.8207 79.013H14.3201C12.0375 79.013 10.1938 77.2307 10.1938 75.0241C10.1938 72.8176 12.0375 71.0353 14.3201 71.0353H64.8207C67.1033 71.0353 68.9469 72.8176 68.9469 75.0241C68.9469 77.2307 67.0935 79.013 64.8207 79.013Z" fill="#F4D805"/>
<path d="M80.8381 92.3374C83.5426 92.3374 85.735 90.218 85.735 87.6036C85.735 84.9892 83.5426 82.8698 80.8381 82.8698C78.1336 82.8698 75.9412 84.9892 75.9412 87.6036C75.9412 90.218 78.1336 92.3374 80.8381 92.3374Z" fill="white"/>
<path d="M64.8207 91.5925H14.3201C12.0375 91.5925 10.1938 89.8102 10.1938 87.6036C10.1938 85.397 12.0375 83.6148 14.3201 83.6148H64.8207C67.1033 83.6148 68.9469 85.397 68.9469 87.6036C68.9469 89.8008 67.0935 91.5925 64.8207 91.5925Z" fill="#F4D805"/>
<path d="M108.054 2.73468H0.956055V106.265H108.054V2.73468Z" stroke="#F4D805" stroke-miterlimit="10"/>
<path d="M105.293 0H3.71657C1.65831 0 0 1.61251 0 3.59278V105.407C0 107.387 1.65831 109 3.71657 109H105.293C107.342 109 109.01 107.387 109.01 105.407V3.59278C109 1.61251 107.342 0 105.293 0ZM101.577 101.814H86.5152H7.43315V7.18557H101.577V101.814Z" fill="white"/>
<path d="M79.2774 33.3912C76.1071 31.0054 72.4003 35.2395 75.3657 37.861L79.9895 41.6329C81.1893 42.6136 82.9744 42.5476 84.0865 41.4632L91.9586 33.8627C93.1389 32.7217 93.1389 30.864 91.9586 29.723C90.7783 28.582 88.8566 28.582 87.6763 29.723L81.7746 35.4281L79.2774 33.3912Z" fill="#F4D805"/>
<path d="M83.5596 59.314C70.0102 59.314 58.9873 48.6582 58.9873 35.5601C58.9873 22.462 70.0102 11.8062 83.5596 11.8062C97.109 11.8062 108.132 22.462 108.132 35.5601C108.132 48.6582 97.109 59.314 83.5596 59.314ZM83.5596 18.3128C73.7268 18.3128 65.7181 26.0453 65.7181 35.5601C65.7181 45.0748 73.7268 52.8073 83.5596 52.8073C93.3924 52.8073 101.401 45.0748 101.401 35.5601C101.401 26.0453 93.4022 18.3128 83.5596 18.3128Z" fill="#F4D805"/>
</g>
<defs>
<clipPath id="clip0_216_2058">
<rect width="109" height="109" fill="white"/>
</clipPath>
</defs>
</svg>
