<svg width="50" height="50" viewBox="0 0 50 50" fill="none" xmlns="http://www.w3.org/2000/svg">
<path d="M22.191 6.77319C22.0508 6.64507 21.9076 6.51685 21.7595 6.38862C18.8759 3.89194 13.8612 0.915771 6.34766 0.915771C5.53867 0.915771 4.88281 1.57163 4.88281 2.38062V3.42808C12.2163 3.82915 18.2842 5.43989 22.191 6.77319Z" fill="white"/>
<path d="M32.1596 5.34175C36.2795 4.27749 40.6247 3.63374 45.1161 3.41724V2.38062C45.1161 1.57163 44.4603 0.915771 43.6513 0.915771C36.1377 0.915771 31.1231 3.89194 28.2396 6.38862C28.1625 6.45532 28.0871 6.52202 28.0122 6.58872C29.203 6.17661 30.5881 5.74771 32.1596 5.34175Z" fill="white"/>
<path d="M48.5352 6.26379C35.7863 6.26379 27.4148 9.8012 25 10.9683V10.9967C22.5467 9.90159 13.4908 6.26379 1.46484 6.26379C0.655859 6.26379 0 6.91965 0 7.72864V42.7366C0 43.5456 0.655859 44.2015 1.46484 44.2015C14.5701 44.2015 24.2104 48.8638 24.3504 48.9323C24.5557 49.0339 24.778 49.0843 24.9999 49.0843H25C25.0321 49.0843 25.0643 49.0831 25.0964 49.081C25.1067 49.0803 25.1171 49.0789 25.1274 49.078C25.1492 49.0762 25.171 49.0741 25.1927 49.0713C25.2049 49.0696 25.2171 49.0675 25.2293 49.0655C25.2489 49.0624 25.2686 49.0592 25.2881 49.0553C25.3012 49.0527 25.3142 49.0495 25.3271 49.0466C25.3457 49.0424 25.3642 49.038 25.3825 49.033C25.3959 49.0294 25.4092 49.0254 25.4225 49.0214C25.4403 49.016 25.458 49.0104 25.4757 49.0043C25.4891 48.9997 25.5024 48.9948 25.5157 48.9899C25.533 48.9834 25.5501 48.9765 25.5672 48.9694C25.5806 48.9638 25.5938 48.958 25.6071 48.952C25.6239 48.9444 25.6404 48.9363 25.657 48.9279C25.67 48.9213 25.683 48.9149 25.6959 48.9079C25.7008 48.9053 25.7058 48.903 25.7106 48.9003C25.7953 48.8533 34.3438 44.2015 48.5352 44.2015C49.3441 44.2015 50 43.5456 50 42.7366V7.72864C50 6.91956 49.3441 6.26379 48.5352 6.26379ZM5.81084 13.8508C5.81084 13.4393 5.98389 13.0467 6.28779 12.7692C6.5916 12.4916 6.99766 12.3548 7.40811 12.3919C11.6618 12.7781 15.7389 13.5705 19.5258 14.7475C20.1384 14.9379 20.5559 15.5048 20.5559 16.1463V22.0057C20.5559 22.4713 20.3345 22.9091 19.9597 23.1853C19.705 23.3729 19.3998 23.4705 19.091 23.4705C18.9453 23.4705 18.7988 23.4489 18.6563 23.4045C15.0657 22.2886 11.1922 21.5364 7.14326 21.1689C6.38867 21.1004 5.81084 20.4677 5.81084 19.7101V13.8508ZM20.4899 40.0186C20.2948 40.6464 19.7161 41.049 19.0915 41.049C18.9475 41.049 18.8011 41.0277 18.6563 40.9826C15.0657 39.8667 11.1922 39.1146 7.14326 38.747C6.3376 38.6739 5.74365 37.9614 5.8168 37.1558C5.88994 36.35 6.60293 35.7559 7.40801 35.8293C11.6617 36.2155 15.7388 37.0079 19.5257 38.1849C20.2984 38.4251 20.7301 39.246 20.4899 40.0186ZM20.4899 34.1592C20.2948 34.787 19.7161 35.1897 19.0915 35.1897C18.9475 35.1897 18.8011 35.1683 18.6563 35.1233C15.0657 34.0073 11.1922 33.2552 7.14326 32.8876C6.3376 32.8145 5.74365 32.1021 5.8168 31.2964C5.88994 30.4906 6.60293 29.8967 7.40801 29.9699C11.6617 30.3561 15.7388 31.1486 19.5257 32.3255C20.2984 32.5657 20.7301 33.3866 20.4899 34.1592ZM20.4899 28.2998C20.2948 28.9277 19.7161 29.3303 19.0915 29.3303C18.9475 29.3303 18.8011 29.3089 18.6563 29.2639C15.0657 28.148 11.1922 27.3958 7.14326 27.0282C6.3376 26.9551 5.74365 26.2427 5.8168 25.437C5.88994 24.6313 6.60293 24.0367 7.40801 24.1106C11.6617 24.4967 15.7388 25.2892 19.5257 26.4661C20.2984 26.7064 20.7301 27.5273 20.4899 28.2998ZM42.8079 38.7472C38.7591 39.1148 34.8855 39.8669 31.2948 40.9828C31.1501 41.0278 31.0036 41.0492 30.8596 41.0492C30.235 41.0492 29.6563 40.6466 29.4612 40.0188C29.2212 39.2462 29.6527 38.4253 30.4254 38.1852C34.2125 37.0082 38.2895 36.2157 42.5431 35.8296C43.3481 35.7565 44.0612 36.3503 44.1343 37.1561C44.2075 37.9615 43.6137 38.674 42.8079 38.7472ZM42.8079 32.8878C38.7591 33.2554 34.8855 34.0075 31.2948 35.1235C31.1501 35.1684 31.0036 35.1899 30.8596 35.1899C30.235 35.1899 29.6563 34.7872 29.4612 34.1594C29.2212 33.3868 29.6527 32.5659 30.4254 32.3258C34.2125 31.1489 38.2895 30.3564 42.5431 29.9702C43.3481 29.8967 44.0612 30.4909 44.1343 31.2967C44.2075 32.1022 43.6137 32.8147 42.8079 32.8878ZM42.8079 27.0284C38.7591 27.396 34.8855 28.1482 31.2948 29.2641C31.1501 29.309 31.0036 29.3305 30.8596 29.3305C30.235 29.3305 29.6563 28.9279 29.4612 28.3C29.2212 27.5275 29.6527 26.7066 30.4254 26.4664C34.2125 25.2895 38.2895 24.497 42.5431 24.1109C43.3481 24.0377 44.0612 24.6316 44.1343 25.4373C44.2075 26.2428 43.6137 26.9553 42.8079 27.0284ZM42.8079 21.169C38.7591 21.5365 34.8855 22.2887 31.2948 23.4046C31.1501 23.4495 31.0036 23.471 30.8596 23.471C30.235 23.471 29.6563 23.0684 29.4612 22.4405C29.2212 21.668 29.6527 20.8471 30.4254 20.607C34.2125 19.43 38.2895 18.6375 42.5431 18.2514C43.3481 18.1778 44.0612 18.772 44.1343 19.5779C44.2075 20.3834 43.6137 21.0958 42.8079 21.169ZM42.8079 15.3096C38.7591 15.6772 34.8855 16.4293 31.2948 17.5452C31.1501 17.5902 31.0036 17.6116 30.8596 17.6116C30.235 17.6116 29.6563 17.209 29.4612 16.5812C29.2212 15.8086 29.6527 14.9877 30.4254 14.7476C34.2125 13.5706 38.2895 12.7781 42.5431 12.392C43.3481 12.3188 44.0612 12.9127 44.1343 13.7185C44.2075 14.524 43.6137 15.2365 42.8079 15.3096Z" fill="white"/>
</svg>
