<svg width="48" height="50" viewBox="0 0 48 50" fill="none" xmlns="http://www.w3.org/2000/svg">
<path d="M7.1291 43.9962H3.67832C2.66728 43.9962 1.70107 43.735 0.854004 43.2471V43.6522C0.854004 47.1579 3.696 49.9999 7.20166 49.9999H7.88711C7.40576 49.1566 7.1291 48.1822 7.1291 47.144V43.9962Z" fill="white"/>
<path d="M23.9478 39.8173C23.9478 38.1133 24.2728 36.4604 24.8918 34.9283H19.7345V31.9986H26.5507C26.9169 31.5128 27.3188 31.0488 27.7564 30.6112C28.3326 30.0349 28.9543 29.5201 29.6124 29.0686H23.157V26.1389H29.6954V29.0115C31.8241 27.575 34.3328 26.8026 36.9624 26.8026C37.4556 26.8026 37.9443 26.8308 38.4273 26.8844V0H0.918482L0.918287 38.1633C0.906959 38.969 1.19856 39.715 1.73967 40.2639C2.25012 40.7815 2.9386 41.0667 3.67854 41.0667H10.059V47.1441C10.059 48.7165 11.3393 49.9961 12.9144 50H28.8487C28.4695 49.6969 28.1043 49.3717 27.7561 49.0234C25.3003 46.5676 23.9478 43.298 23.9478 39.8173ZM29.6954 23.2088H15.2871V20.2791H29.6954V23.2088ZM29.6954 17.3808H19.7344V14.4511H29.6954V17.3808ZM9.0885 8.59141H29.6955V11.5211H9.0885V8.59141ZM9.0885 14.4511H16.3193V17.3808H9.0885V14.4511ZM12.0829 20.2791V23.2088H9.15315V20.2791H12.0829ZM16.3193 34.9283H9.0885V31.9986H16.3193V34.9283ZM19.6802 29.0686H9.15315V26.1389H19.6802V29.0686Z" fill="white"/>
<path d="M44.1658 32.6138C40.1937 28.6417 33.7307 28.6417 29.7586 32.6138C25.7865 36.5859 25.7865 43.049 29.7586 47.021C33.7307 50.9931 40.1937 50.9931 44.1658 47.021C48.1379 43.049 48.1379 36.5859 44.1658 32.6138ZM35.3319 44.8402L31.311 40.8192L33.3826 38.7476L35.3319 40.6969L40.7732 35.2557L42.8448 37.3273L35.3319 44.8402Z" fill="white"/>
</svg>
