<svg width="25" height="19" viewBox="0 0 25 19" fill="none" xmlns="http://www.w3.org/2000/svg">
<path d="M25 3.2261V2.83161C25 1.3463 23.7916 0.137939 22.3063 0.137939L2.69367 0.137939C1.20836 0.137939 0 1.3463 0 2.83161L0 3.2261L0 3.22898L0 16.1683C0 17.6535 1.20836 18.8618 2.69367 18.8618L22.3065 18.8618C23.7917 18.8618 25 17.6535 25 16.1683L25 3.22898C25 3.22805 25 3.22707 25 3.2261ZM2.69367 1.60279L22.3063 1.60279C22.9839 1.60279 23.5351 2.15402 23.5351 2.83161V2.83195L13.7257 9.37156C13.0728 9.80686 11.9273 9.80681 11.2745 9.3716L1.46486 2.83191V2.83156C1.46486 2.15402 2.01608 1.60279 2.69367 1.60279ZM22.3065 17.397L2.69367 17.397C2.01608 17.397 1.46486 16.8458 1.46486 16.1683L1.46486 4.59242L10.4619 10.5904C11.0334 10.9714 11.7666 11.1619 12.5 11.1619C13.2333 11.1619 13.9668 10.9714 14.5382 10.5904L23.5352 4.59242L23.5352 16.1683C23.5351 16.8458 22.984 17.397 22.3065 17.397Z" fill="#04183A"/>
</svg>
