<svg width="71" height="63" viewBox="0 0 71 63" fill="none" xmlns="http://www.w3.org/2000/svg">
<path d="M34.6469 58.467C35.6379 59.0579 36.9118 58.7242 37.4961 57.7289L39.1916 54.8361C43.0282 53.619 46.2417 51.0524 48.3051 47.5352L70.7108 9.31955C71.2951 8.32236 70.9678 7.03626 69.9786 6.44727C65.0419 3.50603 58.6519 5.16117 55.7324 10.1378C53.5026 13.942 40.534 36.0591 37.559 41.1346C35.4974 44.6517 34.817 48.7281 35.6102 52.702L33.9147 55.5947C33.3304 56.5938 33.6577 57.878 34.6469 58.467ZM56.141 17.6866L59.7224 19.8208L49.139 37.8727L45.5576 35.7385L56.141 17.6866ZM65.8906 9.29905L61.8377 16.2104L58.2562 14.0762L59.3138 12.2701C60.6839 9.9365 63.3483 8.79952 65.8906 9.29905ZM41.1404 43.2687L43.4387 39.3489L47.0201 41.4831L44.7218 45.4029C43.4701 47.5371 41.6507 49.2015 39.4727 50.2341C39.321 47.8129 39.8905 45.4029 41.1404 43.2687Z" fill="#F1C40F"/>
<path d="M2.08008 29.4051H27.1797C28.3279 29.4051 29.2598 28.4657 29.2598 27.3082V2.14548C29.2598 0.987992 28.3279 0.048584 27.1797 0.048584H2.08008C0.930026 0.048584 0 0.987992 0 2.14548V27.3082C0 28.4657 0.930026 29.4051 2.08008 29.4051ZM4.16016 4.24237H25.0996V25.2113H4.16016V4.24237Z" fill="#F1C40F"/>
<path d="M18.638 10.0968L13.8677 14.9038L12.2184 13.2412C11.4067 12.4229 10.0884 12.4229 9.27674 13.2412C8.46505 14.0594 8.46505 15.3865 9.27674 16.2067L12.3978 19.3529C13.2113 20.1712 14.5278 20.1712 15.3395 19.3529L21.5797 13.0623C22.3914 12.244 22.3914 10.915 21.5797 10.0968C20.7662 9.27853 19.4497 9.27853 18.638 10.0968Z" fill="#F1C40F"/>
<path d="M2.08008 62.9534H27.1797C28.3279 62.9534 29.2598 62.014 29.2598 60.8565V35.6938C29.2598 34.5363 28.3279 33.5969 27.1797 33.5969H2.08008C0.930026 33.5969 0 34.5363 0 35.6938V60.8565C0 62.014 0.930026 62.9534 2.08008 62.9534ZM4.16016 37.7907H25.0996V58.7596H4.16016V37.7907Z" fill="#F1C40F"/>
<path d="M18.638 43.6471L13.8677 48.4541L12.2184 46.7915C11.4067 45.9732 10.0884 45.9732 9.27674 46.7915C8.46505 47.6097 8.46505 48.9387 9.27674 49.757L12.3978 52.9032C13.2113 53.7215 14.5278 53.7215 15.3395 52.9032L21.5797 46.6125C22.3914 45.7943 22.3914 44.4653 21.5797 43.6471C20.7662 42.8288 19.4497 42.8288 18.638 43.6471Z" fill="#F1C40F"/>
</svg>
