<svg width="73" height="73" viewBox="0 0 73 73" fill="none" xmlns="http://www.w3.org/2000/svg">
<path d="M70.8613 0H2.13867C0.956224 0 0 0.958125 0 2.13867V53.6094C0 54.7899 0.956224 55.748 2.13867 55.748H25.8066V62.3066C25.8066 65.8445 22.9285 68.7227 19.3906 68.7227C18.2101 68.7227 17.252 69.6808 17.252 70.8613C17.252 72.0419 18.2101 73 19.3906 73H53.6094C54.7899 73 55.748 72.0419 55.748 70.8613C55.748 69.6789 54.7899 68.7227 53.6094 68.7227C50.0715 68.7227 47.1934 65.8445 47.1934 62.3066V55.748H70.8613C72.0419 55.748 73 54.7899 73 53.6094V2.13867C73 0.958125 72.0419 0 70.8613 0ZM45.0604 68.7227H27.9415C29.2874 66.9338 30.0859 64.7115 30.0859 62.3066V55.748H42.9179V62.3066C42.916 64.7115 43.7145 66.9338 45.0604 68.7227ZM68.7227 51.4707H4.27734V4.27734H68.7227V51.4707Z" fill="#F1C40F"/>
<path d="M12.747 24.1109C13.1652 24.5291 13.7108 24.7383 14.2583 24.7383C14.8058 24.7383 15.3533 24.5291 15.7696 24.1109L22.1857 17.6949C23.0202 16.8604 23.0202 15.5049 22.1857 14.6704C21.3511 13.8358 19.9976 13.8358 19.1611 14.6704L14.2583 19.5731L12.5626 17.8774C11.728 17.0429 10.3726 17.0429 9.53803 17.8774C8.70347 18.712 8.70347 20.0655 9.53803 20.902L12.747 24.1109Z" fill="#F1C40F"/>
<path d="M27.9453 25.8066H62.3066C63.4872 25.8066 64.4453 24.8485 64.4453 23.668C64.4453 22.4874 63.4872 21.5293 62.3066 21.5293H27.9453C26.7648 21.5293 25.8066 22.4874 25.8066 23.668C25.8066 24.8485 26.7648 25.8066 27.9453 25.8066Z" fill="#F1C40F"/>
<path d="M27.9453 42.916H62.3066C63.4872 42.916 64.4453 41.9598 64.4453 40.7773C64.4453 39.5968 63.4872 38.6387 62.3066 38.6387H27.9453C26.7648 38.6387 25.8066 39.5968 25.8066 40.7773C25.8066 41.9598 26.7648 42.916 27.9453 42.916Z" fill="#F1C40F"/>
<path d="M27.9453 34.3613H49.332C50.5126 34.3613 51.4707 33.4032 51.4707 32.2227C51.4707 31.0421 50.5126 30.084 49.332 30.084H27.9453C26.7648 30.084 25.8066 31.0421 25.8066 32.2227C25.8066 33.4032 26.7648 34.3613 27.9453 34.3613Z" fill="#F1C40F"/>
<path d="M27.9453 17.252H49.332C50.5126 17.252 51.4707 16.2938 51.4707 15.1133C51.4707 13.9327 50.5126 12.9746 49.332 12.9746H27.9453C26.7648 12.9746 25.8066 13.9327 25.8066 15.1133C25.8066 16.2938 26.7648 17.252 27.9453 17.252Z" fill="#F1C40F"/>
<path d="M10.8359 42.916H19.3906C20.5712 42.916 21.5293 41.9598 21.5293 40.7773V32.2227C21.5293 31.0421 20.5712 30.084 19.3906 30.084H10.8359C9.65349 30.084 8.69727 31.0421 8.69727 32.2227V40.7773C8.69727 41.9598 9.65349 42.916 10.8359 42.916ZM12.9746 34.3613H17.252V38.6387H12.9746V34.3613Z" fill="#F1C40F"/>
</svg>
