<svg width="70" height="75" viewBox="0 0 70 75" fill="none" xmlns="http://www.w3.org/2000/svg">
<path d="M43.75 48.4863C43.75 43.6406 39.8242 39.6973 35 39.6973C30.1758 39.6973 26.25 43.6406 26.25 48.4863C26.25 53.332 30.1758 57.2754 35 57.2754C39.8242 57.2754 43.75 53.332 43.75 48.4863ZM35 52.8809C32.5869 52.8809 30.625 50.9102 30.625 48.4863C30.625 46.0625 32.5869 44.0918 35 44.0918C37.4131 44.0918 39.375 46.0625 39.375 48.4863C39.375 50.9102 37.4131 52.8809 35 52.8809Z" fill="#F1C40F"/>
<path d="M21.875 52.8809C21.875 48.0352 17.9492 44.0918 13.125 44.0918C8.30083 44.0918 4.375 48.0352 4.375 52.8809C4.375 57.7266 8.30083 61.6699 13.125 61.6699C17.9492 61.6699 21.875 57.7266 21.875 52.8809ZM13.125 57.2754C10.7119 57.2754 8.75 55.3047 8.75 52.8809C8.75 50.457 10.7119 48.4863 13.125 48.4863C15.5381 48.4863 17.5 50.457 17.5 52.8809C17.5 55.3047 15.5381 57.2754 13.125 57.2754Z" fill="#F1C40F"/>
<path d="M65.625 52.8809C65.625 48.0352 61.6992 44.0918 56.875 44.0918C52.0508 44.0918 48.125 48.0352 48.125 52.8809C48.125 57.7266 52.0508 61.6699 56.875 61.6699C61.6992 61.6699 65.625 57.7266 65.625 52.8809ZM56.875 57.2754C54.4619 57.2754 52.5 55.3047 52.5 52.8809C52.5 50.457 54.4619 48.4863 56.875 48.4863C59.2881 48.4863 61.25 50.457 61.25 52.8809C61.25 55.3047 59.2881 57.2754 56.875 57.2754Z" fill="#F1C40F"/>
<path d="M67.8125 0H2.1875C0.978056 0 0 0.984375 0 2.19727V28.5645C0 29.7773 0.978056 30.7617 2.1875 30.7617H10.01L13.7394 34.6328C14.1517 35.0605 14.7194 35.3027 15.3125 35.3027C15.9056 35.3027 16.4714 35.0605 16.8856 34.6328L20.615 30.7617H29.6975L33.4269 34.6328C33.8392 35.0605 34.4069 35.3027 35 35.3027C35.5931 35.3027 36.1589 35.0605 36.5731 34.6328L40.3025 30.7617H49.385L53.1144 34.6328C53.5267 35.0605 54.0944 35.3027 54.6875 35.3027C55.2806 35.3027 55.8464 35.0605 56.2606 34.6328L59.99 30.7617H67.8125C69.02 30.7617 70 29.7773 70 28.5645V2.19727C70 0.984375 69.02 0 67.8125 0ZM65.625 26.3672H59.0625C58.4694 26.3672 57.9017 26.6094 57.4894 27.0371L54.6875 29.9473L51.8856 27.0371C51.4733 26.6094 50.9056 26.3672 50.3125 26.3672H39.375C38.7819 26.3672 38.2161 26.6094 37.8019 27.0371L35 29.9453L32.1981 27.0352C31.7858 26.6074 31.2181 26.3652 30.625 26.3652H19.6875C19.0944 26.3652 18.5286 26.6074 18.1144 27.0352L15.3125 29.9453L12.5106 27.0352C12.0983 26.6074 11.5306 26.3652 10.9375 26.3652H4.375V4.39453H65.625V26.3672Z" fill="#F1C40F"/>
<path d="M2.1875 75H67.8125C69.02 75 70 74.0156 70 72.8027C70 66.6641 64.1122 61.6699 56.875 61.6699C52.9822 61.6699 49.4822 63.1152 47.0769 65.4043C45.0897 60.6895 40.4658 57.2754 35 57.2754C29.5594 57.2754 24.9161 60.6758 22.9231 65.4043C20.5178 63.1152 17.0158 61.6699 13.125 61.6699C5.88778 61.6699 0 66.6641 0 72.8027C0 74.0156 0.978056 75 2.1875 75ZM56.875 66.0645C60.6239 66.0645 63.9139 67.9941 65.1272 70.6055H48.6228C49.8361 67.9941 53.1261 66.0645 56.875 66.0645ZM35 61.6699C39.8242 61.6699 43.75 65.6777 43.75 70.6055H26.25C26.25 65.6777 30.1758 61.6699 35 61.6699ZM13.125 66.0645C16.8739 66.0645 20.1639 67.9941 21.3772 70.6055H4.87278C6.08611 67.9941 9.37611 66.0645 13.125 66.0645Z" fill="#F1C40F"/>
<path d="M10.9375 21.9727H59.0625C60.27 21.9727 61.25 20.9883 61.25 19.7754C61.25 18.5625 60.27 17.5781 59.0625 17.5781H10.9375C9.72806 17.5781 8.75 18.5625 8.75 19.7754C8.75 20.9883 9.72806 21.9727 10.9375 21.9727Z" fill="#F1C40F"/>
<path d="M10.9375 13.1836H19.6875C20.895 13.1836 21.875 12.1992 21.875 10.9863C21.875 9.77344 20.895 8.78906 19.6875 8.78906H10.9375C9.72806 8.78906 8.75 9.77344 8.75 10.9863C8.75 12.1992 9.72806 13.1836 10.9375 13.1836Z" fill="#F1C40F"/>
<path d="M28.4375 13.1836H59.0625C60.27 13.1836 61.25 12.1992 61.25 10.9863C61.25 9.77344 60.27 8.78906 59.0625 8.78906H28.4375C27.23 8.78906 26.25 9.77344 26.25 10.9863C26.25 12.1992 27.23 13.1836 28.4375 13.1836Z" fill="#F1C40F"/>
</svg>
