<svg width="70" height="70" viewBox="0 0 70 70" fill="none" xmlns="http://www.w3.org/2000/svg">
<path d="M67.9492 4.10156H57.2068C56.3591 1.71536 54.0805 0 51.4062 0C48.732 0 46.4534 1.71536 45.6057 4.10156H24.3943C23.5466 1.71536 21.268 0 18.5938 0C15.9195 0 13.6409 1.71536 12.7932 4.10156H2.05078C0.916927 4.10156 0 5.02031 0 6.15234V67.9492C0 69.0813 0.916927 70 2.05078 70H67.9492C69.0813 70 70 69.0813 70 67.9492V6.15234C70 5.02031 69.0813 4.10156 67.9492 4.10156ZM51.4062 4.10156C52.5365 4.10156 53.457 5.02214 53.457 6.15234V8.20312H49.3555V6.15234C49.3555 5.02214 50.276 4.10156 51.4062 4.10156ZM18.5938 4.10156C19.724 4.10156 20.6445 5.02214 20.6445 6.15234V8.20312H16.543V6.15234C16.543 5.02214 17.4635 4.10156 18.5938 4.10156ZM12.4414 8.20312V10.2539C12.4414 11.3859 13.3602 12.3047 14.4922 12.3047H22.6953C23.8273 12.3047 24.7461 11.3859 24.7461 10.2539V8.20312H45.2539V10.2539C45.2539 11.3859 46.1708 12.3047 47.3047 12.3047H55.5078C56.6398 12.3047 57.5586 11.3859 57.5586 10.2539V8.20312H65.8984V16.4062H4.10156V8.20312H12.4414ZM4.10156 65.8984V20.5078H65.8984V65.8984H4.10156Z" fill="#F1C40F"/>
<path d="M18.3745 30.4737L13.6714 35.175L12.0454 33.549C11.2451 32.7487 9.94538 32.7487 9.14512 33.549C8.34486 34.3511 8.34486 35.649 9.14512 36.4493L12.2222 39.5263C12.6232 39.9274 13.1482 40.1279 13.6732 40.1279C14.1982 40.1279 14.7232 39.9274 15.1225 39.5263L21.2748 33.374C22.0751 32.5737 22.0751 31.274 21.2748 30.4737C20.4727 29.6735 19.1748 29.6735 18.3745 30.4737Z" fill="#F1C40F"/>
<path d="M26.7969 41.1523H51.4062C52.5383 41.1523 53.457 40.2354 53.457 39.1016C53.457 37.9695 52.5383 37.0508 51.4062 37.0508H26.7969C25.6648 37.0508 24.7461 37.9695 24.7461 39.1016C24.7461 40.2354 25.6648 41.1523 26.7969 41.1523Z" fill="#F1C40F"/>
<path d="M51.4062 53.457H26.7969C25.6648 53.457 24.7461 54.3758 24.7461 55.5078C24.7461 56.6398 25.6648 57.5586 26.7969 57.5586H51.4062C52.5383 57.5586 53.457 56.6398 53.457 55.5078C53.457 54.3758 52.5383 53.457 51.4062 53.457Z" fill="#F1C40F"/>
<path d="M59.7461 45.2539H26.7969C25.6648 45.2539 24.7461 46.1727 24.7461 47.3047C24.7461 48.4367 25.6648 49.3555 26.7969 49.3555H59.7461C60.8781 49.3555 61.7969 48.4367 61.7969 47.3047C61.7969 46.1727 60.8781 45.2539 59.7461 45.2539Z" fill="#F1C40F"/>
<path d="M59.7461 28.8477H26.7969C25.6648 28.8477 24.7461 29.7664 24.7461 30.8984C24.7461 32.0305 25.6648 32.9492 26.7969 32.9492H59.7461C60.8781 32.9492 61.7969 32.0305 61.7969 30.8984C61.7969 29.7664 60.8781 28.8477 59.7461 28.8477Z" fill="#F1C40F"/>
<path d="M18.5938 45.2539H10.3906C9.25677 45.2539 8.33984 46.1727 8.33984 47.3047V55.5078C8.33984 56.6398 9.25677 57.5586 10.3906 57.5586H18.5938C19.7258 57.5586 20.6445 56.6398 20.6445 55.5078V47.3047C20.6445 46.1727 19.7258 45.2539 18.5938 45.2539ZM16.543 53.457H12.4414V49.3555H16.543V53.457Z" fill="#F1C40F"/>
</svg>
