<svg width="24" height="24" viewBox="0 0 24 24" fill="none" xmlns="http://www.w3.org/2000/svg">
<path d="M19.7578 14.4866C19.246 13.9537 18.6286 13.6688 17.9743 13.6688C17.3253 13.6688 16.7027 13.9484 16.1698 14.4813L14.5024 16.1434C14.3653 16.0695 14.2281 16.0009 14.0962 15.9323C13.9062 15.8374 13.7268 15.7477 13.5738 15.6527C12.012 14.6607 10.5926 13.368 9.2313 11.6954C8.57175 10.8617 8.12853 10.1599 7.80667 9.44762C8.23934 9.05189 8.64034 8.64033 9.0308 8.24459C9.17854 8.09685 9.32628 7.94384 9.47402 7.7961C10.5821 6.68805 10.5821 5.25286 9.47402 4.14482L8.03356 2.70435C7.86999 2.54078 7.70114 2.37194 7.54285 2.20309C7.22626 1.87596 6.89385 1.53826 6.55088 1.22168C6.03907 0.715142 5.427 0.446045 4.78328 0.446045C4.13956 0.446045 3.51694 0.715142 2.9893 1.22168C2.98402 1.22696 2.98402 1.22696 2.97874 1.23223L1.18476 3.04204C0.50938 3.71743 0.124201 4.54055 0.0397781 5.49558C-0.086856 7.03629 0.366916 8.47148 0.71516 9.41068C1.56994 11.7165 2.84683 13.8534 4.75162 16.1434C7.06269 18.903 9.84337 21.0821 13.0198 22.6176C14.2334 23.1927 15.8532 23.8734 17.663 23.9894C17.7738 23.9947 17.8899 24 17.9954 24C19.2143 24 20.2379 23.562 21.0399 22.6914C21.0452 22.6809 21.0558 22.6756 21.061 22.6651C21.3354 22.3326 21.652 22.0319 21.9844 21.71C22.2113 21.4937 22.4435 21.2668 22.6703 21.0294C23.1927 20.4859 23.4671 19.8527 23.4671 19.2037C23.4671 18.5494 23.1874 17.9216 22.6545 17.3939L19.7578 14.4866ZM21.6467 20.0427C21.6414 20.0427 21.6414 20.0479 21.6467 20.0427C21.4409 20.2643 21.2299 20.4648 21.003 20.6864C20.66 21.0135 20.3118 21.3565 19.9846 21.7417C19.4517 22.3115 18.8238 22.5806 18.0007 22.5806C17.9216 22.5806 17.8371 22.5806 17.758 22.5754C16.1909 22.4751 14.7346 21.863 13.6424 21.3407C10.6559 19.8949 8.03356 17.8424 5.85439 15.2411C4.05513 13.0725 2.85211 11.0675 2.05537 8.9147C1.56466 7.60087 1.38527 6.57725 1.46441 5.61166C1.51718 4.99432 1.75462 4.48251 2.19256 4.04456L3.99182 2.2453C4.25036 2.00259 4.52474 1.87068 4.79383 1.87068C5.12625 1.87068 5.39535 2.07118 5.56419 2.24003C5.56947 2.2453 5.57474 2.25058 5.58002 2.25586C5.90188 2.55661 6.20791 2.86792 6.52978 3.20034C6.69335 3.36918 6.86219 3.53803 7.03104 3.71215L8.4715 5.15261C9.0308 5.71191 9.0308 6.229 8.4715 6.7883C8.31848 6.94132 8.17074 7.09434 8.01773 7.24207C7.57451 7.69585 7.15239 8.11796 6.69335 8.52952C6.68279 8.54007 6.67224 8.54535 6.66696 8.5559C6.21319 9.00968 6.29761 9.4529 6.39259 9.75365C6.39787 9.76948 6.40314 9.78531 6.40842 9.80114C6.78304 10.7087 7.31069 11.5635 8.1127 12.5818L8.11798 12.5871C9.57427 14.3811 11.1097 15.7793 12.8034 16.8504C13.0198 16.9876 13.2414 17.0984 13.4524 17.204C13.6424 17.2989 13.8218 17.3886 13.9748 17.4836C13.9959 17.4942 14.017 17.51 14.0381 17.5205C14.2175 17.6102 14.3864 17.6525 14.5605 17.6525C14.9984 17.6525 15.2728 17.3781 15.3625 17.2884L17.167 15.4838C17.3464 15.3044 17.6314 15.0881 17.9638 15.0881C18.2909 15.0881 18.56 15.2939 18.7236 15.4733C18.7289 15.4786 18.7289 15.4786 18.7341 15.4838L21.6414 18.3912C22.1849 18.9293 22.1849 19.4834 21.6467 20.0427Z" fill="#04183A"/>
</svg>
