<svg width="36" height="36" viewBox="0 0 36 36" fill="none" xmlns="http://www.w3.org/2000/svg">
<path d="M29.5455 21.1584C28.7802 20.3615 27.857 19.9355 26.8786 19.9355C25.9081 19.9355 24.9771 20.3536 24.1801 21.1506L21.6868 23.636C21.4817 23.5255 21.2765 23.423 21.0793 23.3204C20.7952 23.1784 20.527 23.0442 20.2981 22.9022C17.9626 21.4188 15.8401 19.4857 13.8044 16.9845C12.8181 15.7378 12.1554 14.6884 11.6741 13.6232C12.3211 13.0315 12.9207 12.416 13.5046 11.8242C13.7255 11.6033 13.9465 11.3745 14.1674 11.1536C15.8243 9.49661 15.8243 7.35046 14.1674 5.6935L12.0133 3.53945C11.7687 3.29486 11.5163 3.04237 11.2795 2.78988C10.8061 2.30068 10.309 1.7957 9.79617 1.32229C9.03081 0.564819 8.11554 0.162415 7.15293 0.162415C6.19031 0.162415 5.25926 0.564819 4.47023 1.32229C4.46234 1.33018 4.46234 1.33018 4.45445 1.33807L1.77176 4.04443C0.761802 5.05439 0.185811 6.28527 0.0595669 7.71341C-0.1298 10.0174 0.548764 12.1635 1.06952 13.568C2.34775 17.0161 4.2572 20.2116 7.10559 23.636C10.5615 27.7626 14.7197 31.0213 19.4697 33.3174C21.2844 34.1774 23.7067 35.1953 26.4131 35.3688C26.5788 35.3767 26.7524 35.3846 26.9102 35.3846C28.7328 35.3846 30.2636 34.7297 31.4629 33.4278C31.4708 33.4121 31.4865 33.4042 31.4944 33.3884C31.9047 32.8913 32.3782 32.4415 32.8752 31.9602C33.2145 31.6367 33.5617 31.2975 33.901 30.9424C34.6821 30.1297 35.0924 29.1829 35.0924 28.2124C35.0924 27.234 34.6742 26.295 33.8773 25.506L29.5455 21.1584ZM32.3703 29.4669C32.3624 29.4669 32.3624 29.4748 32.3703 29.4669C32.0625 29.7983 31.7469 30.0981 31.4076 30.4295C30.8948 30.9187 30.374 31.4316 29.8848 32.0076C29.0879 32.8597 28.149 33.2621 26.9181 33.2621C26.7997 33.2621 26.6735 33.2621 26.5551 33.2542C24.2117 33.1043 22.034 32.1891 20.4007 31.4079C15.9348 29.246 12.0133 26.1767 8.75465 22.2868C6.06407 19.0439 4.26509 16.0455 3.07365 12.8263C2.33986 10.8616 2.07159 9.33092 2.18994 7.887C2.26885 6.96384 2.62391 6.19848 3.2788 5.54359L5.96939 2.853C6.35601 2.49005 6.7663 2.29279 7.16871 2.29279C7.6658 2.29279 8.0682 2.59262 8.32069 2.84511C8.32858 2.853 8.33647 2.86089 8.34436 2.86878C8.82567 3.31853 9.2833 3.78405 9.76461 4.28114C10.0092 4.53363 10.2617 4.78612 10.5142 5.0465L12.6682 7.20054C13.5046 8.03691 13.5046 8.81016 12.6682 9.64653C12.4394 9.87535 12.2185 10.1042 11.9897 10.3251C11.3269 11.0037 10.6957 11.6349 10.0092 12.2503C9.99343 12.2661 9.97765 12.274 9.96976 12.2898C9.29119 12.9683 9.41744 13.6311 9.55946 14.0809C9.56735 14.1045 9.57524 14.1282 9.58313 14.1519C10.1433 15.509 10.9324 16.7872 12.1317 18.3101L12.1396 18.3179C14.3173 21.0006 16.6134 23.0916 19.1462 24.6933C19.4697 24.8984 19.801 25.0641 20.1167 25.2219C20.4007 25.364 20.669 25.4981 20.8978 25.6401C20.9294 25.6559 20.9609 25.6796 20.9925 25.6954C21.2607 25.8295 21.5132 25.8926 21.7736 25.8926C22.4285 25.8926 22.8388 25.4823 22.9729 25.3482L25.6714 22.6497C25.9397 22.3814 26.3658 22.0579 26.8628 22.0579C27.352 22.0579 27.7544 22.3657 27.999 22.6339C28.0069 22.6418 28.0069 22.6418 28.0148 22.6497L32.3624 26.9973C33.1751 27.8021 33.1751 28.6305 32.3703 29.4669Z" fill="white"/>
</svg>
