<svg width="117" height="114" viewBox="0 0 117 114" fill="none" xmlns="http://www.w3.org/2000/svg">
<path d="M100.226 20.2471C84.3459 19.2648 72.7312 20.5928 65.7813 21.8813C64.852 22.0541 64.2365 22.9425 64.4102 23.8703C64.5625 24.6919 65.2816 25.2649 66.0921 25.2649C66.8446 25.2649 79.0718 22.3573 100.013 23.652C100.964 23.7126 101.771 22.994 101.829 22.0541C101.89 21.1173 101.171 20.3078 100.226 20.2471Z" fill="#F4D805"/>
<path d="M100.226 32.8296C84.3459 31.8472 72.7312 33.1752 65.7813 34.4638C64.852 34.6366 64.2365 35.528 64.4102 36.4527C64.5625 37.2713 65.2816 37.8444 66.0921 37.8444C66.8446 37.8444 79.0718 34.9368 100.013 36.2314C100.964 36.292 101.771 35.5765 101.829 34.6336C101.89 33.6967 101.171 32.8872 100.226 32.8296Z" fill="#F4D805"/>
<path d="M64.4142 61.6115C64.5666 62.4332 65.2856 63.0062 66.0961 63.0062C66.7481 63.0062 70.2947 62.0876 78.1312 61.4812C79.0758 61.4084 79.7796 60.5867 79.7065 59.6469C79.6333 58.707 78.8076 58.0066 77.8631 58.0794C73.5822 58.4098 69.5177 58.9313 65.7823 59.6226C64.853 59.7954 64.2405 60.6868 64.4142 61.6115Z" fill="#F4D805"/>
<path d="M24.7566 23.3427C24.7658 23.3427 24.778 23.3427 24.7871 23.3427C36.5846 23.1426 45.3291 24.2614 50.588 25.2377C50.6947 25.2589 50.8013 25.268 50.9049 25.268C51.7123 25.268 52.4344 24.6949 52.5868 23.8733C52.7605 22.9486 52.148 22.0572 51.2157 21.8844C45.7983 20.8808 36.807 19.7287 24.7262 19.9318C23.7786 19.947 23.026 20.7262 23.0412 21.6661C23.0595 22.5969 23.8243 23.3427 24.7566 23.3427Z" fill="#F4D805"/>
<path d="M16.9824 36.2344C32.5123 35.2733 43.8284 36.5649 50.5864 37.8171C51.5279 37.9929 52.4145 37.3684 52.5851 36.4527C52.7588 35.528 52.1464 34.6366 51.214 34.4638C44.2672 33.1752 32.6494 31.8472 16.7691 32.8296C15.8246 32.8902 15.1055 33.6967 15.1634 34.6366C15.2244 35.5765 16.0409 36.2951 16.9824 36.2344Z" fill="#F4D805"/>
<path d="M16.9824 48.8138C32.5123 47.8527 43.8284 49.1443 50.5864 50.3965C51.5279 50.5693 52.4145 49.9447 52.5851 49.0321C52.7588 48.1044 52.1464 47.216 51.214 47.0432C44.2641 45.7546 32.6494 44.4266 16.7691 45.409C15.8246 45.4666 15.1055 46.2761 15.1634 47.216C15.2244 48.1589 16.0409 48.8745 16.9824 48.8138Z" fill="#F4D805"/>
<path d="M16.9836 61.3932C22.7727 61.0355 28.4338 60.9657 33.8085 61.184C39.8565 61.4327 45.5024 62.033 50.5876 62.9759C51.5291 63.1487 52.4157 62.5272 52.5863 61.6115C52.76 60.6868 52.1476 59.7954 51.2153 59.6226C45.9655 58.6494 40.1581 58.0278 33.9486 57.7762C28.4581 57.5518 22.6782 57.6246 16.7703 57.9884C15.8258 58.046 15.1067 58.8555 15.1677 59.7954C15.2256 60.7383 16.0421 61.4539 16.9836 61.3932Z" fill="#F4D805"/>
<path d="M109.694 8.01638V6.02138C109.694 3.29265 107.555 0.973239 104.828 0.739781C79.0969 -1.46139 63.378 2.37702 59.1764 3.60494C58.7468 3.73228 58.2776 3.73531 57.8297 3.60494C53.625 2.37702 37.9092 -1.46139 12.1784 0.739781C9.44531 0.973239 7.30641 3.29569 7.30641 6.02138V8.01638C2.58375 9.51718 0 12.8644 0 17.5578V76.756C0 83.1503 4.95727 87.2828 12.6293 87.2828C14.0065 87.2828 35.0177 85.0028 52.583 89.1777C56.1052 90.0145 59.7523 90.0994 63.3506 89.4051C63.4877 91.3425 63.9387 93.2284 64.7126 95.0202C68.2226 103.3 68.0733 102.879 68.2896 103.485C66.9002 104.161 65.9405 105.574 65.9405 107.215V109.777C65.9405 112.066 67.8112 113.927 70.1116 113.927H95.7663C98.0667 113.927 99.9375 112.066 99.9375 109.777V107.215C99.9375 105.729 99.1484 104.428 97.9662 103.695C98.3562 102.894 98.8223 102.13 99.3586 101.415C102.433 97.3336 104.243 92.3673 104.547 87.2828C112.119 87.2221 117.003 83.1048 117.003 76.759V17.5578C117 12.8644 114.416 9.51718 109.694 8.01638ZM63.3019 85.9336C60.0448 86.6552 56.6262 86.6339 53.3782 85.8608C35.3529 81.5767 13.7993 83.8719 12.6293 83.8719C10.4691 83.8719 3.42773 83.3595 3.42773 76.756V17.5578C3.42773 14.723 4.70133 12.7765 7.30641 11.6486V23.3124C7.30641 24.2553 8.07422 25.0194 9.0218 25.0194C9.96938 25.0194 10.7372 24.2553 10.7372 23.3124V6.02138C10.7372 5.04813 11.4989 4.22042 12.4709 4.13856C37.4583 2.00106 52.6226 5.64845 56.7877 6.85515V78.4599C56.2118 78.3932 55.642 78.2931 55.0784 78.1597C48.4514 76.5831 34.1463 74.2061 12.7938 75.9646C11.6848 76.0556 10.7402 75.1854 10.7402 74.0818V31.2863C10.7402 30.3434 9.97242 29.5794 9.02484 29.5794C8.08031 29.5794 7.30945 30.3434 7.30945 31.2863V74.0848C7.30945 77.1804 9.97242 79.6242 13.0741 79.3695C33.9544 77.6504 47.8542 79.9546 54.2801 81.4827C57.656 82.2831 60.3434 82.0254 63.3019 81.3463V85.9336ZM96.5067 109.777C96.5067 110.186 96.1746 110.516 95.7633 110.516H70.1086C69.6973 110.516 69.3652 110.186 69.3652 109.777V107.215C69.3652 106.808 69.6973 106.475 70.1086 106.475H95.6658C95.6688 106.475 95.6719 106.475 95.6719 106.475C95.6749 106.475 95.6749 106.475 95.678 106.475H95.7633C96.1746 106.475 96.5067 106.808 96.5067 107.215V109.777ZM101.168 85.7638C101.168 90.6361 99.5505 95.4659 96.6134 99.368C95.7541 100.508 95.0442 101.748 94.4897 103.064H71.7509C71.3456 101.696 71.2146 101.639 67.8661 93.6831C67.1105 91.9337 66.7296 90.0812 66.7296 88.1772C66.7296 86.4945 66.7296 76.6953 66.7296 75.2703C66.7296 74.0454 67.6863 73.0146 68.8624 72.9752C70.133 72.9327 71.1598 73.9363 71.1598 75.1794C71.1598 76.1223 71.9245 76.8833 72.8752 76.8833C73.8227 76.8833 74.5905 76.1193 74.5905 75.1794V72.9357C74.5905 71.6957 75.6113 70.6891 76.7995 70.7194C78.5637 70.7558 79.0177 71.5926 79.0177 74.7913C79.0177 75.7342 79.7855 76.4982 80.733 76.4982C81.6806 76.4982 82.4484 75.7342 82.4484 74.7913C82.4484 74.7852 82.4484 74.7791 82.4484 74.7731V71.0226C82.4484 69.7977 83.4052 68.7669 84.5813 68.7244C85.8609 68.685 86.8786 69.6946 86.8786 70.9286C86.8786 71.8715 87.6464 72.6356 88.594 72.6356C89.5416 72.6356 90.3094 71.8715 90.3094 70.9286V48.2863C90.3094 47.0705 91.3027 46.0821 92.5245 46.0821C93.7463 46.0821 94.7395 47.0705 94.7395 48.2863V75.7948C94.7395 76.4558 95.1234 77.0561 95.7237 77.3381C96.3239 77.62 97.0369 77.5291 97.5457 77.1077C99.063 75.8555 101.171 77.0925 101.171 78.8995V85.7638H101.168ZM113.572 76.756C113.572 83.1472 106.979 83.8325 104.596 83.8688V79.3725C107.488 79.2452 109.694 76.8863 109.694 74.0818V58.71C109.694 57.7671 108.926 57.003 107.978 57.003C107.031 57.003 106.263 57.7671 106.263 58.71V74.0818C106.263 75.1945 105.309 76.0586 104.209 75.9646C104.06 75.9525 103.914 75.9434 103.764 75.9313C102.61 74.0212 100.443 72.9176 98.1581 73.242V48.7077C98.7705 48.738 99.386 48.7714 100.014 48.8108C100.964 48.8714 101.772 48.1559 101.83 47.213C101.891 46.2731 101.171 45.4636 100.224 45.406C99.2184 45.3423 98.2312 45.2907 97.2593 45.2483C96.2538 43.696 94.5049 42.6651 92.5153 42.6651C90.5988 42.6651 88.9078 43.6202 87.8841 45.0755C78.198 45.1664 70.7789 46.1154 65.779 47.0432C64.8497 47.216 64.2342 48.1044 64.4079 49.0321C64.5602 49.8538 65.2823 50.4268 66.0898 50.4268C66.7997 50.4268 73.8288 48.7138 86.8694 48.5015V65.7562C86.1169 65.4378 85.2973 65.2862 84.4502 65.3135C82.4637 65.3832 80.7574 66.4717 79.8098 68.0726C79.0695 67.6299 78.1097 67.3297 76.8605 67.3024C74.6515 67.26 72.7441 68.5091 71.7935 70.3313C70.8795 69.7947 69.8283 69.5279 68.7314 69.5643C65.6815 69.6734 63.2927 72.1778 63.2927 75.2703V77.8475C62.8205 77.9505 62.3604 78.0536 61.9156 78.1597C61.3519 78.2931 60.7791 78.3932 60.2063 78.4599V6.85819C64.3713 5.64845 79.5356 2.00106 104.523 4.14159C105.495 4.22345 106.257 5.05117 106.257 6.02441V50.7421C106.257 51.682 107.025 52.4491 107.972 52.4491C108.92 52.4491 109.688 51.6851 109.688 50.7421V11.6486C112.293 12.7765 113.566 14.723 113.566 17.5578V76.756H113.572Z" fill="#F4D805"/>
</svg>
