<svg width="110" height="110" viewBox="0 0 110 110" fill="none" xmlns="http://www.w3.org/2000/svg">
<path d="M101.762 9.13803H91.727C92.2054 8.26146 92.4775 7.25886 92.4775 6.19324C92.4775 2.79298 89.7103 0.0257874 86.3101 0.0257874H23.6903C20.29 0.0257874 17.5228 2.79298 17.5228 6.19324C17.5228 7.25886 17.795 8.26146 18.2734 9.13803H8.23872C2.7158 9.13803 -1.05399 14.1511 0.26372 19.2386L4.69237 36.3258C7.19028 45.9651 14.7385 53.4732 24.395 55.9224C24.478 55.9425 24.5611 55.9625 24.6471 55.9797L40.9236 59.2883C42.227 60.3425 43.5963 61.3279 45.0286 62.2359C44.8137 68.1656 42.5937 73.8232 38.7093 78.3292H36.8301C32.7023 78.3292 29.3421 81.6865 29.3421 85.8143V87.6448C24.6556 88.3266 21.0463 92.3685 21.0463 97.2412V98.2695C21.0463 100.977 23.2491 103.179 25.9562 103.179H52.8861C53.5335 103.927 54.5132 104.268 55.5015 104.079L61.4484 102.939L63.0497 108.029C63.7744 110.335 66.9226 110.69 68.1257 108.559L71.1593 103.179H83.1905L86.2213 108.559C87.4244 110.693 90.5697 110.335 91.2973 108.029L92.8986 102.939L98.8455 104.079C99.9197 104.285 100.985 103.861 101.627 102.97C102.266 102.082 102.329 100.936 101.79 99.9826L95.7804 89.3177C100.418 85.0495 103.457 79.3175 104.366 73.0956C104.494 72.2162 103.884 71.3969 103.005 71.268C102.125 71.1419 101.306 71.7492 101.177 72.6287C100.318 78.5125 97.2957 83.9008 92.701 87.7336C92.6895 87.7422 92.678 87.7508 92.6694 87.7594C77.0116 100.767 52.9176 89.6872 52.9176 69.0938C52.9176 55.719 63.8002 44.8365 77.1749 44.8365C83.0359 44.8365 88.6963 46.9534 93.1077 50.8005C97.4791 54.6133 100.347 59.8526 101.177 65.5589C101.306 66.4383 102.125 67.0484 103.005 66.9195C103.884 66.7906 104.494 65.9742 104.366 65.0919C103.532 59.3885 100.908 54.0919 96.9033 49.9612C100.982 46.369 103.942 41.5909 105.308 36.3172L109.737 19.23C111.054 14.151 107.285 9.13803 101.762 9.13803ZM25.2887 52.8201C25.2543 52.8143 25.2171 52.8057 25.1856 52.7971C16.6721 50.6401 10.0176 44.0201 7.8119 35.518L3.38325 18.4279C2.60122 15.4143 4.78976 12.3607 8.23872 12.3607C8.71138 12.3607 20.1726 12.3607 24.6012 12.3607V16.8037H11.0517C9.28143 16.8037 7.98664 18.4766 8.43065 20.1896L12.1145 34.4008C13.8991 41.293 19.2903 46.6813 26.1853 48.463C26.2111 48.4688 26.2398 48.4774 26.2684 48.4831L32.1208 49.6748C33.407 51.5826 34.8421 53.393 36.4176 55.0831L25.2887 52.8201ZM29.8577 45.925L26.953 45.3349C21.2124 43.8339 16.7236 39.3393 15.2369 33.593L11.7192 20.0263H24.6012V25.0794C24.6012 32.4815 26.4661 39.6201 29.8577 45.925ZM48.1424 64.012C48.7583 64.3013 49.3885 64.5505 50.0359 64.7625C49.8096 66.1748 49.6921 67.6214 49.6921 69.0995C49.6921 72.3365 50.2564 75.4445 51.2905 78.3292H42.8028C45.8192 74.1096 47.6611 69.1797 48.1424 64.012ZM93.2481 91.3859L98.5161 100.736L93.1192 99.699C91.7327 99.4326 90.3663 100.249 89.9424 101.595L88.5301 106.09C87.4473 104.168 84.0499 98.1406 82.8353 95.9865C86.5765 95.1987 90.1286 93.6375 93.2481 91.3859ZM74.9319 96.4849C76.5046 96.6138 77.9598 96.6024 79.415 96.4849L81.3744 99.9596H72.9754L74.9319 96.4849ZM61.1075 91.3745C64.1668 93.586 67.6931 95.1844 71.5145 95.9893C70.0335 98.6162 66.7765 104.397 65.8197 106.09L64.4075 101.598C63.9835 100.252 62.6171 99.4354 61.2307 99.7018L55.8338 100.739L61.1075 91.3745ZM52.571 99.9568H25.9562C25.0252 99.9568 24.2689 99.2005 24.2689 98.2695V97.2412C24.2689 93.6719 27.1736 90.7643 30.7458 90.7643H57.753L52.571 99.9568ZM56.8192 87.5417H32.5619V85.8143C32.5619 83.4625 34.4754 81.549 36.8273 81.549H52.6799C53.7942 83.7318 55.1892 85.7456 56.8192 87.5417ZM77.1749 41.6167C64.6223 41.6167 54.0062 50.0758 50.7348 61.5943C50.0502 61.3537 49.3856 61.0557 48.7497 60.7005C35.8418 53.5047 27.8239 39.855 27.8239 25.0766V12.3578H31.1812C32.0692 12.3578 32.7939 11.6359 32.7939 10.7451C32.7939 9.85417 32.0721 9.1323 31.1812 9.1323C29.9408 9.1323 34.57 9.1323 23.6903 9.1323C22.0689 9.12943 20.7484 7.80886 20.7484 6.18751C20.7484 4.56329 22.0689 3.24271 23.6931 3.24271H86.3129C87.9372 3.24271 89.2577 4.56329 89.2577 6.18751C89.2577 7.80886 87.9372 9.12943 86.3158 9.1323C84.2533 9.1323 41.5223 9.1323 38.7122 9.1323C37.8213 9.1323 37.0994 9.85417 37.0994 10.7451C37.0994 11.6359 37.8213 12.3578 38.7122 12.3578H82.1793V25.0766C82.1793 30.8344 80.9934 36.406 78.653 41.6568C78.1575 41.631 77.6676 41.6167 77.1749 41.6167ZM87.2984 43.5503C85.5882 42.8714 83.8093 42.3672 81.9874 42.0435C84.2218 36.6867 85.3991 30.8659 85.3991 25.0794V20.0263H98.2812L94.7663 33.593C93.6864 37.7609 90.9822 41.3503 87.2984 43.5503ZM106.617 18.4279L102.188 35.5151C100.954 40.2789 98.2439 44.5844 94.5114 47.7755C93.3025 46.793 92.0192 45.9164 90.6757 45.1573C94.1991 42.5076 96.7687 38.712 97.8859 34.3979L101.57 20.1867C102.014 18.4737 100.722 16.8008 98.9515 16.8008H85.402V12.3607H86.3129C86.3158 12.3607 86.3187 12.3607 86.3215 12.3607H101.765C105.208 12.3607 107.399 15.4115 106.617 18.4279Z" fill="#F4D805"/>
<path d="M77.1751 48.5719C65.8572 48.5719 56.6504 57.7787 56.6504 69.0966C56.6504 80.4146 65.8572 89.6214 77.1751 89.6214C88.4931 89.6214 97.6998 80.4146 97.6998 69.0966C97.6998 57.7787 88.4902 48.5719 77.1751 48.5719ZM77.1751 86.3987C67.6332 86.3987 59.873 78.6357 59.873 69.0966C59.873 59.5576 67.6332 51.7945 77.1751 51.7945C86.7142 51.7945 94.4772 59.5576 94.4772 69.0966C94.4772 78.6357 86.7142 86.3987 77.1751 86.3987Z" fill="#F4D805"/>
<path d="M75.1324 59.8984L63.6598 63.8315C62.7746 64.1352 62.1816 64.9659 62.1816 65.9026C62.1816 66.8393 62.7775 67.6701 63.6598 67.9737L67.0829 69.1453V74.757C67.0829 76.894 68.8217 78.6357 70.9616 78.6357H83.3853C85.5251 78.6357 87.2639 76.8969 87.2639 74.757V69.1453L90.6871 67.9737C91.5722 67.6701 92.1652 66.8393 92.1652 65.9026C92.1652 64.9659 91.5722 64.1352 90.6871 63.8315L79.2144 59.8984C77.8967 59.4458 76.4501 59.4458 75.1324 59.8984ZM84.0413 74.757C84.0413 75.118 83.7462 75.413 83.3853 75.413H70.9616C70.6006 75.413 70.3056 75.118 70.3056 74.757V70.2482L75.1324 71.9039C76.4473 72.3537 77.8967 72.3537 79.2144 71.9039L84.0413 70.2482V74.757ZM78.1689 68.856C77.5272 69.0766 76.8197 69.0766 76.178 68.856L67.5556 65.9026L76.178 62.9464C76.8197 62.7287 77.5272 62.7287 78.1689 62.9464L86.7884 65.9026L78.1689 68.856Z" fill="#F4D805"/>
</svg>
