<svg width="92" height="116" viewBox="0 0 92 116" fill="none" xmlns="http://www.w3.org/2000/svg">
<path d="M13.7109 41.3431C13.7109 42.2826 14.4688 43.0439 15.4108 43.0439H76.5922C77.5312 43.0439 78.2921 42.2856 78.2921 41.3431C78.2921 40.4067 77.5312 39.6424 76.5922 39.6424H15.4108C14.4718 39.6424 13.7109 40.4036 13.7109 41.3431Z" fill="#F4D805"/>
<path d="M15.4108 54.4294H76.5922C77.5312 54.4294 78.2921 53.6681 78.2921 52.7287C78.2921 51.7892 77.5312 51.0279 76.5922 51.0279H15.4108C14.4718 51.0279 13.7109 51.7892 13.7109 52.7287C13.7109 53.6711 14.4718 54.4294 15.4108 54.4294Z" fill="#F4D805"/>
<path d="M15.4108 65.8179H76.5922C77.5312 65.8179 78.2921 65.0567 78.2921 64.1172C78.2921 63.1777 77.5312 62.4165 76.5922 62.4165H15.4108C14.4718 62.4165 13.7109 63.1777 13.7109 64.1172C13.7109 65.0597 14.4718 65.8179 15.4108 65.8179Z" fill="#F4D805"/>
<path d="M15.4108 77.2065H35.8036C36.7426 77.2065 37.5035 76.4452 37.5035 75.5057C37.5035 74.5662 36.7426 73.808 35.8036 73.808H15.4108C14.4718 73.808 13.7109 74.5693 13.7109 75.5057C13.7109 76.4482 14.4718 77.2065 15.4108 77.2065Z" fill="#F4D805"/>
<path d="M15.4108 88.595H35.8036C36.7426 88.595 37.5035 87.8337 37.5035 86.8943C37.5035 85.9548 36.7426 85.1935 35.8036 85.1935H15.4108C14.4718 85.1935 13.7109 85.9548 13.7109 86.8943C13.7109 87.8368 14.4718 88.595 15.4108 88.595Z" fill="#F4D805"/>
<path d="M76.5917 19.7774C77.5307 19.7774 78.2916 19.0161 78.2916 18.0767C78.2916 17.1372 77.5307 16.3759 76.5917 16.3759H43.4089C42.4699 16.3759 41.709 17.1372 41.709 18.0767C41.709 19.0161 42.4699 19.7774 43.4089 19.7774H76.5917Z" fill="#F4D805"/>
<path d="M62.1831 78.3483C62.1771 78.3332 62.171 78.3151 62.165 78.3C61.848 77.5267 61.1022 77.0252 60.2658 77.0252H60.2628C59.4264 77.0252 58.6807 77.5267 58.3636 78.303C58.3576 78.3151 58.3546 78.3302 58.3485 78.3423L52.4517 93.8361C52.1166 94.7122 52.5604 95.694 53.436 96.0293C54.3116 96.3646 55.2929 95.9235 55.6281 95.0475L56.6788 92.2834H63.8106L64.8522 95.0415C65.1844 95.9205 66.1657 96.3616 67.0413 96.0323C67.9199 95.7 68.3607 94.7212 68.0316 93.8422L62.1831 78.3483ZM57.9711 88.882L60.2598 82.8705L62.5273 88.882H57.9711Z" fill="#F4D805"/>
<path d="M90.3022 89.172C89.3632 89.172 88.6023 89.9332 88.6023 90.8727V103.995C88.6023 108.741 84.7406 112.602 79.9971 112.602H12.0011C7.25766 112.602 3.3959 108.741 3.3959 103.995V50.3663C3.3959 49.4269 2.63804 48.6656 1.696 48.6656C0.756973 48.6656 -0.00390625 49.4269 -0.00390625 50.3663V103.992C-0.000886887 110.614 5.38264 116 12.0011 116H80.0002C86.6186 116 92.0021 110.614 92.0021 103.995V90.8727C91.9991 89.9332 91.2382 89.172 90.3022 89.172Z" fill="#F4D805"/>
<path d="M80.001 0H31.8603C28.3277 0 25.0064 1.37448 22.5094 3.87573L3.87384 22.5203C1.37683 25.0185 0 28.3415 0 31.8758V42.4457C0 43.3852 0.76088 44.1465 1.6999 44.1465C2.63892 44.1465 3.3998 43.3852 3.3998 42.4457V31.8758C3.3998 30.8125 3.56889 29.7794 3.89196 28.7976H22.6301C26.0269 28.7976 28.7866 26.0335 28.7866 22.6351V3.89083C29.7679 3.5676 30.8005 3.39844 31.8633 3.39844H80.001C84.7445 3.39844 88.6062 7.25906 88.6062 12.0048V82.9219C88.6062 83.8614 89.3671 84.6226 90.3061 84.6226C91.2421 84.6226 92.006 83.8614 92.006 82.9219V12.0048C92 5.38615 86.6195 0 80.001 0ZM25.3898 22.6381C25.3898 24.1606 24.1519 25.4022 22.6301 25.4022H5.83341C5.97532 25.2391 6.12327 25.079 6.27726 24.9249C26.0692 5.13542 24.8614 6.29844 25.3898 5.83625V22.6381Z" fill="#F4D805"/>
<path d="M60.2392 69.5668C50.2844 69.5668 42.1895 77.6687 42.1895 87.6253C42.1895 97.582 50.2874 105.684 60.2392 105.684C70.191 105.684 78.2889 97.582 78.2889 87.6253C78.2889 77.6656 70.194 69.5668 60.2392 69.5668ZM60.2392 102.285C52.1594 102.285 45.5862 95.7091 45.5862 87.6253C45.5862 79.5416 52.1594 72.9652 60.2392 72.9652C68.319 72.9652 74.8922 79.5416 74.8922 87.6253C74.8922 95.7091 68.319 102.285 60.2392 102.285Z" fill="#F4D805"/>
</svg>
