<svg width="75" height="75" viewBox="0 0 75 75" fill="none" xmlns="http://www.w3.org/2000/svg">
<path d="M63.9992 10.9877C56.9173 3.90432 47.5057 0 37.4923 0C27.4789 0 18.0673 3.90432 10.9854 10.9877C3.90352 18.071 0 27.4846 0 37.5C0 47.5154 3.90352 56.929 10.9854 64.0123C18.0673 71.0957 27.4789 75 37.4923 75C43.309 75 48.6165 73.9198 52.8286 71.8981C56.8247 69.9691 59.7254 67.2068 61.006 64.1358C62.5334 60.4475 61.6694 56.6049 58.6453 53.5802L58.5373 53.4722C58.5836 53.4105 58.6453 53.3642 58.6916 53.3179C60.8517 51.0494 60.8517 48.071 58.6608 45.8796L53.3224 40.5401C52.2732 39.4599 51.008 38.8735 49.6657 38.8735C48.3234 38.8735 47.0428 39.4444 45.9628 40.5247L43.1856 43.3025C43.0467 43.2253 42.9233 43.1636 42.7844 43.1019C42.445 42.9321 42.1364 42.7778 41.8741 42.608C39.0506 40.8179 36.4894 38.4722 34.0362 35.463C32.9562 34.1049 32.2156 32.9475 31.6602 31.8056C32.3545 31.1574 33.0025 30.4938 33.6351 29.8457C33.8973 29.5679 34.1751 29.3056 34.4528 29.0278C36.7208 26.7593 36.7208 23.8272 34.4528 21.5586L31.8144 18.9198C31.5059 18.6111 31.2127 18.3179 30.9196 18.0093C30.3333 17.4074 29.7315 16.7901 29.0835 16.1883C28.0344 15.1543 26.7846 14.6142 25.4577 14.6142C24.1308 14.6142 22.8657 15.1543 21.7856 16.1883L21.7548 16.2191L18.4376 19.537C17.1107 20.8642 16.3392 22.5 16.1849 24.3827C15.9535 27.3148 16.8021 30.0309 17.4655 31.8056C19.0547 36.0957 21.4308 40.0772 24.964 44.3364C29.2532 49.4599 34.4219 53.5185 40.3312 56.3735C42.5993 57.4537 45.6388 58.7191 49.064 58.9506C49.28 58.966 49.496 58.966 49.712 58.966C52.1035 58.966 54.1247 58.1019 55.6984 56.3889L55.7601 56.3272C55.8064 56.2654 55.8681 56.2037 55.9298 56.142L56.0224 56.2346C57.9973 58.2099 58.5373 60.463 57.5807 62.7623C55.8064 66.9753 48.9097 71.2963 37.4923 71.2963C18.8541 71.2963 3.70294 56.142 3.70294 37.5C3.70294 18.858 18.8541 3.7037 37.4923 3.7037C56.1304 3.7037 71.2816 18.858 71.2816 37.5C71.2816 40.571 70.8651 43.5957 70.0627 46.5123C69.785 47.5 70.3713 48.5185 71.3588 48.7963C72.3462 49.0741 73.3645 48.4877 73.6423 47.5C74.5371 44.2593 75 40.8951 75 37.5C74.9846 27.4846 71.081 18.071 63.9992 10.9877ZM52.9521 53.8735C52.0726 54.8148 51.0852 55.2315 49.712 55.2315C49.5731 55.2315 49.4343 55.2315 49.2954 55.216C46.5182 55.0309 43.8953 53.9352 41.9358 52.9938C36.5203 50.3704 31.7682 46.6512 27.8183 41.929C24.5628 38.0093 22.3874 34.3827 20.937 30.4938C20.073 28.1481 19.749 26.358 19.8725 24.6605C19.965 23.6574 20.3353 22.8395 21.0605 22.1296L24.3777 18.8272C24.64 18.5802 25.0411 18.287 25.4732 18.287C25.9052 18.287 26.2755 18.5648 26.5069 18.8117L26.5532 18.858C27.1395 19.3981 27.6949 19.9691 28.2812 20.571C28.5898 20.8796 28.8984 21.2037 29.207 21.5123L31.8453 24.1512C32.663 24.9691 32.663 25.571 31.8453 26.3889L31.0121 27.2222C30.1944 28.0401 29.4384 28.8272 28.6052 29.5679C28.5744 29.5833 28.5589 29.6142 28.5281 29.6451C27.3709 30.8025 27.7721 32.0062 27.8955 32.4074C27.9109 32.4537 27.9264 32.4846 27.9418 32.5309C28.6515 34.2438 29.639 35.8488 31.151 37.7623L31.1664 37.7778C33.8819 41.1265 36.7363 43.7191 39.8992 45.7253C40.3158 45.9877 40.7324 46.2037 41.1335 46.4043C41.4729 46.5741 41.7815 46.7284 42.0438 46.8981C42.0901 46.929 42.1518 46.9599 42.2135 46.9907C42.6147 47.1914 43.0158 47.284 43.417 47.284C44.0959 47.284 44.7285 47.0062 45.2685 46.4506L48.5857 43.1327C48.848 42.8704 49.2337 42.5617 49.6657 42.5617C50.0669 42.5617 50.4371 42.8549 50.6686 43.1019L56.0378 48.4722C56.7939 49.2284 56.7939 49.9228 56.007 50.7407L55.9916 50.7562C55.6367 51.142 55.251 51.5123 54.8344 51.9136C54.2172 52.5154 53.5692 53.1482 52.9521 53.8735Z" fill="#003970"/>
</svg>
