<svg width="73" height="64" viewBox="0 0 73 64" fill="none" xmlns="http://www.w3.org/2000/svg">
<path d="M8.39103 6.20229C8.39103 6.71429 7.9709 7.13029 7.45382 7.13029C6.93483 7.13029 6.5166 6.71429 6.5166 6.20229C6.5166 5.68841 6.93673 5.27429 7.45382 5.27429C7.9709 5.27429 8.39103 5.68841 8.39103 6.20229Z" fill="#003970"/>
<path d="M12.5636 6.20229C12.5636 6.71429 12.1435 7.13029 11.6264 7.13029C11.1074 7.13029 10.6892 6.71429 10.6892 6.20229C10.6892 5.68841 11.1093 5.27429 11.6264 5.27429C12.1435 5.27429 12.5636 5.68841 12.5636 6.20229Z" fill="#003970"/>
<path d="M16.7384 6.20229C16.7384 6.71429 16.3183 7.13029 15.8012 7.13029C15.2822 7.13029 14.864 6.71429 14.864 6.20229C14.864 5.68841 15.2841 5.27429 15.8012 5.27429C16.3183 5.27429 16.7384 5.68841 16.7384 6.20229Z" fill="#003970"/>
<path d="M28.8712 22.1083H7.74875C7.15753 22.1083 6.67847 22.5826 6.67847 23.168C6.67847 23.7535 7.15563 24.2278 7.74875 24.2278H28.8712C29.4624 24.2278 29.9415 23.7553 29.9415 23.168C29.9415 22.5826 29.4624 22.1083 28.8712 22.1083Z" fill="#003970"/>
<path d="M28.8712 27.744H7.74875C7.15753 27.744 6.67847 28.2165 6.67847 28.8038C6.67847 29.3892 7.15563 29.8635 7.74875 29.8635H28.8712C29.4624 29.8635 29.9415 29.3892 29.9415 28.8038C29.9415 28.2165 29.4624 27.744 28.8712 27.744Z" fill="#003970"/>
<path d="M29.9415 34.4357C29.9415 33.8503 29.4624 33.376 28.8712 33.376H7.74875C7.15753 33.376 6.67847 33.8503 6.67847 34.4357C6.67847 35.0212 7.15563 35.4955 7.74875 35.4955H28.8712C29.4624 35.4955 29.9415 35.0212 29.9415 34.4357Z" fill="#003970"/>
<path d="M7.74875 39.0117C7.15753 39.0117 6.67847 39.4861 6.67847 40.0715C6.67847 40.6569 7.15563 41.1312 7.74875 41.1312H19.2881C19.8793 41.1312 20.3584 40.6569 20.3584 40.0715C20.3584 39.4861 19.8793 39.0117 19.2881 39.0117H7.74875Z" fill="#003970"/>
<path d="M28.586 53.184H4.03211C2.98654 53.184 2.13867 52.3426 2.13867 51.3092V12.2974H62.2363V19.1228C62.2363 19.7082 62.7154 20.1826 63.3066 20.1826C63.8978 20.1826 64.3769 19.7082 64.3769 19.1228V4.09977C64.3769 1.89742 62.5671 0.1073 60.3448 0.1073H4.03211C1.80979 0.1073 0 1.89742 0 4.09977V51.3092C0 53.5115 1.80979 55.3016 4.03211 55.3016H28.586C29.1772 55.3016 29.6562 54.8273 29.6562 54.2419C29.6562 53.6583 29.1772 53.184 28.586 53.184ZM2.13867 4.09977C2.13867 3.06636 2.98844 2.22495 4.03211 2.22495H60.341C61.3865 2.22495 62.2344 3.06636 62.2344 4.09977V10.1798H2.13867V4.09977Z" fill="#003970"/>
<path d="M71.4407 22.4189C69.3629 20.3615 66.0018 20.3615 63.924 22.4189L57.7532 28.529C56.8274 28.0679 55.8598 27.6933 54.8636 27.409C54.7381 25.9954 53.5329 24.8848 52.0767 24.8848C52.0729 24.8848 52.0691 24.8848 52.0672 24.8848L48.1605 24.898C46.6986 24.9036 45.4991 26.0274 45.3869 27.4429C44.2197 27.7836 43.0924 28.2523 42.0259 28.834C40.9385 27.9154 39.2846 27.97 38.2466 29.0034L35.4901 31.7516C34.4502 32.7888 34.4103 34.4264 35.3456 35.4937C34.7658 36.5516 34.3 37.6735 33.9655 38.8312C32.5416 38.9479 31.4086 40.13 31.4143 41.5907L31.4276 45.4533C31.4333 46.8952 32.5625 48.0904 33.9978 48.2147C34.2791 49.1596 34.6498 50.0801 35.0985 50.9648L34.3096 51.7441C33.3799 52.6646 32.6671 53.7488 32.1956 54.9648L29.6824 61.425C29.4182 62.1046 29.576 62.8462 30.0949 63.3601C30.6158 63.8759 31.3648 64.0302 32.0492 63.7704L38.5736 61.2801C39.8017 60.8114 40.8948 60.1074 41.8263 59.185L42.6133 58.4057C43.5391 58.8669 44.5067 59.2434 45.501 59.5257C45.6246 60.9394 46.826 62.0519 48.2822 62.0519H48.2917L52.2098 62.0387C53.6812 62.033 54.8712 60.9036 54.9796 59.4937C56.1468 59.1512 57.2741 58.6843 58.3387 58.1027C59.4223 59.0175 61.0762 58.9704 62.118 57.9333L64.8745 55.185C65.8935 54.1704 65.9714 52.5309 65.019 51.4429C65.6007 50.3832 66.0645 49.2632 66.401 48.1055C67.8325 47.9813 68.956 46.7822 68.9503 45.3366L68.937 41.4514C68.9313 39.9926 67.7888 38.8217 66.3668 38.7201C66.0855 37.7752 65.7148 36.8547 65.2699 35.9737L71.4407 29.8636C73.5185 27.8043 73.5185 24.4763 71.4407 22.4189ZM31.9256 61.5474C34.2715 55.569 34.1803 55.6368 34.5624 54.9253L38.6135 58.9366C37.8949 59.3149 37.9596 59.2246 31.9256 61.5474ZM53.6527 35.586C54.3218 35.8759 54.9492 36.2486 55.5176 36.689L37.3436 54.6843L35.8532 53.2086L53.6527 35.586ZM41.4974 43.4693C41.4974 38.7257 45.3945 34.8688 50.1833 34.8688C50.5559 34.8688 50.9209 34.8952 51.2801 34.9403L41.5658 44.5592C41.5221 44.1977 41.4974 43.8344 41.4974 43.4693ZM40.3473 57.6566L38.8568 56.1808L57.0308 38.1855C57.4756 38.7502 57.8501 39.3695 58.1448 40.0321L40.3473 57.6566ZM58.7988 42.3813C58.8444 42.737 58.871 43.1003 58.871 43.4693C58.871 48.2109 54.9739 52.0697 50.1851 52.0697C49.8163 52.0697 49.4494 52.0472 49.0844 52.0001L58.7988 42.3813ZM66.0798 40.8283C66.5645 40.8415 66.7984 41.1182 66.8003 41.457L66.8136 45.3422C66.8155 45.6792 66.5702 45.986 66.1102 45.9973C65.3155 46.0142 64.6121 46.562 64.4011 47.3262C64.0856 48.4707 63.6293 49.5756 63.0419 50.609C62.6522 51.298 62.7491 52.1413 63.2852 52.706C63.6483 53.09 63.6065 53.4457 63.3575 53.6923L60.601 56.4406C60.388 56.6533 60.1162 56.6382 60.1314 56.6344C59.8253 56.6344 59.677 56.4368 59.6618 56.4274C59.082 55.8664 58.1866 55.7516 57.4852 56.1488C56.4453 56.7361 55.3332 57.1973 54.1811 57.5173C53.4112 57.73 52.8428 58.4377 52.8504 59.2735C52.8523 59.6293 52.5633 59.9192 52.2041 59.9192L48.286 59.9342H48.2841C47.9457 59.9342 47.6416 59.6933 47.6301 59.2359C47.613 58.449 47.0617 57.7526 46.288 57.5455C45.5808 57.3535 44.8907 57.1107 44.2197 56.8152L47.2766 53.7883C48.2233 54.05 49.1985 54.1855 50.1851 54.1855C56.1544 54.1855 61.0097 49.378 61.0097 43.4674C61.0097 37.5888 56.1753 32.7493 50.1851 32.7493C44.2159 32.7493 39.3606 37.5568 39.3606 43.4674C39.3606 44.4443 39.4956 45.41 39.7598 46.3474L36.7049 49.3723C36.4216 48.7399 36.184 48.0886 35.9958 47.4241C35.7791 46.6599 35.0719 46.1177 34.2886 46.1064C34.2677 46.1064 34.2487 46.1064 34.2354 46.1064C33.8685 46.1046 33.57 45.8072 33.5681 45.4439L33.5548 41.5813C33.5529 41.2274 33.8419 40.9375 34.2031 40.9375C35.0586 40.9375 35.76 40.3634 35.9673 39.6086C36.2828 38.4641 36.741 37.3591 37.3265 36.3257C37.7105 35.65 37.6497 34.7784 37.0014 34.1441C36.7543 33.905 36.7543 33.4966 37.0109 33.2406L39.7674 30.4923C40.2294 30.0312 40.6932 30.498 40.7066 30.5036C41.2864 31.0646 42.1818 31.1794 42.8851 30.7822C43.925 30.1949 45.0371 29.7356 46.1892 29.4137C46.9591 29.1991 47.5066 28.5008 47.5199 27.7102V27.6613C47.5199 27.3055 47.8107 27.0137 48.1719 27.0119L52.0786 26.9987H52.0805C52.4417 26.9987 52.7363 27.2886 52.7383 27.6406V27.6537C52.744 28.4613 53.3067 29.1766 54.1032 29.393C55.2514 29.7055 56.3578 30.1554 57.3939 30.7314C58.0821 31.1135 58.987 31.025 59.5972 30.4114C59.8481 30.1573 60.2626 30.1761 60.5097 30.4189L63.2852 33.1483C63.5229 33.3836 63.5913 33.7356 63.2206 34.1347C62.6883 34.705 62.5951 35.5483 62.9925 36.2354C62.9982 36.2448 63.002 36.2542 63.0077 36.2636C63.0096 36.2674 63.0096 36.2693 63.0115 36.2712C63.5951 37.2895 64.0532 38.3794 64.3745 39.5088C64.5893 40.2749 65.2965 40.817 66.0798 40.8283ZM65.4828 32.7662C65.3479 32.3502 65.114 31.9681 64.7909 31.65L62.0153 28.9206C61.7264 28.6382 61.388 28.4255 61.0192 28.29L62.6237 26.7013L67.1158 31.1493L65.4828 32.7662ZM69.9294 28.3634L68.6272 29.6509L64.135 25.2029L65.4353 23.9154C66.6767 22.6862 68.6861 22.6862 69.9275 23.9154C71.1707 25.1464 71.1707 27.1361 69.9294 28.3634Z" fill="#003970"/>
</svg>
