<svg width="74" height="83" viewBox="0 0 74 83" fill="none" xmlns="http://www.w3.org/2000/svg">
<path d="M70.5884 3.45978C68.3912 1.23439 65.4731 0 62.349 0C59.2249 0 56.3239 1.23439 54.1096 3.45978C53.3028 4.27692 53.3028 5.59824 54.1096 6.41538C54.9164 7.23251 56.2209 7.23251 57.0277 6.41538C58.4524 4.97235 60.3406 4.18999 62.349 4.18999C64.3573 4.18999 66.2455 4.98974 67.6703 6.41538C70.6055 9.38835 70.6055 14.2216 67.6703 17.1946C67.6188 17.2468 67.5673 17.2989 67.5329 17.3511C67.4814 17.4032 67.4299 17.438 67.3784 17.4902L64.2543 20.6544L46.883 3.07729C46.0762 2.26016 44.7716 2.26016 43.9649 3.07729L17.3585 30.0253C16.5517 30.8425 16.5517 32.1638 17.3585 32.9809C17.7533 33.3808 18.2854 33.5894 18.8176 33.5894C19.3497 33.5894 19.8646 33.3808 20.2766 32.9809L45.4239 7.4933L47.7756 9.87516L7.40257 50.784C7.00777 51.1839 6.80179 51.7055 6.80179 52.2618C6.80179 52.8182 7.02494 53.3398 7.40257 53.7396L8.70714 55.061L2.95674 60.8678C2.56193 61.2677 2.35595 61.7893 2.35595 62.3456C2.35595 62.902 2.5791 63.4235 2.95674 63.8234L5.51438 66.4139L0.60508 71.3863C-0.201693 72.2034 -0.201693 73.5247 0.60508 74.3419C0.999884 74.7417 1.53201 74.9504 2.06414 74.9504C2.59627 74.9504 3.11123 74.7417 3.5232 74.3419L8.4325 69.3695L10.9901 71.96C11.3849 72.3599 11.8999 72.5685 12.4492 72.5685C12.9985 72.5685 13.5135 72.3425 13.9083 71.96L19.6587 66.1357L20.9632 67.4571C21.358 67.8569 21.8902 68.0656 22.4223 68.0656C22.9544 68.0656 23.4694 67.8569 23.8813 67.4571L70.2966 20.4457C70.3481 20.3936 70.3996 20.3414 70.4339 20.2893C70.4854 20.2371 70.5369 20.2023 70.5884 20.1502C75.12 15.5256 75.12 8.04964 70.5884 3.45978ZM12.432 67.5266L7.31675 62.3456L11.6081 57.9992L14.1657 60.5897L16.7234 63.1801L12.432 67.5266ZM22.4051 63.0237L21.1006 61.7024L17.0839 57.6341L11.7626 52.2445L50.6937 12.8308L61.3362 23.61L22.4051 63.0237Z" fill="#003970"/>
<path d="M68.2371 78.6188H2.06449C0.931569 78.6188 0.00463867 79.5576 0.00463867 80.7051C0.00463867 81.8525 0.931569 82.7914 2.06449 82.7914H68.2371C69.37 82.7914 70.2969 81.8525 70.2969 80.7051C70.2969 79.5576 69.37 78.6188 68.2371 78.6188Z" fill="#003970"/>
</svg>
