<svg width="74" height="80" viewBox="0 0 74 80" fill="none" xmlns="http://www.w3.org/2000/svg">
<path d="M57.2061 30.7479L57.1936 27.0771C57.1873 25.6396 56.1003 24.4729 54.7332 24.3166C54.4196 23.2854 53.9995 22.2854 53.4831 21.3375C54.3297 20.2396 54.2461 18.6521 53.2365 17.6521L50.6151 15.0583C49.5929 14.0458 48 14 46.9276 14.85C45.9744 14.3416 44.9689 13.9312 43.9342 13.625C43.7691 12.2708 42.5984 11.1937 41.1561 11.1937C41.1519 11.1937 41.1498 11.1937 41.1456 11.1937L37.4623 11.2062C36.0116 11.2104 34.8493 12.3 34.6926 13.6562C33.6578 13.9687 32.6544 14.3875 31.7033 14.9041C30.6017 14.0604 29.0088 14.1437 28.0054 15.15L25.4133 17.75C24.4099 18.7562 24.3388 20.3396 25.1959 21.4333C24.6858 22.3833 24.274 23.3875 23.9667 24.4208C22.5975 24.5875 21.521 25.7625 21.5252 27.1979L21.5377 30.8687C21.5419 32.3062 22.631 33.4729 23.9981 33.6291C24.3117 34.6604 24.7318 35.6604 25.2482 36.6062C24.4057 37.6875 24.4643 39.2729 25.4885 40.2854L28.0953 42.8646C29.1049 43.8625 30.702 43.9396 31.8015 43.0916C32.7569 43.6021 33.7623 44.0125 34.8013 44.3187C34.9664 45.6708 36.1349 46.75 37.5794 46.75H37.5898L41.2731 46.7375C42.726 46.7312 43.8861 45.6416 44.0429 44.2875C45.0797 43.9729 46.081 43.5541 47.0322 43.0396C48.1317 43.8854 49.7225 43.8041 50.7259 42.7958L53.3243 40.1875C54.3423 39.1666 54.3904 37.5791 53.5396 36.5062C54.0496 35.5562 54.4614 34.5541 54.7687 33.5208C56.1317 33.3604 57.2103 32.1875 57.2061 30.7479ZM54.4238 31.2021C54.4071 31.2083 52.9752 31.1812 52.5905 32.5854C52.2979 33.6562 51.8714 34.6896 51.3258 35.6562C50.9203 36.375 51.0374 37.2896 51.6122 37.8812L51.6498 37.9187C51.8234 38.0896 51.8254 38.3687 51.654 38.5416L49.0557 41.15C48.8843 41.3229 48.6021 41.325 48.4285 41.1541C48.4118 41.1396 48.3972 41.1229 48.3867 41.1146C47.7931 40.5479 46.8754 40.4375 46.1563 40.8458C45.1884 41.3958 44.1558 41.8271 43.0834 42.1271C42.2765 42.3521 41.7121 43.0937 41.7079 43.9354V43.9687C41.71 44.1083 41.6431 44.2062 41.5867 44.2646C41.5365 44.3146 41.4299 44.3979 41.2648 44.3979C41.2459 44.3979 37.5627 44.4104 37.5794 44.4104C37.3432 44.4104 37.1321 44.225 37.1341 43.9812C37.1341 43.9458 37.1341 43.9104 37.1321 43.8708C37.1007 43.0604 36.5447 42.3708 35.7461 42.1541C34.6717 41.8604 33.6348 41.4375 32.6649 40.8937C31.9416 40.4896 31.0239 40.6062 30.4302 41.1812L30.4093 41.2021C30.4072 41.2041 30.4031 41.2083 30.3989 41.2125C30.2191 41.3833 29.9306 41.3812 29.753 41.2062L27.1462 38.6271C26.979 38.4625 26.9623 38.1875 27.1546 37.9958L27.1859 37.9646C27.7545 37.3708 27.8653 36.4562 27.4556 35.7396C26.9037 34.775 26.471 33.7458 26.17 32.6771C25.9505 31.8979 25.2607 31.3083 24.3493 31.3083C24.0566 31.3041 23.8936 31.0916 23.8915 30.8646L23.8789 27.1937C23.8769 26.7666 24.2928 26.7562 24.3096 26.7479H24.3451C25.1834 26.7396 25.9234 26.1708 26.1449 25.3646C26.4397 24.2937 26.864 23.2604 27.4096 22.2937C27.8152 21.575 27.6981 20.6604 27.1211 20.0666L27.0877 20.0333C26.9142 19.8604 26.9121 19.5791 27.0856 19.4041L29.6756 16.8021C29.8512 16.6271 30.1376 16.625 30.3174 16.8041C30.9194 17.3937 31.8559 17.5104 32.6001 17.0916C33.5617 16.5458 34.588 16.1187 35.6521 15.8208C36.4589 15.5958 37.0234 14.8541 37.0275 14.0125V13.9791C37.0254 13.7396 37.2324 13.55 37.4728 13.5479L41.1561 13.5354H41.1582C41.3944 13.5354 41.6034 13.7187 41.6034 13.9646C41.6034 14.0021 41.6034 14.0416 41.6055 14.0771C41.6369 14.8854 42.1929 15.575 42.9893 15.7916C44.0638 16.0833 45.1006 16.5083 46.0727 17.0521C46.7939 17.4562 47.7115 17.3396 48.2969 16.7729C48.3115 16.7687 48.6313 16.3937 48.9595 16.7166L51.5809 19.3104C51.7565 19.4854 51.7585 19.7687 51.5809 19.95L51.5516 19.9812C50.983 20.5729 50.8722 21.4875 51.2819 22.2062C51.8338 23.1708 52.2665 24.2 52.5675 25.2687C52.787 26.0521 53.4831 26.6375 54.3841 26.6375C54.6767 26.6375 54.844 26.8541 54.844 27.0812L54.8565 30.7521C54.8565 30.9166 54.7729 31.025 54.7227 31.075C54.5848 31.2146 54.4384 31.1979 54.4238 31.2021Z" fill="#003970"/>
<path d="M32.4574 22.0917C28.6487 25.8876 28.6487 32.0646 32.4574 35.8605C34.3617 37.7584 36.8639 38.7063 39.364 38.7063C41.8662 38.7063 44.3663 37.7563 46.2728 35.8605C50.0815 32.0646 50.0815 25.8876 46.2728 22.0917C42.4641 18.2938 36.2661 18.2938 32.4574 22.0917ZM44.6088 34.2001C43.2083 35.5959 41.3457 36.3667 39.364 36.3667C37.3823 36.3667 35.5198 35.598 34.1213 34.2001C32.7207 32.8042 31.9473 30.948 31.9473 28.973C31.9473 26.998 32.7187 25.1417 34.1213 23.7459C35.5658 22.3042 37.4659 21.5834 39.364 21.5834C41.2642 21.5834 43.1623 22.3042 44.6088 23.7459C47.5019 26.6292 47.5019 31.3188 44.6088 34.2001Z" fill="#003970"/>
<path d="M47.105 72.8125H17.3189V2.34375H58.4119C60.0654 2.34375 61.4096 3.68333 61.4096 5.33125V41.7062C61.4096 42.3542 61.9364 42.8792 62.5865 42.8792C63.2366 42.8792 63.7634 42.3563 63.7634 41.7062V5.33125C63.7634 2.39167 61.3636 0 58.4119 0H9.95448C7.00285 0 4.60307 2.39167 4.60307 5.33125V8.53125H4.0972C1.93782 8.53125 0.181885 10.2812 0.181885 12.4333C0.181885 14.5854 1.93782 16.3354 4.0972 16.3354H4.60307V21.1042H4.0972C1.93782 21.1042 0.181885 22.8542 0.181885 25.0062C0.181885 27.1583 1.93782 28.9083 4.0972 28.9083H4.60307V33.6771H4.0972C1.93782 33.6771 0.181885 35.4271 0.181885 37.5792C0.181885 39.7313 1.93782 41.4813 4.0972 41.4813H4.60307V46.25H4.0972C1.93782 46.25 0.181885 48 0.181885 50.1521C0.181885 52.3021 1.93782 54.0542 4.0972 54.0542H4.60307V58.8229H4.0972C1.93782 58.8229 0.181885 60.5729 0.181885 62.725C0.181885 64.8771 1.93782 66.6271 4.0972 66.6271H4.60307V69.8271C4.60307 72.7667 7.00285 75.1583 9.95239 75.1583H47.1029C47.7509 75.1583 48.2777 74.6333 48.2777 73.9854C48.2798 73.3375 47.753 72.8125 47.105 72.8125ZM4.0972 13.9917C3.23386 13.9917 2.53358 13.2917 2.53358 12.4333C2.53358 11.575 3.23595 10.875 4.0972 10.875H7.46064C8.32398 10.875 9.02426 11.575 9.02426 12.4333C9.02426 13.2937 8.32189 13.9917 7.46064 13.9917H4.0972ZM4.0972 26.5625C3.23386 26.5625 2.53358 25.8625 2.53358 25.0042C2.53358 24.1437 3.23595 23.4458 4.0972 23.4458H7.46064C8.32398 23.4458 9.02426 24.1458 9.02426 25.0042C9.02426 25.8625 8.32189 26.5625 7.46064 26.5625H4.0972ZM4.0972 39.1354C3.23386 39.1354 2.53358 38.4375 2.53358 37.5771C2.53358 36.7188 3.23595 36.0187 4.0972 36.0187H7.46064C8.32398 36.0187 9.02426 36.7188 9.02426 37.5771C9.02426 38.4375 8.32189 39.1354 7.46064 39.1354H4.0972ZM4.0972 51.7083C3.23386 51.7083 2.53358 51.0083 2.53358 50.15C2.53358 49.2896 3.23595 48.5917 4.0972 48.5917H7.46064C8.32398 48.5917 9.02426 49.2917 9.02426 50.15C9.02426 51.0083 8.32189 51.7083 7.46064 51.7083H4.0972ZM4.0972 64.2812C3.23386 64.2812 2.53358 63.5833 2.53358 62.7229C2.53358 61.8646 3.23595 61.1646 4.0972 61.1646H7.46064C8.32398 61.1646 9.02426 61.8646 9.02426 62.7229C9.02426 63.5833 8.32189 64.2812 7.46064 64.2812H4.0972ZM14.9673 72.8125H9.95448C8.30098 72.8125 6.95686 71.4708 6.95686 69.825V66.625H7.46273C9.62211 66.625 11.378 64.875 11.378 62.7229C11.378 60.5708 9.62211 58.8208 7.46273 58.8208H6.95686V54.0521H7.46273C9.62211 54.0521 11.378 52.3021 11.378 50.15C11.378 47.9979 9.62211 46.2479 7.46273 46.2479H6.95686V41.4792H7.46273C9.62211 41.4792 11.378 39.7292 11.378 37.5771C11.378 35.4271 9.62211 33.675 7.46273 33.675H6.95686V28.9062H7.46273C9.62211 28.9062 11.378 27.1562 11.378 25.0042C11.378 22.8521 9.62211 21.1021 7.46273 21.1021H6.95686V16.3354H7.46273C9.62211 16.3354 11.378 14.5854 11.378 12.4333C11.378 10.2833 9.62211 8.53125 7.46273 8.53125H6.95686V5.33125C6.95686 3.68333 8.30098 2.34375 9.95448 2.34375H14.9673V72.8125Z" fill="#003970"/>
<path d="M71.6878 62.3874H65.3414V48.1354C65.3414 46.9666 64.3861 46.0145 63.2134 46.0145H53.2924C52.1197 46.0145 51.1643 46.9666 51.1643 48.1354V62.3874H44.8555C42.9616 62.3874 42.0126 64.6749 43.3504 66.0083L56.7666 79.3791C57.5965 80.2062 58.9469 80.2062 59.7768 79.3791L73.1929 66.0083C74.5308 64.677 73.5817 62.3874 71.6878 62.3874ZM58.2717 77.5645L45.3969 64.7312H51.388C52.5628 64.7312 53.516 63.7791 53.516 62.6104V48.3583H62.9897V62.6104C62.9897 63.7791 63.945 64.7312 65.1177 64.7312H71.1485L58.2717 77.5645Z" fill="#003970"/>
</svg>
