<svg width="74" height="91" viewBox="0 0 74 91" fill="none" xmlns="http://www.w3.org/2000/svg">
<path d="M22.5185 37.0554C22.5185 35.8196 21.5068 34.8085 20.2704 34.8085H2.2481C1.01165 34.8085 0 35.8196 0 37.0554C0 38.2912 1.01165 39.3023 2.2481 39.3023H20.2704C21.5068 39.3023 22.5185 38.2912 22.5185 37.0554Z" fill="#003970"/>
<path d="M71.7518 34.8085H53.7295C52.4931 34.8085 51.4814 35.8196 51.4814 37.0554C51.4814 38.2912 52.4931 39.3023 53.7295 39.3023H71.7518C72.9883 39.3023 73.9999 38.2912 73.9999 37.0554C73.9999 35.8196 73.007 34.8085 71.7518 34.8085Z" fill="#003970"/>
<path d="M37.0001 22.5815C38.2365 22.5815 39.2482 21.5704 39.2482 20.3346V2.3218C39.2482 1.086 38.2365 0.0748901 37.0001 0.0748901C35.7636 0.0748901 34.752 1.086 34.752 2.3218V20.3346C34.752 21.5704 35.7636 22.5815 37.0001 22.5815Z" fill="#003970"/>
<path d="M48.8211 27.4872C49.4019 27.4872 49.9639 27.2625 50.4136 26.8319L63.1715 14.0806C64.052 13.2006 64.052 11.7776 63.1715 10.8975C62.291 10.0175 60.8672 10.0175 59.9867 10.8975L47.2287 23.6488C46.3482 24.5288 46.3482 25.9518 47.2287 26.8319C47.6784 27.2625 48.2591 27.4872 48.8211 27.4872Z" fill="#003970"/>
<path d="M23.5863 26.8319C24.0172 27.2625 24.598 27.4872 25.1787 27.4872C25.7595 27.4872 26.3215 27.2625 26.7711 26.8319C27.6516 25.9518 27.6516 24.5288 26.7711 23.6488L14.0132 10.8975C13.1327 10.0175 11.7089 10.0175 10.8283 10.8975C9.94784 11.7776 9.94784 13.2006 10.8283 14.0806L23.5863 26.8319Z" fill="#003970"/>
<path d="M64.0143 51.2296C62.3095 49.7691 60.1551 48.9639 57.9632 48.9639H45.0928V39.8827C45.0928 35.5386 43.8002 32.3742 41.2336 30.4831C37.187 27.5246 31.6979 29.1911 31.4544 29.266C30.5177 29.5656 29.8807 30.4269 29.8807 31.4006V42.3543C29.8807 45.6872 28.2883 48.5146 25.1222 50.7802C22.7242 52.5028 20.2701 53.2893 19.9516 53.3829L19.7268 53.439C18.8837 52.4841 17.6473 51.8849 16.2609 51.8849H7.71816C5.17031 51.8849 3.09082 53.9633 3.09082 56.5098V84.5214C3.09082 87.0679 5.17031 89.1463 7.71816 89.1463H16.2984C17.4225 89.1463 18.4716 88.7343 19.2584 88.0602C20.982 89.7454 23.3237 90.7753 25.8528 90.7753H52.6989C55.3966 90.7753 57.7759 90.1199 59.5931 88.9028C61.9161 87.33 63.3587 84.8397 63.7708 81.6565L67.2366 60.1236C67.7799 56.7907 66.5435 53.3829 64.0143 51.2296ZM16.4296 84.5214C16.4296 84.5963 16.3733 84.6524 16.2984 84.6524H7.71816C7.64322 84.6524 7.58702 84.5963 7.58702 84.5214V56.5098C7.58702 56.4349 7.64322 56.3788 7.71816 56.3788H16.2984C16.3733 56.3788 16.4296 56.4349 16.4296 56.5098V84.5214ZM62.7966 59.4308L59.3308 81.0012C59.3308 81.0199 59.3308 81.0574 59.3121 81.0948C59.1622 82.3868 58.6751 86.3002 52.6989 86.3002H25.8528C23.4549 86.3002 21.3566 84.5026 20.982 82.1247C20.9632 82.031 20.9445 81.9374 20.9258 81.8625V57.7831L21.0569 57.7456C21.0944 57.7456 21.1131 57.7269 21.1506 57.7269C21.2817 57.6895 24.4665 56.7907 27.6326 54.5251C32.0351 51.3981 34.3769 47.1851 34.3769 42.3543V33.2543C35.6133 33.1232 37.3182 33.1794 38.5733 34.0969C39.9222 35.0892 40.5966 37.0366 40.5966 39.8639V51.1921C40.5966 52.4279 41.6083 53.439 42.8447 53.439H57.9632C59.0873 53.439 60.1926 53.8697 61.0918 54.6187C62.4407 55.7796 63.0776 57.6146 62.7966 59.4308Z" fill="#003970"/>
</svg>
