<svg width="25" height="25" viewBox="0 0 25 25" fill="none" xmlns="http://www.w3.org/2000/svg">
<path d="M12.5 25C5.60722 25 0 19.3928 0 12.5C0 5.60722 5.60722 0 12.5 0C19.3928 0 25 5.60722 25 12.5C25 19.3928 19.3928 25 12.5 25ZM12.5 1.5625C6.46877 1.5625 1.5625 6.46877 1.5625 12.5C1.5625 18.5312 6.46877 23.4375 12.5 23.4375C18.5312 23.4375 23.4375 18.5312 23.4375 12.5C23.4375 6.46877 18.5312 1.5625 12.5 1.5625Z" fill="#04183A"/>
<path d="M17.9688 19.2709C17.7687 19.2709 17.5688 19.1948 17.4166 19.0417L11.9478 13.5729C11.801 13.426 11.7188 13.2271 11.7188 13.0209V5.72913C11.7188 5.29787 12.0687 4.94788 12.5 4.94788C12.9313 4.94788 13.2812 5.29787 13.2812 5.72913V12.6969L18.5209 17.9365C18.8261 18.2417 18.8261 18.7365 18.5209 19.0417C18.3687 19.1948 18.1688 19.2709 17.9688 19.2709Z" fill="#04183A"/>
</svg>
