<svg width="38" height="38" viewBox="0 0 38 38" fill="none" xmlns="http://www.w3.org/2000/svg">
<g clip-path="url(#clip0_122_220)">
<path d="M19.2924 37.6308C8.98505 37.6308 0.600098 29.2458 0.600098 18.9385C0.600098 8.63111 8.98505 0.246155 19.2924 0.246155C29.5998 0.246155 37.9847 8.63111 37.9847 18.9385C37.9847 29.2458 29.5998 37.6308 19.2924 37.6308ZM19.2924 2.58269C10.2734 2.58269 2.93664 9.91946 2.93664 18.9385C2.93664 27.9575 10.2734 35.2942 19.2924 35.2942C28.3114 35.2942 35.6482 27.9575 35.6482 18.9385C35.6482 9.91946 28.3114 2.58269 19.2924 2.58269Z" fill="white"/>
<path d="M27.4703 29.0635C27.1711 29.0635 26.8722 28.9497 26.6446 28.7207L18.4667 20.5428C18.2471 20.3232 18.1241 20.0257 18.1241 19.7174V8.81335C18.1241 8.16846 18.6475 7.64508 19.2924 7.64508C19.9373 7.64508 20.4607 8.16846 20.4607 8.81335V19.2328L28.296 27.0681C28.7524 27.5245 28.7524 28.2643 28.296 28.7207C28.0684 28.9497 27.7695 29.0635 27.4703 29.0635Z" fill="white"/>
</g>
<defs>
<clipPath id="clip0_122_220">
<rect width="37.3846" height="37.3846" fill="white" transform="translate(0.600098 0.246155)"/>
</clipPath>
</defs>
</svg>
