<svg width="113" height="107" viewBox="0 0 113 107" fill="none" xmlns="http://www.w3.org/2000/svg">
<path d="M104.93 38.4938H103.041C100.312 31.3245 95.671 24.8347 89.4438 19.5866V19.5397C88.5108 16.2831 89.2105 12.7922 91.4729 9.16072C92.639 7.2864 92.709 5.01379 91.6361 3.09262C90.5866 1.19488 88.6041 0 86.4584 0C86.2019 0 85.9453 0.0234289 85.7121 0.0468579C77.0592 1.12459 71.8815 5.08408 68.8962 8.76243C63.7185 7.33326 58.3542 6.60696 52.8966 6.60696C38.8328 6.60696 25.6087 11.4333 15.6264 20.1958C5.55088 29.0519 0 40.8601 0 53.4414C0 56.6981 0.373168 59.9547 1.14283 63.141C1.14283 63.1879 1.16615 63.2582 1.18947 63.305C1.18947 63.305 1.2128 63.3519 1.23612 63.4456C2.0291 66.6554 3.19525 69.7948 4.71125 72.7703C7.20681 78.2293 10.2155 82.7745 13.5973 86.2888C18.4019 91.2558 19.2182 97.5347 19.3348 100.065V101.541C19.3348 101.658 19.3348 101.775 19.3581 101.869C19.638 104.751 22.0869 106.977 24.9789 106.977H42.3546C45.4566 106.977 47.9988 104.423 47.9988 101.307V100.135C50.7042 100.346 53.433 100.393 56.1618 100.252V101.33C56.1618 104.446 58.704 107 61.806 107H79.1816C82.2836 107 84.8258 104.446 84.8258 101.33V97.0661C84.8491 96.0587 85.2456 91.2792 89.747 87.1557C89.9569 86.9683 90.1901 86.7808 90.4 86.5934L90.4466 86.5465C90.4933 86.4997 90.5633 86.4528 90.6099 86.406C96.4407 81.1579 100.802 74.7618 103.321 67.7799H104.954C109.385 67.7799 113 64.1485 113 59.697V46.6705C112.977 42.1252 109.362 38.4938 104.93 38.4938ZM107.379 59.6032C107.379 60.9621 106.283 62.0633 104.93 62.0633H101.292C100.056 62.0633 98.9829 62.8599 98.6097 64.0547C96.534 70.8491 92.4291 77.1281 86.7616 82.2122L86.6916 82.2825L86.0619 82.8448C86.0386 82.8682 86.0153 82.8916 85.992 82.8916C79.8813 88.4677 79.2516 95.0278 79.205 96.9021V101.283C79.205 101.307 79.1816 101.33 79.1583 101.33H61.7827C61.7593 101.33 61.736 101.307 61.736 101.283V97.1833C61.736 96.3867 61.4095 95.637 60.8031 95.0981C60.29 94.6295 59.6136 94.3718 58.9373 94.3718C58.844 94.3718 58.7507 94.3718 58.6341 94.3952C56.7216 94.6061 54.7858 94.6998 52.8733 94.6998C50.4244 94.6998 47.9521 94.5358 45.5498 94.2078C44.7569 94.0907 43.9406 94.3484 43.3342 94.8872C42.7278 95.4261 42.3779 96.1993 42.3779 96.9958V101.283C42.3779 101.307 42.3546 101.33 42.3313 101.33H24.9556C24.9323 101.33 24.909 101.307 24.909 101.283V99.8542C24.769 96.7147 23.7895 88.7489 17.5856 82.3528C14.6235 79.2836 11.9647 75.2538 9.70237 70.3571C9.67905 70.3103 9.67905 70.2868 9.65573 70.2634C8.32632 67.6394 7.27678 64.8982 6.60041 62.0867C6.60041 62.0633 6.57709 62.0399 6.57709 62.0164V61.9696C5.90072 59.1815 5.5742 56.3232 5.5742 53.4883C5.5742 30.7622 26.7981 12.2533 52.8733 12.2533C58.4475 12.2533 63.8817 13.0968 69.0594 14.7368C70.2489 15.1117 71.5317 14.6665 72.2314 13.6356C74.3071 10.543 78.4353 6.67725 86.3651 5.66981C86.5517 5.64638 86.6683 5.76352 86.715 5.85724C86.8083 6.02124 86.7383 6.16181 86.6916 6.20867C83.5897 11.1756 82.6801 16.33 84.0328 21.1095C84.0328 21.1329 84.0561 21.1798 84.0561 21.2032C84.0795 22.0232 84.4526 22.7964 85.1057 23.3118C91.4495 28.4662 96.0442 35.0028 98.3998 42.219C98.773 43.367 99.8458 44.1636 101.059 44.1636H104.907C106.26 44.1636 107.356 45.2647 107.356 46.6236V59.6032H107.379Z" fill="#F4D805"/>
<path d="M55.9289 50.63H49.6783C47.4393 50.63 45.6201 48.8026 45.6201 46.5534C45.6201 44.3042 47.4393 42.4767 49.6783 42.4767H60.7334C62.2727 42.4767 63.5322 41.2116 63.5322 39.6653C63.5322 38.119 62.2727 36.8538 60.7334 36.8538H55.6257V33.0817C55.6257 31.5354 54.3662 30.2703 52.8269 30.2703C51.2876 30.2703 50.0281 31.5354 50.0281 33.0817V36.8538H49.7016C44.384 36.8538 40.0459 41.2116 40.0459 46.5534C40.0459 51.8952 44.384 56.253 49.7016 56.253H55.9522C58.1912 56.253 60.0104 58.0804 60.0104 60.3296C60.0104 62.5788 58.1912 64.4062 55.9522 64.4062H44.7105C43.1712 64.4062 41.9117 65.6714 41.9117 67.2177C41.9117 68.764 43.1712 70.0292 44.7105 70.0292H50.0281V73.8715C50.0281 75.4178 51.2876 76.683 52.8269 76.683C54.3662 76.683 55.6257 75.4178 55.6257 73.8715V70.0292H56.0921C61.3631 69.9589 65.6312 65.6245 65.6312 60.3296C65.5846 54.9878 61.2465 50.63 55.9289 50.63Z" fill="#F4D805"/>
</svg>
