<svg width="112" height="112" viewBox="0 0 112 112" fill="none" xmlns="http://www.w3.org/2000/svg">
<path d="M56.0001 32.6667C38.3377 32.6667 26.6221 17.9813 26.6221 8.26583C26.6221 5.88 27.3512 3.85 28.7249 2.39458C29.7544 1.30083 31.6881 0 35.0012 0C41.8988 0 45.3694 7.17208 49.0442 14.7671C51.4941 19.8246 54.0256 25.0629 57.648 28.6825C58.3158 29.3504 58.5171 30.3537 58.1525 31.2258C57.7967 32.0979 56.9422 32.6667 56.0001 32.6667ZM35.0012 4.66667C33.6713 4.66667 32.7001 4.97875 32.1139 5.60292C31.4314 6.32625 31.2885 7.45208 31.2885 8.26292C31.2885 14.1983 38.676 24.8821 50.6571 27.4342C48.3559 24.0625 46.5273 20.2708 44.8415 16.8C41.6917 10.29 38.9735 4.66667 35.0012 4.66667Z" fill="#F4D805"/>
<path d="M56 32.6667C55.0579 32.6667 54.2034 32.0979 53.8447 31.2229C53.4801 30.3508 53.6814 29.3475 54.3492 28.6796C57.9716 25.06 60.5031 19.8217 62.953 14.7642C66.6307 7.17208 70.1013 0 76.9989 0C80.3121 0 82.2428 1.30083 83.2752 2.3975C84.6518 3.85292 85.378 5.88292 85.378 8.26875C85.378 17.9812 73.6624 32.6667 56 32.6667ZM76.9989 4.66667C73.0266 4.66667 70.3055 10.29 67.1586 16.8C65.4728 20.2767 63.6442 24.0596 61.343 27.44C73.3212 24.8879 80.7116 14.2042 80.7116 8.26875C80.7116 7.45208 80.5658 6.32625 79.8804 5.60292C79.3 4.97875 78.3288 4.66667 76.9989 4.66667Z" fill="#F4D805"/>
<path d="M21.0016 84.0001H2.33587C1.6884 84.0001 1.06718 83.7288 0.623872 83.2534C0.180561 82.7722 -0.0440102 82.1392 0.00848705 81.4888L2.85209 44.5434C4.00703 29.5401 15.1189 16.9955 29.8794 14.0467C31.1481 13.7813 32.376 14.6126 32.6239 15.8755C32.8747 17.1413 32.0581 18.3663 30.7952 18.6201C18.0792 21.1634 8.50429 31.9726 7.50685 44.908L4.85573 79.3334H21.0016C22.2877 79.3334 23.3348 80.3805 23.3348 81.6667C23.3348 82.953 22.2877 84.0001 21.0016 84.0001Z" fill="#F4D805"/>
<path d="M90.9975 98H21.0012C19.715 98 18.668 96.9529 18.668 95.6666V49C18.668 47.7137 19.715 46.6666 21.0012 46.6666C22.2874 46.6666 23.3344 47.7137 23.3344 49V93.3333H88.6643V49C88.6643 47.7137 89.7114 46.6666 90.9975 46.6666C92.2837 46.6666 93.3307 47.7137 93.3307 49V95.6666C93.3307 96.9529 92.2837 98 90.9975 98Z" fill="#F4D805"/>
<path d="M81.6647 112H30.334C23.9031 112 18.668 106.765 18.668 100.333V95.6667C18.668 94.3805 19.715 93.3334 21.0012 93.3334H90.9975C92.2837 93.3334 93.3307 94.3805 93.3307 95.6667V100.333C93.3307 106.765 88.0956 112 81.6647 112ZM23.3344 98V100.333C23.3344 104.192 26.4755 107.333 30.334 107.333H81.6647C85.5232 107.333 88.6643 104.192 88.6643 100.333V98H23.3344Z" fill="#F4D805"/>
<path d="M21.0014 93.3334H11.6686C7.81003 93.3334 4.66895 90.1921 4.66895 86.3334V81.6667C4.66895 80.3805 5.71597 79.3334 7.00216 79.3334H21.0014C22.2876 79.3334 23.3346 80.3805 23.3346 81.6667V91C23.3346 92.2863 22.2876 93.3334 21.0014 93.3334ZM9.33537 84V86.3334C9.33537 87.6196 10.3824 88.6667 11.6686 88.6667H18.6682V84H9.33537Z" fill="#F4D805"/>
<path d="M109.663 84.0001H90.9976C89.7115 84.0001 88.6644 82.953 88.6644 81.6667C88.6644 80.3805 89.7115 79.3334 90.9976 79.3334H107.143L104.498 44.908C103.504 31.9755 93.9229 21.1692 81.2098 18.6259C79.9441 18.3751 79.1274 17.1472 79.3812 15.8813C79.632 14.6155 80.8423 13.7813 82.1256 14.0526C96.8861 17.0013 107.998 29.5459 109.153 44.5551L111.997 81.4947C112.049 82.1451 111.824 82.7838 111.381 83.2592C110.932 83.7288 110.311 84.0001 109.663 84.0001Z" fill="#F4D805"/>
<path d="M100.331 93.3334H90.9983C89.7121 93.3334 88.665 92.2863 88.665 91V81.6667C88.665 80.3805 89.7121 79.3334 90.9983 79.3334H104.998C106.284 79.3334 107.331 80.3805 107.331 81.6667V86.3334C107.331 90.1921 104.19 93.3334 100.331 93.3334ZM93.3315 88.6667H100.331C101.617 88.6667 102.664 87.6196 102.664 86.3334V84H93.3315V88.6667Z" fill="#F4D805"/>
<path d="M49.0002 46.6667C47.714 46.6667 46.667 45.6196 46.667 44.3333V30.3333C46.667 29.0471 47.714 28 49.0002 28C50.2864 28 51.3334 29.0471 51.3334 30.3333V44.3333C51.3334 45.6196 50.2864 46.6667 49.0002 46.6667Z" fill="#F4D805"/>
<path d="M62.9992 65.3333C61.713 65.3333 60.666 64.2862 60.666 63V30.3333C60.666 29.0471 61.713 28 62.9992 28C64.2854 28 65.3324 29.0471 65.3324 30.3333V63C65.3324 64.2862 64.2854 65.3333 62.9992 65.3333Z" fill="#F4D805"/>
<path d="M76.999 4.66667H35.0012C33.715 4.66667 32.668 3.61958 32.668 2.33333C32.668 1.04708 33.715 0 35.0012 0H76.999C78.2852 0 79.3322 1.04708 79.3322 2.33333C79.3322 3.61958 78.2852 4.66667 76.999 4.66667Z" fill="#F4D805"/>
</svg>
