<svg width="110" height="101" viewBox="0 0 110 101" fill="none" xmlns="http://www.w3.org/2000/svg">
<path d="M75.6253 87.2272H11.4587C10.1954 87.2272 9.16699 86.1972 9.16699 84.9318V16.0682C9.16699 14.8028 10.1954 13.7727 11.4587 13.7727H75.6253C76.8886 13.7727 77.917 14.8028 77.917 16.0682V84.9318C77.917 86.1972 76.8886 87.2272 75.6253 87.2272ZM13.7503 82.6363H73.3337V18.3636H13.7503V82.6363Z" fill="#F4D805"/>
<path d="M77.9167 18.3636H9.16667C4.11068 18.3636 0 14.2462 0 9.18182C0 4.11747 4.11068 0 9.16667 0H77.9167C82.9727 0 87.0833 4.11747 87.0833 9.18182C87.0833 14.2462 82.9727 18.3636 77.9167 18.3636ZM9.16667 4.59091C6.6401 4.59091 4.58333 6.65108 4.58333 9.18182C4.58333 11.7126 6.6401 13.7727 9.16667 13.7727H77.9167C80.4432 13.7727 82.5 11.7126 82.5 9.18182C82.5 6.65108 80.4432 4.59091 77.9167 4.59091H9.16667Z" fill="#F4D805"/>
<path d="M77.9167 101H9.16667C4.11068 101 0 96.8825 0 91.8182C0 86.7538 4.11068 82.6364 9.16667 82.6364H77.9167C82.9727 82.6364 87.0833 86.7538 87.0833 91.8182C87.0833 96.8825 82.9727 101 77.9167 101ZM9.16667 87.2273C6.6401 87.2273 4.58333 89.2874 4.58333 91.8182C4.58333 94.3489 6.6401 96.4091 9.16667 96.4091H77.9167C80.4432 96.4091 82.5 94.3489 82.5 91.8182C82.5 89.2874 80.4432 87.2273 77.9167 87.2273H9.16667Z" fill="#F4D805"/>
<path d="M75.6253 36.7273H11.4587C10.1954 36.7273 9.16699 35.6972 9.16699 34.4318C9.16699 33.1664 10.1954 32.1364 11.4587 32.1364H75.6253C76.8886 32.1364 77.917 33.1664 77.917 34.4318C77.917 35.6972 76.8886 36.7273 75.6253 36.7273Z" fill="#F4D805"/>
<path d="M107.708 84.9319C106.445 84.9319 105.417 83.9018 105.417 82.6364V34.4319C105.417 30.6358 102.332 27.5455 98.5417 27.5455C94.7518 27.5455 91.6667 30.6358 91.6667 34.4319V57.3864C91.6667 63.7133 86.5247 68.8637 80.2083 68.8637H71.0417C69.7784 68.8637 68.75 67.8336 68.75 66.5682C68.75 65.3029 69.7784 64.2728 71.0417 64.2728H80.2083C83.9982 64.2728 87.0833 61.1825 87.0833 57.3864V34.4319C87.0833 28.105 92.2253 22.9546 98.5417 22.9546C104.858 22.9546 110 28.105 110 34.4319V82.6364C110 83.9018 108.972 84.9319 107.708 84.9319Z" fill="#F4D805"/>
<path d="M74.4795 52.7955H11.4587C10.1954 52.7955 9.16699 51.7654 9.16699 50.5C9.16699 49.2347 10.1954 48.2046 11.4587 48.2046H74.4795C75.7428 48.2046 76.7712 49.2347 76.7712 50.5C76.7712 51.7654 75.7428 52.7955 74.4795 52.7955Z" fill="#F4D805"/>
<path d="M75.6253 68.8636H11.4587C10.1954 68.8636 9.16699 67.8335 9.16699 66.5682C9.16699 65.3028 10.1954 64.2727 11.4587 64.2727H75.6253C76.8886 64.2727 77.917 65.3028 77.917 66.5682C77.917 67.8335 76.8886 68.8636 75.6253 68.8636Z" fill="#F4D805"/>
</svg>
