<svg width="112" height="108" viewBox="0 0 112 108" fill="none" xmlns="http://www.w3.org/2000/svg">
<path d="M103.642 15.9352H75.8927V8.35256C75.8927 3.73299 72.1447 0 67.5352 0H8.33423C3.7248 0 0 3.75632 0 8.35256V99.6474C0 104.267 3.74808 108 8.33423 108H67.5352C72.1447 108 75.8927 104.244 75.8927 99.6474V88.2852H103.642C108.252 88.2852 112 84.5288 112 79.9326V24.3111C111.977 19.6915 108.229 15.9352 103.642 15.9352ZM95.4247 21.5347V82.6857H90.047V21.5347H95.4247ZM70.3056 99.6241C70.3056 101.141 69.0717 102.377 67.5352 102.377H8.33423C6.82104 102.377 5.5872 101.141 5.5872 99.6241V8.35256C5.5872 6.83603 6.82104 5.59948 8.33423 5.59948H67.5352C69.0484 5.59948 70.3056 6.83603 70.3056 8.35256V99.6241ZM75.8927 21.5347H84.4831V82.6857H75.8927V21.5347ZM106.39 79.9093C106.39 81.4258 105.156 82.6623 103.619 82.6623H101.012V21.5347H103.619C105.132 21.5347 106.39 22.7712 106.39 24.2878V79.9093Z" fill="#F4D805"/>
<path d="M21.9293 50.0687H53.9393C57.8736 50.0687 61.063 46.8723 61.063 42.9294V21.9546C61.063 18.0117 57.8736 14.8153 53.9393 14.8153H21.9293C17.995 14.8153 14.8057 18.0117 14.8057 21.9546V42.9294C14.8057 46.8723 17.995 50.0687 21.9293 50.0687ZM20.3929 21.9546C20.3929 21.0914 21.0913 20.4148 21.9293 20.4148H53.9393C54.8007 20.4148 55.4758 21.1147 55.4758 21.9546V42.9294C55.4758 43.7926 54.7774 44.4692 53.9393 44.4692H21.9293C21.068 44.4692 20.3929 43.7693 20.3929 42.9294V21.9546Z" fill="#F4D805"/>
<path d="M21.3008 61.6876H17.5993C16.0628 61.6876 14.8057 62.9475 14.8057 64.4874C14.8057 66.0272 16.0628 67.2871 17.5993 67.2871H21.3008C22.8373 67.2871 24.0944 66.0272 24.0944 64.4874C24.0944 62.9475 22.8373 61.6876 21.3008 61.6876Z" fill="#F4D805"/>
<path d="M39.7851 61.6876H36.0836C34.5472 61.6876 33.29 62.9475 33.29 64.4874C33.29 66.0272 34.5472 67.2871 36.0836 67.2871H39.7851C41.3216 67.2871 42.5787 66.0272 42.5787 64.4874C42.5787 62.9475 41.3216 61.6876 39.7851 61.6876Z" fill="#F4D805"/>
<path d="M58.293 61.6876H54.5915C53.055 61.6876 51.7979 62.9475 51.7979 64.4874C51.7979 66.0272 53.055 67.2871 54.5915 67.2871H58.293C59.8295 67.2871 61.0866 66.0272 61.0866 64.4874C61.0866 62.9475 59.8295 61.6876 58.293 61.6876Z" fill="#F4D805"/>
<path d="M21.3008 74.3331H17.5993C16.0628 74.3331 14.8057 75.593 14.8057 77.1329C14.8057 78.6727 16.0628 79.9326 17.5993 79.9326H21.3008C22.8373 79.9326 24.0944 78.6727 24.0944 77.1329C24.0944 75.593 22.8373 74.3331 21.3008 74.3331Z" fill="#F4D805"/>
<path d="M39.7851 74.3331H36.0836C34.5472 74.3331 33.29 75.593 33.29 77.1329C33.29 78.6727 34.5472 79.9326 36.0836 79.9326H39.7851C41.3216 79.9326 42.5787 78.6727 42.5787 77.1329C42.5787 75.593 41.3216 74.3331 39.7851 74.3331Z" fill="#F4D805"/>
<path d="M58.293 74.3331H54.5915C53.055 74.3331 51.7979 75.593 51.7979 77.1329C51.7979 78.6727 53.055 79.9326 54.5915 79.9326H58.293C59.8295 79.9326 61.0866 78.6727 61.0866 77.1329C61.0866 75.593 59.8295 74.3331 58.293 74.3331Z" fill="#F4D805"/>
<path d="M21.3008 86.9786H17.5993C16.0628 86.9786 14.8057 88.2385 14.8057 89.7784C14.8057 91.3182 16.0628 92.5781 17.5993 92.5781H21.3008C22.8373 92.5781 24.0944 91.3182 24.0944 89.7784C24.0944 88.2385 22.8373 86.9786 21.3008 86.9786Z" fill="#F4D805"/>
<path d="M39.7851 86.9786H36.0836C34.5472 86.9786 33.29 88.2385 33.29 89.7784C33.29 91.3182 34.5472 92.5781 36.0836 92.5781H39.7851C41.3216 92.5781 42.5787 91.3182 42.5787 89.7784C42.5787 88.2385 41.3216 86.9786 39.7851 86.9786Z" fill="#F4D805"/>
<path d="M58.293 86.9786H54.5915C53.055 86.9786 51.7979 88.2385 51.7979 89.7784C51.7979 91.3182 53.055 92.5781 54.5915 92.5781H58.293C59.8295 92.5781 61.0866 91.3182 61.0866 89.7784C61.0866 88.2385 59.8295 86.9786 58.293 86.9786Z" fill="#F4D805"/>
</svg>
