<svg width="110" height="120" viewBox="0 0 110 120" fill="none" xmlns="http://www.w3.org/2000/svg">
<path d="M109.95 28.431C109.95 27.9773 109.849 27.5236 109.647 27.0951C109.243 26.2382 108.462 25.6584 107.604 25.482L56.2357 0.579679C55.4035 0.176403 54.42 0.176403 53.5878 0.579679L1.71481 25.7089C0.706098 26.1877 0.0504356 27.1959 0 28.3302V91.5186C0 92.678 0.655663 93.7366 1.71481 94.2407L53.5878 119.37C53.613 119.37 53.613 119.37 53.6382 119.395C53.7139 119.42 53.7896 119.445 53.8652 119.496C53.8904 119.496 53.9156 119.521 53.9661 119.521L54.193 119.597C54.2183 119.597 54.2435 119.622 54.2687 119.622C54.3443 119.647 54.4452 119.647 54.5209 119.672H54.5965C54.6974 119.672 54.8235 119.698 54.9244 119.698C55.0252 119.698 55.1513 119.698 55.2522 119.672H55.3278C55.4035 119.672 55.5044 119.647 55.58 119.622C55.6052 119.622 55.6304 119.597 55.6557 119.597L55.8826 119.521C55.9078 119.521 55.9331 119.496 55.9835 119.496C56.0592 119.471 56.1348 119.445 56.2105 119.395C56.2357 119.395 56.2357 119.395 56.2609 119.37L108.285 94.1651C109.319 93.661 110 92.6024 110 91.4429V28.5066C109.95 28.4814 109.95 28.4562 109.95 28.431ZM54.8991 6.65403L99.8877 28.4562L83.3196 36.4965L38.331 14.6944L54.8991 6.65403ZM54.8991 50.2583L9.91059 28.4562L31.3961 18.0466L76.3847 39.8487L54.8991 50.2583ZM6.05227 33.3207L51.873 55.5261V111.808L6.05227 89.603V33.3207ZM57.9253 111.808V55.5261L79.436 45.0913V59.8109C79.436 61.4744 80.7978 62.8355 82.4622 62.8355C84.1265 62.8355 85.4883 61.4744 85.4883 59.8109V42.1424L103.897 33.2199V89.5022L57.9253 111.808Z" fill="#F4D805"/>
</svg>
