<svg width="110" height="110" viewBox="0 0 110 110" fill="none" xmlns="http://www.w3.org/2000/svg">
<path d="M107.692 32.0833H6.87393C3.08467 32.0833 0 28.9982 0 25.2083V6.875C0 3.08516 3.08467 0 6.87393 0H98.5263C104.845 0 109.983 5.14193 109.983 11.4583V29.7917C109.983 31.0549 108.955 32.0833 107.692 32.0833ZM6.87393 4.58333C5.61371 4.58333 4.58262 5.61172 4.58262 6.875V25.2083C4.58262 26.4716 5.61371 27.5 6.87393 27.5H105.4V11.4583C105.4 7.66849 102.316 4.58333 98.5263 4.58333H6.87393Z" fill="#F4D805"/>
<path d="M16.0392 32.0833H6.87393C3.08467 32.0833 0 28.9982 0 25.2083V6.875C0 3.08516 3.08467 0 6.87393 0H16.0392C17.3022 0 18.3305 1.02839 18.3305 2.29167V29.7917C18.3305 31.0549 17.3022 32.0833 16.0392 32.0833ZM6.87393 4.58333C5.61371 4.58333 4.58262 5.61172 4.58262 6.875V25.2083C4.58262 26.4716 5.61371 27.5 6.87393 27.5H13.7479V4.58333H6.87393Z" fill="#F4D805"/>
<path d="M103.109 110H61.8657C55.5474 110 50.4092 104.858 50.4092 98.5416V80.2083C50.4092 78.945 51.4374 77.9166 52.7005 77.9166H103.109C106.899 77.9166 109.983 81.0018 109.983 84.7916V103.125C109.983 106.915 106.899 110 103.109 110ZM54.9918 82.5V98.5416C54.9918 102.331 58.0765 105.417 61.8657 105.417H103.109C104.37 105.417 105.401 104.388 105.401 103.125V84.7916C105.401 83.5283 104.37 82.5 103.109 82.5H54.9918Z" fill="#F4D805"/>
<path d="M38.9524 13.75C37.6894 13.75 36.6611 12.7216 36.6611 11.4583V2.29167C36.6611 1.02839 37.6894 0 38.9524 0C40.2155 0 41.2437 1.02839 41.2437 2.29167V11.4583C41.2437 12.7216 40.2155 13.75 38.9524 13.75Z" fill="#F4D805"/>
<path d="M61.8655 13.75C60.6024 13.75 59.5742 12.7216 59.5742 11.4583V2.29167C59.5742 1.02839 60.6024 0 61.8655 0C63.1286 0 64.1568 1.02839 64.1568 2.29167V11.4583C64.1568 12.7216 63.1286 13.75 61.8655 13.75Z" fill="#F4D805"/>
<path d="M84.7786 13.75C83.5155 13.75 82.4873 12.7216 82.4873 11.4583V2.29167C82.4873 1.02839 83.5155 0 84.7786 0C86.0417 0 87.0699 1.02839 87.0699 2.29167V11.4583C87.0699 12.7216 86.0417 13.75 84.7786 13.75Z" fill="#F4D805"/>
<path d="M71.0306 91.6666C69.7675 91.6666 68.7393 90.6382 68.7393 89.375V80.2083C68.7393 78.945 69.7675 77.9166 71.0306 77.9166C72.2937 77.9166 73.3219 78.945 73.3219 80.2083V89.375C73.3219 90.6382 72.2937 91.6666 71.0306 91.6666Z" fill="#F4D805"/>
<path d="M89.3606 91.6666C88.0976 91.6666 87.0693 90.6382 87.0693 89.375V80.2083C87.0693 78.945 88.0976 77.9166 89.3606 77.9166C90.6237 77.9166 91.6519 78.945 91.6519 80.2083V89.375C91.6519 90.6382 90.6237 91.6666 89.3606 91.6666Z" fill="#F4D805"/>
<path d="M52.6999 82.5C52.4392 82.5 52.1786 82.4542 51.918 82.3625C50.7265 81.9328 50.1107 80.618 50.546 79.4263L68.8908 29.0096C69.3262 27.818 70.6322 27.2078 71.8294 27.6375C73.0209 28.0672 73.6338 29.382 73.1985 30.5737L54.8537 80.9904C54.5157 81.9214 53.6364 82.5 52.6999 82.5Z" fill="#F4D805"/>
<path d="M89.361 82.5C89.1004 82.5 88.8397 82.4542 88.5791 82.3625C87.3876 81.9328 86.7718 80.618 87.2072 79.4263L105.552 29.0096C105.987 27.818 107.302 27.2078 108.491 27.6375C109.682 28.0672 110.298 29.382 109.86 30.5737L91.5148 80.9904C91.1769 81.9214 90.2976 82.5 89.361 82.5Z" fill="#F4D805"/>
</svg>
