<svg width="70" height="66" viewBox="0 0 70 66" fill="none" xmlns="http://www.w3.org/2000/svg">
<path d="M65.14 0.496094H39.9673C39.4009 0.496094 38.942 0.955035 38.942 1.52143C38.942 2.08783 39.4009 2.54677 39.9673 2.54677H65.14C66.6891 2.54677 67.9495 3.80712 67.9495 5.3562V31.7595C67.9495 33.3086 66.6891 34.5689 65.14 34.5689H61.1194C60.9033 34.5689 60.6928 34.6371 60.518 34.7639L53.5264 39.8278V35.5943C53.5264 35.0279 53.0674 34.5689 52.501 34.5689H30.2457C28.6965 34.5689 27.4363 33.3086 27.4363 31.7595V5.3562C27.4363 3.80712 28.6966 2.54677 30.2457 2.54677H35.4996C36.066 2.54677 36.5249 2.08783 36.5249 1.52143C36.5249 0.955035 36.066 0.496094 35.4996 0.496094H30.2457C27.5658 0.496094 25.3856 2.67624 25.3856 5.3562V31.7595C25.3856 34.4394 27.5659 36.6196 30.2457 36.6196H51.4757V41.8365C51.4757 42.2218 51.6917 42.5745 52.0349 42.7498C52.3985 42.9231 52.7544 42.8955 53.1026 42.667L61.4517 36.6197H65.14C67.82 36.6197 70.0001 34.4396 70.0001 31.7596V5.3562C70.0001 2.67637 67.8199 0.496094 65.14 0.496094Z" fill="#003970"/>
<path d="M59.5511 54.6921C59.3373 53.1639 58.4378 51.8647 57.0807 51.1253L52.5211 48.6411C52.0239 48.3697 51.4011 48.5534 51.1302 49.0511C50.8595 49.5483 51.043 50.171 51.5403 50.4418L56.0994 52.9259C56.8795 53.3508 57.3964 54.097 57.52 54.9745C57.5206 54.9801 57.5213 54.9857 57.5221 54.9912C57.6418 55.8776 57.34 56.7423 56.6948 57.3627L56.0227 58.008L39.1899 48.5365L41.1681 46.7964C42.0121 46.0539 43.2405 45.9168 44.2261 46.4552L47.0711 48.0056C47.5683 48.2765 48.191 48.0933 48.4621 47.5959C48.7329 47.0987 48.5497 46.476 48.0524 46.2049L45.2081 44.6548C43.4699 43.7058 41.3018 43.9474 39.8139 45.2565L35.2038 49.3115C34.2595 50.142 32.8813 50.2191 31.8526 49.4985C24.9087 44.6339 19.8661 39.2822 16.4366 33.1382C15.8583 32.1009 16.0199 30.8215 16.8384 29.9549L20.4875 26.0954C21.8482 24.6547 22.1671 22.4965 21.2812 20.7247L15.1404 8.44303C14.4563 7.07304 13.1999 6.12932 11.6935 5.85371C10.1861 5.57755 8.67611 6.01598 7.55015 7.05568L5.21785 9.21039C2.63973 11.5919 0.933572 14.6718 0.283917 18.1166C-0.366968 21.5672 0.106739 25.048 1.65363 28.1839C1.66047 28.1984 1.66689 28.211 1.67223 28.2214C2.65245 30.2037 3.71238 32.1422 4.82056 33.9797C5.00553 34.2889 5.205 34.6157 5.41307 34.951C5.71179 35.432 6.3438 35.5799 6.82503 35.2813C7.30612 34.9826 7.45404 34.3505 7.15546 33.8694C6.95327 33.5436 6.75968 33.2264 6.57854 32.9237C5.49906 31.1338 4.46798 29.2482 3.51387 27.3194C3.50854 27.3082 3.50307 27.2972 3.49746 27.2863C0.802055 21.8324 2.00635 15.1405 6.41079 10.9078L15.6576 28.2191L15.3479 28.5466C13.9112 30.0674 13.6289 32.3141 14.6456 34.1375C18.2295 40.5581 23.473 46.1321 30.676 51.1783C31.5029 51.7573 32.4578 52.043 33.4095 52.043C34.5369 52.043 35.6596 51.6416 36.5582 50.8513L37.5585 49.9714L54.4777 59.4915L54.4606 59.5079C50.0995 63.6978 43.5665 64.6514 38.2044 61.8805C26.5817 55.8729 17.1332 47.9313 10.1214 38.277C9.78853 37.8187 9.14735 37.7169 8.68923 38.0499C8.23097 38.3828 8.1294 39.0238 8.46215 39.4821C15.6636 49.3975 25.3534 57.5465 37.2626 63.7026C39.6067 64.9139 42.1452 65.5039 44.667 65.5039C48.7526 65.5039 52.793 63.954 55.8809 60.9873L58.1153 58.8417C59.2298 57.77 59.7548 56.2805 59.5586 54.7502C59.5567 54.7306 59.5541 54.7115 59.5511 54.6921ZM7.96466 9.46454L8.9416 8.5621C9.58907 7.96426 10.4572 7.71258 11.3244 7.87089C12.1903 8.02934 12.9125 8.57181 13.306 9.35982L19.4471 21.642C19.9494 22.6466 19.7684 23.8704 18.997 24.687L17.1431 26.6478L7.96466 9.46454Z" fill="#003970"/>
<path d="M61.7348 19.5297C61.7348 17.5547 60.128 15.9479 58.1531 15.9479C56.1783 15.9479 54.5715 17.5547 54.5715 19.5297C54.5715 21.5045 56.1783 23.1112 58.1531 23.1112C60.128 23.1112 61.7348 21.5045 61.7348 19.5297ZM56.6221 19.5297C56.6221 18.6855 57.3088 17.9986 58.153 17.9986C58.9972 17.9986 59.684 18.6855 59.684 19.5297C59.684 20.3738 58.9972 21.0606 58.153 21.0606C57.3088 21.0606 56.6221 20.3738 56.6221 19.5297Z" fill="#003970"/>
<path d="M51.2746 19.5297C51.2746 17.5547 49.6678 15.9479 47.693 15.9479C45.7181 15.9479 44.1113 17.5547 44.1113 19.5297C44.1113 21.5045 45.7181 23.1112 47.693 23.1112C49.6678 23.1112 51.2746 21.5045 51.2746 19.5297ZM46.1619 19.5297C46.1619 18.6855 46.8487 17.9986 47.6929 17.9986C48.5371 17.9986 49.2238 18.6855 49.2238 19.5297C49.2238 20.3738 48.5371 21.0606 47.6929 21.0606C46.8487 21.0606 46.1619 20.3738 46.1619 19.5297Z" fill="#003970"/>
<path d="M33.6514 19.5297C33.6514 21.5045 35.258 23.1112 37.2331 23.1112C39.2082 23.1112 40.8148 21.5045 40.8148 19.5297C40.8148 17.5547 39.208 15.9479 37.2331 15.9479C35.2581 15.9479 33.6514 17.5547 33.6514 19.5297ZM37.2331 17.9986C38.0773 17.9986 38.7641 18.6855 38.7641 19.5297C38.7641 20.3738 38.0773 21.0606 37.2331 21.0606C36.3889 21.0606 35.7022 20.3738 35.7022 19.5297C35.7022 18.6855 36.3889 17.9986 37.2331 17.9986Z" fill="#003970"/>
</svg>
