<svg width="70" height="70" viewBox="0 0 70 70" fill="none" xmlns="http://www.w3.org/2000/svg">
<path d="M66.9177 0H53.2821C52.7145 0 52.2546 0.459922 52.2546 1.02744C52.2546 1.59496 52.7145 2.05488 53.2821 2.05488H66.9177C67.4843 2.05488 67.9451 2.51576 67.9451 3.08232V23.7614C67.9451 24.328 67.4843 24.7889 66.9177 24.7889H38.6485V24.2949C38.6485 22.2906 37.018 20.6603 35.0138 20.6603C33.0097 20.6603 31.3792 22.2908 31.3792 24.2949V24.7889H20.9135C20.3461 24.7889 19.886 25.2488 19.886 25.8163C19.886 26.3838 20.3461 26.8438 20.9135 26.8438H31.3792V44.9497L28.9389 42.2148C27.4325 40.5266 25.271 39.5583 23.0086 39.5583C22.1654 39.5583 21.4049 39.9911 20.9741 40.7159C20.5433 41.4408 20.5268 42.3158 20.9299 43.0564L25.0216 50.5731C26.0359 52.4364 27.3297 54.1231 28.867 55.5859L33.2275 59.7349V61.9358C32.1609 62.1574 31.3572 63.1042 31.3572 64.2355V67.6512C31.3572 68.9464 32.4109 70.0001 33.7061 70.0001H49.9055C51.2008 70.0001 52.2546 68.9464 52.2546 67.6512V64.2355C52.2546 63.1287 51.4842 62.2006 50.4521 61.9533V59.6694C51.3885 58.4881 54.292 54.1531 54.292 45.8254V39.55C54.292 37.5458 52.6615 35.9155 50.6573 35.9155C49.9876 35.9155 49.3595 36.0976 48.82 36.4149C48.2844 35.0741 46.9725 34.1242 45.4427 34.1242C44.773 34.1242 44.145 34.3063 43.6055 34.6236C43.07 33.2828 41.758 32.3329 40.2283 32.3329C39.6624 32.3329 39.1263 32.4628 38.6484 32.6945V26.844H66.9176C68.6171 26.844 69.9998 25.4613 69.9998 23.7619V3.08219C69.9999 1.38264 68.6173 0 66.9177 0V0ZM40.2284 34.3872C41.0996 34.3872 41.8084 35.096 41.8084 35.9671V37.7586C41.8084 38.3261 42.2683 38.786 42.8358 38.786C43.4033 38.786 43.8632 38.3261 43.8632 37.7586C43.8632 36.8874 44.572 36.1787 45.4432 36.1787C46.3142 36.1787 47.0229 36.8874 47.0229 37.7586V39.5499C47.0229 40.1174 47.4829 40.5773 48.0504 40.5773C48.6179 40.5773 49.0778 40.1174 49.0778 39.5499C49.0778 38.6787 49.7866 37.9701 50.6577 37.9701C51.5289 37.9701 52.2377 38.6787 52.2377 39.5499V45.8253C52.2377 54.6521 48.7116 58.5529 48.6796 58.5874C48.4985 58.7781 48.3976 59.0312 48.3976 59.2942V61.8863H45.9155C45.348 61.8863 44.8881 62.3462 44.8881 62.9137C44.8881 63.4813 45.348 63.9412 45.9155 63.9412H49.9057C50.0679 63.9412 50.2 64.0732 50.2 64.2355V67.6512C50.2 67.8135 50.0679 67.9454 49.9057 67.9454H33.7061C33.5438 67.9454 33.4119 67.8135 33.4119 67.6512V64.2355C33.4119 64.0732 33.5438 63.9412 33.7061 63.9412H41.8059C42.3734 63.9412 42.8333 63.4813 42.8333 62.9137C42.8333 62.3462 42.3734 61.8863 41.8059 61.8863H35.2824V59.2942C35.2824 59.0129 35.167 58.7439 34.9631 58.5499L30.2834 54.0971C28.9013 52.7821 27.7382 51.2658 26.8263 49.5905L22.7346 42.0738C22.6379 41.8146 22.7344 41.6521 23.0084 41.6129C24.686 41.6129 26.2886 42.3307 27.4054 43.5825L31.6007 48.2843C32.1959 48.9846 33.4624 48.5379 33.4336 47.6003V24.2949C33.4336 23.4237 34.1424 22.715 35.0136 22.715C35.8846 22.715 36.5934 23.4237 36.5934 24.2949V35.9671C36.5934 36.5347 37.0533 36.9946 37.6208 36.9946C38.1883 36.9946 38.6482 36.5347 38.6482 35.9671C38.6485 35.096 39.3573 34.3872 40.2284 34.3872Z" fill="#003970"/>
<path d="M16.804 24.7887H3.08219C2.51562 24.7887 2.05475 24.3279 2.05475 23.7613V3.08219C2.05475 2.51562 2.51562 2.05475 3.08219 2.05475H49.1725C49.7401 2.05475 50.2 1.59482 50.2 1.0273C50.2 0.459785 49.7401 0 49.1725 0H3.08219C1.38264 0 0 1.38264 0 3.08219V23.7613C0 25.4607 1.38264 26.8435 3.08219 26.8435H16.804C17.3713 26.8435 17.8314 26.3836 17.8314 25.8161C17.8314 25.2485 17.3715 24.7887 16.804 24.7887Z" fill="#003970"/>
<path d="M41.7612 12.65C42.3648 12.0617 42.5781 11.1982 42.3175 10.3965C42.0571 9.59476 41.3769 9.02136 40.5426 8.90009L38.1505 8.55255C38.1036 8.54572 38.063 8.51632 38.0419 8.4738L36.9719 6.30599C36.599 5.55007 35.8436 5.08044 35.0005 5.08044C34.1575 5.08044 33.4019 5.54994 33.0288 6.30599L31.9589 8.47394C31.9378 8.51632 31.8974 8.54585 31.8507 8.55255L29.458 8.90009C28.6238 9.02136 27.9437 9.59476 27.6833 10.3965C27.4228 11.1982 27.636 12.0617 28.2396 12.65L29.9709 14.3377C30.0048 14.3708 30.0202 14.4182 30.0121 14.465L29.6035 16.8477C29.461 17.6784 29.7961 18.5024 30.4781 18.9979C31.16 19.4935 32.0473 19.5576 32.7935 19.1653L34.9335 18.0403C34.9753 18.0181 35.0253 18.0181 35.0672 18.0403L37.2072 19.1653C37.5318 19.3358 37.8829 19.4202 38.2324 19.4202C38.6863 19.4202 39.1373 19.2779 39.5227 18.9979C40.2045 18.5024 40.5396 17.6784 40.397 16.8477L39.9885 14.465C39.9804 14.4183 39.9959 14.3708 40.0298 14.3377L41.7612 12.65ZM38.5956 12.8664C38.0773 13.3716 37.8409 14.0991 37.9634 14.8124L38.3721 17.1954C38.376 17.2194 38.3871 17.2834 38.3148 17.3358C38.2427 17.3883 38.1848 17.3579 38.1633 17.3467L36.0235 16.2218C35.7031 16.0532 35.3518 15.9691 35.0003 15.9691C34.649 15.9691 34.2976 16.0533 33.9773 16.2217L31.8375 17.3467C31.8159 17.3579 31.7583 17.3885 31.6859 17.3358C31.6135 17.2833 31.6245 17.2193 31.6287 17.1952L32.0374 14.8124C32.1597 14.099 31.9233 13.3715 31.405 12.8664L29.6739 11.1789C29.6564 11.1618 29.6099 11.1164 29.6374 11.0315C29.665 10.9465 29.7294 10.9371 29.7535 10.9336L32.1462 10.5861C32.8625 10.4819 33.4811 10.0321 33.8013 9.38339L34.8713 7.21558C34.8821 7.19357 34.9108 7.13546 35.0002 7.13546C35.0896 7.13546 35.1182 7.19371 35.1291 7.21558L36.1991 9.38326C36.5191 10.0323 37.1381 10.4819 37.8546 10.5862L40.2469 10.9338C40.2711 10.9373 40.3355 10.9466 40.363 11.0317C40.3906 11.1166 40.3441 11.162 40.3266 11.1791L38.5956 12.8664Z" fill="#003970"/>
<path d="M19.9119 16.8478L19.5032 14.4651C19.4952 14.4185 19.5106 14.3709 19.5447 14.3378L21.2758 12.6501C21.8794 12.0618 22.0925 11.1983 21.8321 10.3966C21.5716 9.59488 20.8916 9.02148 20.0572 8.90021L17.6649 8.55267C17.618 8.54584 17.5775 8.51644 17.5565 8.47392L16.4865 6.30611C16.1134 5.5502 15.3581 5.08057 14.515 5.08057C13.672 5.08057 12.9165 5.55006 12.5434 6.30611L11.4736 8.47392C11.4525 8.51644 11.4119 8.54584 11.3653 8.55267L8.97274 8.90021C8.13848 9.02148 7.45844 9.59488 7.19799 10.3966C6.93754 11.1983 7.15069 12.0618 7.7543 12.6501L9.48557 14.3378C9.51948 14.3709 9.53493 14.4183 9.52686 14.4651L9.11821 16.8478C8.97575 17.6786 9.31084 18.5027 9.9928 18.998C10.6749 19.4937 11.5621 19.5576 12.3083 19.1655L14.4482 18.0404C14.49 18.0184 14.5401 18.0184 14.582 18.0404L16.7221 19.1655C17.0467 19.336 17.3978 19.4203 17.7472 19.4203C18.2011 19.4203 18.6522 19.278 19.0376 18.998C19.7192 18.5025 20.0543 17.6785 19.9119 16.8478ZM18.1105 12.8663C17.592 13.3715 17.3556 14.0989 17.478 14.8123L17.8867 17.1952C17.8908 17.2193 17.9018 17.2833 17.8295 17.3358C17.7573 17.3885 17.6996 17.3579 17.678 17.3467L15.5381 16.2216C15.2178 16.0532 14.8664 15.9691 14.515 15.9691C14.1637 15.9691 13.8122 16.0533 13.492 16.2216L11.3522 17.3467C11.3306 17.3579 11.273 17.3884 11.2007 17.3358C11.1284 17.2834 11.1393 17.2193 11.1436 17.1952L11.5522 14.8123C11.6746 14.0989 11.4382 13.3715 10.9199 12.8664L9.18875 11.1788C9.17125 11.1617 9.12477 11.1163 9.15225 11.0314C9.17987 10.9463 9.24426 10.9369 9.26832 10.9335L11.661 10.586C12.3772 10.4818 12.996 10.0321 13.3163 9.38324L14.3863 7.21543C14.3971 7.19342 14.4258 7.13531 14.5152 7.13531C14.6046 7.13531 14.6333 7.19355 14.6441 7.21543L15.7141 9.3831C16.0343 10.0321 16.6529 10.4818 17.3695 10.5861L19.7619 10.9336C19.7861 10.9372 19.8504 10.9465 19.878 11.0315C19.9056 11.1164 19.8591 11.1618 19.8416 11.1789L18.1105 12.8663Z" fill="#003970"/>
<path d="M62.2464 12.65C62.85 12.0617 63.0633 11.1982 62.8027 10.3965C62.5423 9.59476 61.8621 9.02136 61.0278 8.90009L58.6356 8.55255C58.5886 8.54572 58.5481 8.51632 58.5271 8.4738L57.4571 6.30599C57.084 5.55007 56.3287 5.08044 55.4856 5.08044C54.6426 5.08044 53.8871 5.54994 53.514 6.30599L52.4442 8.47367C52.423 8.51618 52.3825 8.54572 52.3358 8.55255L49.9432 8.90009C49.1088 9.02136 48.4289 9.59476 48.1685 10.3966C47.908 11.1983 48.1213 12.0618 48.7248 12.65L50.456 14.3377C50.4898 14.3708 50.5054 14.4182 50.4972 14.465L50.0888 16.8477C49.9462 17.6785 50.2813 18.5025 50.9633 18.998C51.6449 19.4936 52.5322 19.5577 53.2786 19.1655L55.4185 18.0404C55.4602 18.0185 55.5105 18.0183 55.5522 18.0404L57.6923 19.1655C58.0169 19.336 58.368 19.4203 58.7174 19.4203C59.1713 19.4203 59.6224 19.278 60.0078 18.998C60.6896 18.5025 61.0247 17.6785 60.8821 16.8478L60.4736 14.4651C60.4655 14.4185 60.4809 14.3709 60.5148 14.3378L62.2464 12.65ZM59.0808 12.8664C58.5625 13.3716 58.3261 14.0991 58.4486 14.8124L58.8573 17.1954C58.8612 17.2194 58.8723 17.2834 58.8 17.3358C58.7279 17.3883 58.67 17.3579 58.6485 17.3467L56.5087 16.2218C56.1884 16.0532 55.837 15.9691 55.4856 15.9691C55.1343 15.9691 54.7828 16.0533 54.4624 16.2217L52.3225 17.3467C52.3012 17.3579 52.2435 17.3884 52.1712 17.3358C52.099 17.2834 52.1099 17.2194 52.114 17.1952L52.5224 14.8128C52.6449 14.0994 52.4087 13.3717 51.8904 12.8664L50.1592 11.1786C50.1419 11.1617 50.0952 11.1163 50.1229 11.0314C50.1506 10.9464 50.2149 10.9369 50.2389 10.9335L52.6316 10.586C53.3476 10.4818 53.9663 10.0321 54.2869 9.38326L55.3569 7.21544C55.3677 7.19343 55.3965 7.13533 55.4858 7.13533C55.5751 7.13533 55.6038 7.19357 55.6146 7.21544L56.6845 9.38312C57.0046 10.0321 57.6235 10.4818 58.3401 10.5861L60.7324 10.9336C60.7566 10.9372 60.821 10.9465 60.8484 11.0315C60.8762 11.1164 60.8296 11.1618 60.8121 11.1789L59.0808 12.8664Z" fill="#003970"/>
</svg>
