<svg width="70" height="70" viewBox="0 0 70 70" fill="none" xmlns="http://www.w3.org/2000/svg">
<path d="M69.4237 8.83475C69.3821 8.79564 61.1597 0.954141 61.1597 0.954141C60.8454 0.652539 60.5203 0.34082 59.9132 0.34082H26.8109C25.844 0.34082 25.0573 1.12736 25.0573 2.09424V7.47863L13.3904 9.47855C12.4553 9.64262 11.8264 10.5376 11.9884 11.4718L12.5805 14.9242C8.78834 16.2003 4.895 17.5158 1.13647 18.8659C0.248342 19.1906 -0.217732 20.1782 0.0991818 21.0716L7.57565 41.8551C7.72604 42.2733 8.1202 42.5337 8.54061 42.5337C8.65572 42.5337 8.77303 42.5142 8.8876 42.4729C9.42053 42.2812 9.69711 41.6939 9.50543 41.1609L2.13957 20.6848C5.68059 19.4171 9.34766 18.1762 12.9315 16.9699L16.4548 37.5112L20.5091 61.1679C20.6555 62.003 21.3896 62.5972 22.2181 62.5972C22.3119 62.5972 22.407 62.5896 22.5025 62.5738L33.4832 60.6894L42.0636 59.2186L29.1586 63.8571L18.982 67.5161L11.0785 45.5332C10.887 45.0003 10.2998 44.7237 9.7667 44.9152C9.23377 45.1068 8.95719 45.6941 9.14873 46.2271L17.1643 68.5223C17.4206 69.2234 18.0848 69.6593 18.7869 69.6593C18.9809 69.6593 19.1779 69.6259 19.3698 69.5558L29.8522 65.787L53.6541 57.2319L58.2012 56.4525H68.2461C69.213 56.4525 69.9996 55.6642 69.9996 54.6951V9.99016C69.9998 9.37643 69.6667 9.06334 69.4237 8.83475ZM66.7069 9.07756H61.5759L61.4487 9.07811C61.203 9.07975 60.6279 9.08398 60.482 8.93906C60.4483 8.90557 60.409 8.79373 60.409 8.58605L60.3971 3.06057L66.7069 9.07756ZM67.949 54.4015H27.1081V34.4177C27.1081 33.8514 26.649 33.3923 26.0827 33.3923C25.5164 33.3923 25.0573 33.8514 25.0573 34.4177V54.6949C25.0573 55.6638 25.844 56.4522 26.8109 56.4522H46.0625L33.1364 58.6679L22.4748 60.4976L18.4761 37.1645L14.0643 11.4436L25.0572 9.55922V29.6599C25.0572 30.2262 25.5163 30.6853 26.0826 30.6853C26.6489 30.6853 27.108 30.2262 27.108 29.6599V2.39146H58.3448L58.3582 8.58838C58.3582 9.33951 58.5866 9.94709 59.0371 10.3944C59.7293 11.0817 60.7078 11.1296 61.3153 11.1296C61.3675 11.1296 61.417 11.1292 61.4633 11.1289L67.949 11.1285V54.4015Z" fill="#003970"/>
<path d="M32.0508 16.2626C32.0508 16.8289 32.5099 17.288 33.0762 17.288H62.3936C62.9599 17.288 63.419 16.8289 63.419 16.2626C63.419 15.6963 62.9599 15.2372 62.3936 15.2372H33.0762C32.5099 15.2372 32.0508 15.6963 32.0508 16.2626Z" fill="#003970"/>
<path d="M62.3936 22.5219H33.0762C32.5099 22.5219 32.0508 22.981 32.0508 23.5472C32.0508 24.1135 32.5099 24.5726 33.0762 24.5726H62.3936C62.9599 24.5726 63.419 24.1135 63.419 23.5472C63.419 22.981 62.9599 22.5219 62.3936 22.5219Z" fill="#003970"/>
<path d="M62.3936 29.8065H33.0762C32.5099 29.8065 32.0508 30.2656 32.0508 30.8319C32.0508 31.3982 32.5099 31.8573 33.0762 31.8573H62.3936C62.9599 31.8573 63.419 31.3982 63.419 30.8319C63.419 30.2656 62.9599 29.8065 62.3936 29.8065Z" fill="#003970"/>
<path d="M62.3936 37.0912H33.0762C32.5099 37.0912 32.0508 37.5503 32.0508 38.1166C32.0508 38.6829 32.5099 39.142 33.0762 39.142H62.3936C62.9599 39.142 63.419 38.6829 63.419 38.1166C63.419 37.5503 62.9599 37.0912 62.3936 37.0912Z" fill="#003970"/>
<path d="M62.3936 44.3759H33.0762C32.5099 44.3759 32.0508 44.835 32.0508 45.4012C32.0508 45.9675 32.5099 46.4266 33.0762 46.4266H62.3936C62.9599 46.4266 63.419 45.9675 63.419 45.4012C63.419 44.835 62.9599 44.3759 62.3936 44.3759Z" fill="#003970"/>
</svg>
