<svg width="80" height="62" viewBox="0 0 80 62" fill="none" xmlns="http://www.w3.org/2000/svg">
<path d="M78.948 3.44137C76.9631 0.340436 72.8253 -0.567064 69.7239 1.41762C66.6108 3.41044 63.7136 5.44091 61.0225 7.47309C60.1286 3.43059 56.5184 0.396842 52.2111 0.396842H22.8361C22.1191 0.396842 21.538 0.978092 21.538 1.69497C21.538 2.41184 22.1191 2.99309 22.8361 2.99309H52.2111C55.7175 2.99309 58.5773 5.81465 58.6398 9.30669C56.7933 10.765 55.0536 12.2184 53.4123 13.6572V12.9559C53.4123 10.3456 51.2886 8.222 48.6784 8.222H42.0472C41.3302 8.222 40.7491 8.80325 40.7491 9.52012C40.7491 10.237 41.3302 10.8182 42.0472 10.8182H48.6784C49.8573 10.8182 50.8162 11.7773 50.8162 12.9561V15.9957C44.0428 22.2662 39.1955 28.1186 35.9491 32.5886L24.1253 21.0634C21.4881 18.4932 17.2522 18.5478 14.6825 21.1842C12.1123 23.8207 12.1666 28.057 14.8031 30.627L21.4144 37.0712C21.6545 37.3054 21.9889 37.4426 22.3248 37.4395C22.6697 37.4364 23.0092 37.2948 23.2503 37.0476C23.7506 36.5342 23.7402 35.7125 23.2267 35.2122L16.6155 28.7679C15.0039 27.197 14.9708 24.6079 16.5417 22.9964C18.112 21.3851 20.7014 21.3518 22.3131 22.9226C22.3131 22.9226 35.2175 35.5012 35.22 35.5037C35.4903 35.7672 35.8713 35.902 36.247 35.8667C36.6259 35.8312 36.9703 35.6314 37.1888 35.3198C37.4384 34.9637 37.6914 34.61 37.9464 34.2576C43.0317 27.2382 53.5887 14.8306 71.1239 3.60481C73.0194 2.39153 75.5484 2.94622 76.7617 4.84169C77.9752 6.737 77.4203 9.26622 75.5248 10.4795C69.0594 14.6186 63.6175 18.9142 59.0978 23.0112C59.0878 23.0197 59.0769 23.0264 59.067 23.0353C56.0161 25.8015 53.3887 28.4748 51.1514 30.9484C49.4317 32.8501 47.7594 34.8367 46.1852 36.8756C42.6806 41.4104 40.9933 44.4697 40.7663 44.8911C40.7611 44.9006 40.7566 44.909 40.7528 44.9161C40.7502 44.9211 40.7486 44.924 40.7466 44.9276C40.7419 44.9364 40.7384 44.9428 40.7375 44.9447C40.1431 46.0828 39.0316 46.8833 37.7633 47.0858C36.4977 47.2881 35.1881 46.8726 34.2708 45.9782L26.9556 38.8479C26.8914 38.7853 26.8223 38.7307 26.7498 38.6842C26.2416 38.3579 25.5575 38.4223 25.12 38.8715C24.6197 39.385 24.6302 40.2067 25.1436 40.707L32.4587 47.8373C33.7128 49.06 35.3681 49.7332 37.1195 49.7332C38.2497 49.7332 39.3812 49.4379 40.3681 48.8867C41.4928 48.2587 42.4311 47.3111 43.0384 46.1483C43.085 46.06 45.4667 41.6298 50.8164 35.2936V49.0759C50.8164 50.2548 49.8575 51.2139 48.6786 51.2139H12.5589C11.38 51.2139 10.4209 50.2548 10.4209 49.0759V12.9557C10.4209 11.777 11.38 10.8179 12.5589 10.8179H36.8547C37.5717 10.8179 38.1528 10.2367 38.1528 9.51981C38.1528 8.80294 37.5717 8.22169 36.8547 8.22169H12.5589C9.94844 8.22169 7.82469 10.3454 7.82469 12.9556V49.0751C7.82469 51.6856 9.94844 53.8093 12.5589 53.8093H48.6786C51.2889 53.8093 53.4125 51.6856 53.4125 49.0751V32.3365C54.9633 30.6365 56.703 28.8418 58.6409 26.989V52.6079C58.6409 56.1534 55.7566 59.0378 52.2113 59.0378H9.02609C5.48062 59.0378 2.59625 56.1534 2.59625 52.6078V9.42309C2.59625 5.87762 5.48062 2.99325 9.02609 2.99325H17.6434C18.3605 2.99325 18.9416 2.412 18.9416 1.69512C18.9416 0.978248 18.3605 0.396998 17.6434 0.396998H9.02609C4.04922 0.396998 0 4.44606 0 9.42309V52.6078C0 57.5848 4.04922 61.6339 9.02609 61.6339H52.2109C57.188 61.6339 61.2369 57.5848 61.2369 52.6078V24.5823C65.5798 20.6795 70.7797 16.5992 76.9245 12.6656C80.0255 10.6801 80.9334 6.54215 78.948 3.44137Z" fill="#003970"/>
</svg>
